<?xml version="1.0" encoding="UTF-8" standalone="no"?>
<svg
   xmlns:dc="http://purl.org/dc/elements/1.1/"
   xmlns:cc="http://creativecommons.org/ns#"
   xmlns:rdf="http://www.w3.org/1999/02/22-rdf-syntax-ns#"
   xmlns:svg="http://www.w3.org/2000/svg"
   xmlns="http://www.w3.org/2000/svg"
   xmlns:sodipodi="http://sodipodi.sourceforge.net/DTD/sodipodi-0.dtd"
   xmlns:inkscape="http://www.inkscape.org/namespaces/inkscape"
   width="64"
   height="64"
   version="1"
   id="svg18"
   sodipodi:docname="icon.svg"
   inkscape:version="0.92.3 (2405546, 2018-03-11)">
  <metadata
     id="metadata24">
    <rdf:RDF>
      <cc:Work
         rdf:about="">
        <dc:format>image/svg+xml</dc:format>
        <dc:type
           rdf:resource="http://purl.org/dc/dcmitype/StillImage" />
      </cc:Work>
    </rdf:RDF>
  </metadata>
  <defs
     id="defs22" />
  <sodipodi:namedview
     pagecolor="#ffffff"
     bordercolor="#666666"
     borderopacity="1"
     objecttolerance="10"
     gridtolerance="10"
     guidetolerance="10"
     inkscape:pageopacity="0"
     inkscape:pageshadow="2"
     inkscape:window-width="640"
     inkscape:window-height="480"
     id="namedview20"
     showgrid="false"
     inkscape:snap-global="false"
     inkscape:zoom="3.6875"
     inkscape:cx="32"
     inkscape:cy="32"
     inkscape:window-x="281"
     inkscape:window-y="127"
     inkscape:window-maximized="0"
     inkscape:current-layer="svg18" />
  <rect
     style="opacity:0.2"
     width="52"
     height="52"
     x="-59"
     y="-58"
     rx="2.5"
     ry="2.5"
     transform="matrix(0,-1,-1,0,0,0)"
     id="rect2" />
  <rect
     style="fill:#4f4f4f"
     width="52"
     height="52"
     x="-58"
     y="-58"
     rx="2.5"
     ry="2.5"
     transform="matrix(0,-1,-1,0,0,0)"
     id="rect4" />
  <rect
     style="opacity:0.2"
     width="40"
     height="24"
     x="12"
     y="31"
     rx="2.5"
     ry="2.5"
     id="rect6" />
  <rect
     style="fill:#ffffff"
     width="40"
     height="24"
     x="12"
     y="30"
     rx="2.5"
     ry="2.5"
     id="rect8" />
  <path
     style="fill:#ffae3f"
     d="M 12,48 V 51.5 C 12,52.884 13.115,54 14.5,54 H 49.5 C 50.884,54 52,52.884 52,51.5 V 48 Z"
     id="path10" />
  <path
     style="opacity:0.2"
     d="M 20,7 V 24.5 C 20,25.886 21.114,27 22.5,27 H 49.5 C 50.884,27 52,25.886 52,24.5 V 7 Z M 40,11 H 46 C 47.108,11 48,11.892 48,13 V 21 C 48,22.108 47.108,23 46,23 H 40 C 38.892,23 38,22.108 38,21 V 13 C 38,11.892 38.892,11 40,11 Z"
     id="path12" />
  <path
     style="fill:#b7b7b7"
     d="M 20,5.9152542 V 23.415254 c 0,1.386 1.114,2.5 2.5,2.5 h 27 c 1.384,0 2.5,-1.114 2.5,-2.5 V 5.9152542 Z m 20,4 h 6 c 1.108,0 2,0.8919998 2,1.9999998 v 8 c 0,1.108 -0.892,2 -2,2 h -6 c -1.108,0 -2,-0.892 -2,-2 v -8 c 0,-1.108 0.892,-1.9999998 2,-1.9999998 z"
     id="path14"
     inkscape:connector-curvature="0" />
  <path
     style="opacity:0.1;fill:#ffffff"
     d="M 8.5,6 C 7.115,6 6,7.115 6,8.5 V 9.5 C 6,8.115 7.115,7 8.5,7 H 55.5 C 56.885,7 58,8.115 58,9.5 V 8.5 C 58,7.115 56.885,6 55.5,6 Z"
     id="path16" />
</svg>
