<svg xmlns="http://www.w3.org/2000/svg" viewBox="0 0 512 512" style="height: 512px; width: 512px;"><g class="" transform="translate(0,0)" style="touch-action: none;"><g><path d="M373.563 18.406C357.947 18.239 345.653 23.028 341 33.156C318.222 82.761 292.257 120.296 261.906 150.436C264.953 151.451 267.952 152.726 270.844 154.219C283.831 160.927 296.112 171.999 306.156 185.062C316.2 198.124 324.006 213.176 326.936 228.562C327.682 232.47 328.096 236.447 328.094 240.405C367.064 216.045 413.152 199.182 468.969 189.093C483.879 186.396 492.621 160.461 490.374 130.437L455.218 129.437L485.778 104.624C481.63 90.117 474.765 75.87 464.623 63.904C449.095 45.59 428.193 32.528 407.903 25.218L381.94 40.812L384.752 19.312C380.877 18.762 377.142 18.442 373.564 18.405Z" class="" fill="#b57204" fill-opacity="1"></path><path d="M246.938 166.562C245.875 166.614 244.878 166.788 243.938 167.032C231.962 177.286 219.328 186.629 206 195.312C206.842 195.642 207.67 195.979 208.5 196.344C222.623 202.536 235.938 213.489 246.97 226.969C260.326 243.291 270.59 263.909 272.594 284.719C282.928 274.352 293.834 264.776 305.438 255.999C309.534 249.444 310.368 241.531 308.563 232.061C306.379 220.601 299.921 207.631 291.313 196.436C282.703 185.242 271.933 175.814 262.25 170.811C256.198 167.685 251.096 166.361 246.937 166.561Z" class="" fill="#ffe0af" fill-opacity="1"></path><path d="M185.031 209.844C183.646 209.897 182.341 210.114 181.063 210.406C144.063 231.168 101.975 248.391 53.751 266.406C54.325 266.448 54.891 266.499 55.471 266.562C66.098 267.718 76.547 271.57 86.626 277.437L124.313 261L108.5 293.72C114.495 299.152 120.303 305.197 125.844 311.72C146.604 336.154 163.808 367.585 172.938 399.812C172.94 399.822 172.935 399.834 172.938 399.844C175.918 410.352 178.048 420.76 179.25 430.844C200.24 382.406 223.63 341.584 251.594 307.844C258.894 286.364 249.408 259.436 232.531 238.814C223.091 227.276 211.555 218.096 201.001 213.469C195.065 210.865 189.731 209.661 185.031 209.843Z" class="" fill="#b57204" fill-opacity="1"></path><path d="M326.657 264.688C319.347 269.738 312.195 275.198 305.22 281C344.38 290.26 366.173 316.722 385.875 343.156C396.339 357.196 406.473 371.266 419 383.844C443.19 392.991 462.17 390.224 482.906 368.906C390.741 341.126 386.796 276.296 326.656 264.686Z" class="" fill="#ffe0af" fill-opacity="1"></path><path d="M48.594 284.906C37.721 285.131 30.334 290.661 25.25 301.5C19.44 313.887 18.136 333.97 25.688 358.563C31.438 377.293 42.208 396.281 54.438 410.188C66.668 424.094 80.338 432.264 89.812 432.594L89.844 432.594C93.561 432.724 96.397 431.912 98.656 429.844L98.469 429.656L100.562 427.562C101.355 426.394 102.082 425.014 102.749 423.375C105.559 416.475 106.029 404.823 100.905 390.375C94.02 370.958 81.785 358.443 67.53 355.595L44.562 351.031L64.375 338.531L102.845 314.345C86.195 297.523 68.295 286.738 53.469 285.125C51.769 284.941 50.146 284.875 48.593 284.907Z" class="" fill="#8b572a" fill-opacity="1"></path><path d="M284.844 290.312L260.314 315.687C360.756 333.565 315.764 456.692 419.624 491.875L394.844 434.595C427.61 450.745 462.234 457.218 492.564 446.625C356.794 404.677 396.244 319.642 284.844 290.312Z" class="selected" fill="#ffe0af" fill-opacity="1"></path><path d="M115.374 328.532L89.406 344.875C102.586 353.375 112.616 367.44 118.531 384.125C121.101 391.369 122.664 398.33 123.281 404.905L146.721 381.531C138.641 362.341 127.686 343.965 115.376 328.531Z" class="" fill="#8b572a" fill-opacity="1"></path><path d="M153.75 400.906L111.687 442.906L111.531 442.75C107.276 446.692 102.075 449.515 96.345 450.688C119.613 465.561 140.989 470.034 153.157 460.25C157.417 456.824 160.2 451.89 161.627 445.844C161.217 433.16 159.025 419.229 154.97 404.938C154.588 403.592 154.164 402.252 153.75 400.906Z" class="" fill="#8b572a" fill-opacity="1"></path></g></g></svg>