<?xml version="1.0" encoding="UTF-8" standalone="no"?>
<svg
   xmlns:dc="http://purl.org/dc/elements/1.1/"
   xmlns:cc="http://creativecommons.org/ns#"
   xmlns:rdf="http://www.w3.org/1999/02/22-rdf-syntax-ns#"
   xmlns:svg="http://www.w3.org/2000/svg"
   xmlns="http://www.w3.org/2000/svg"
   xmlns:xlink="http://www.w3.org/1999/xlink"
   xmlns:sodipodi="http://sodipodi.sourceforge.net/DTD/sodipodi-0.dtd"
   xmlns:inkscape="http://www.inkscape.org/namespaces/inkscape"
   height="600"
   width="1024"
   version="1"
   id="svg3967"
   sodipodi:docname="splash.svg"
   inkscape:version="0.92.3 (2405546, 2018-03-11)"
   inkscape:export-filename="/home/jeremi360/DevProjects/Godot/Rakugo/graphics/splash.png"
   inkscape:export-xdpi="96"
   inkscape:export-ydpi="96">
  <metadata
     id="metadata3973">
    <rdf:RDF>
      <cc:Work
         rdf:about="">
        <dc:format>image/svg+xml</dc:format>
        <dc:type
           rdf:resource="http://purl.org/dc/dcmitype/StillImage" />
        <dc:title />
      </cc:Work>
    </rdf:RDF>
  </metadata>
  <defs
     id="defs3971">
    <linearGradient
       inkscape:collect="always"
       id="linearGradient1018">
      <stop
         style="stop-color:#478cbf;stop-opacity:1;"
         offset="0"
         id="stop1014" />
      <stop
         style="stop-color:#edd400;stop-opacity:1"
         offset="1"
         id="stop1016" />
    </linearGradient>
    <linearGradient
       inkscape:collect="always"
       xlink:href="#linearGradient1018"
       id="linearGradient41"
       gradientUnits="userSpaceOnUse"
       x1="415.14249"
       y1="529.26117"
       x2="412.85431"
       y2="457.87701" />
  </defs>
  <sodipodi:namedview
     pagecolor="#ffffff"
     bordercolor="#666666"
     borderopacity="1"
     objecttolerance="10"
     gridtolerance="10"
     guidetolerance="10"
     inkscape:pageopacity="0"
     inkscape:pageshadow="2"
     inkscape:window-width="1366"
     inkscape:window-height="720"
     id="namedview3969"
     showgrid="false"
     inkscape:snap-global="false"
     inkscape:zoom="0.78545995"
     inkscape:cx="221.51254"
     inkscape:cy="217.8412"
     inkscape:window-x="0"
     inkscape:window-y="48"
     inkscape:window-maximized="1"
     inkscape:current-layer="svg3967"
     inkscape:pagecheckerboard="true" />
  <g
     id="g927"
     transform="matrix(5.2182227,0,0,5.3250634,347.98508,-2716.6687)">
    <path
       sodipodi:nodetypes="cccscccsc"
       inkscape:connector-curvature="0"
       id="path3941"
       d="m 7.2159436,578.70819 -4.092158,-1.14364 v 4.77307 c 5.767215,8.80699 15.7548094,12.89037 28.6451064,12.89037 12.890298,0 22.877891,-4.08338 28.645106,-12.89037 v -4.77307 l -4.092157,1.14364 c 1.2183,-22.7917 -10.198688,-2.29548 -22.867143,-2.22616 -12.496546,0.0684 -26.2387544,-20.60185 -26.2387544,2.22616 z"
       style="opacity:0.2;stroke-width:1.02282059" />
    <path
       sodipodi:nodetypes="ccccccccccccsccccccccccccc"
       inkscape:connector-curvature="0"
       id="path3943"
       d="m 26.039871,541.0291 -0.234978,0.13702 -3.535948,1.49671 -3.39035,1.43509 1.432254,7.15821 -6.593409,3.01428 -3.432377,-3.01428 -7.1612774,7.15821 4.092158,4.43194 v 14.83931 l -4.092158,-1.14364 v 4.77307 c 5.767215,8.80699 15.7548094,12.89037 28.6451064,12.89037 12.890298,0 22.877891,-4.08338 28.645106,-12.89037 v -4.77307 l -4.092157,1.14364 v -14.83931 l 4.092157,-4.43194 -7.161277,-7.15821 -3.432377,3.01428 -6.593409,-3.01428 1.432255,-7.15821 -7.161276,-3.06882 -2.450502,4.09142 h -6.562636 z"
       style="fill:#478cbf;stroke-width:1.02282059" />
    <path
       inkscape:connector-curvature="0"
       id="path3945"
       d="m 17.446339,562.50475 c 3.390762,0 6.138237,2.7463 6.138237,6.13561 0,3.38931 -2.747475,6.13561 -6.138237,6.13561 -3.390762,0 -6.138237,-2.7463 -6.138237,-6.13561 0,-3.38931 2.747475,-6.13561 6.138237,-6.13561 z"
       style="opacity:0.2;stroke-width:1.02282059" />
    <path
       inkscape:connector-curvature="0"
       id="path3947"
       style="fill:#ffffff;stroke-width:1.02282059"
       d="m 17.446339,561.48215 c 3.390762,0 6.138237,2.74629 6.138237,6.1356 0,3.38931 -2.747475,6.13561 -6.138237,6.13561 -3.390762,0 -6.138237,-2.7463 -6.138237,-6.13561 0,-3.38931 2.747475,-6.1356 6.138237,-6.1356 z" />
    <path
       inkscape:connector-curvature="0"
       id="path3949"
       d="m 20.515457,567.61775 a 3.0691185,3.0678043 0 1 1 -6.138236,0 3.0691185,3.0678043 0 1 1 6.138236,0 z"
       style="fill:#353535;stroke-width:1.02282059" />
    <path
       inkscape:connector-curvature="0"
       id="path3951"
       d="m 31.768892,566.59515 c 1.133528,0 2.04608,0.91216 2.04608,2.04521 v 4.0904 c 0,1.13304 -0.912552,2.04521 -2.04608,2.04521 -1.133528,0 -2.046079,-0.91217 -2.046079,-2.04521 v -4.0904 c 0,-1.13305 0.912551,-2.04521 2.046079,-2.04521 z"
       style="opacity:0.2;stroke-width:1.02282059" />
    <path
       inkscape:connector-curvature="0"
       id="path3953"
       style="fill:#ffffff;stroke-width:1.02282059"
       d="m 31.768892,565.57255 c 1.133528,0 2.04608,0.91216 2.04608,2.0452 v 4.09041 c 0,1.13304 -0.912552,2.0452 -2.04608,2.0452 -1.133528,0 -2.046079,-0.91216 -2.046079,-2.0452 v -4.09041 c 0,-1.13304 0.912551,-2.0452 2.046079,-2.0452 z" />
    <path
       inkscape:connector-curvature="0"
       id="path3955"
       style="opacity:0.2;stroke-width:1.02282059"
       d="m 46.091445,562.50475 c 3.390763,0 6.138238,2.7463 6.138238,6.13561 0,3.38931 -2.747475,6.13561 -6.138238,6.13561 -3.390762,0 -6.138237,-2.7463 -6.138237,-6.13561 0,-3.38931 2.747475,-6.13561 6.138237,-6.13561 z" />
    <path
       inkscape:connector-curvature="0"
       id="path3957"
       d="m 46.091445,561.48215 c 3.390763,0 6.138238,2.74629 6.138238,6.1356 0,3.38931 -2.747475,6.13561 -6.138238,6.13561 -3.390762,0 -6.138237,-2.7463 -6.138237,-6.13561 0,-3.38931 2.747475,-6.1356 6.138237,-6.1356 z"
       style="fill:#ffffff;stroke-width:1.02282059" />
    <path
       inkscape:connector-curvature="0"
       id="path3959"
       d="m 49.160563,567.61775 a 3.0691185,3.0678043 0 1 1 -6.138236,0 3.0691185,3.0678043 0 1 1 6.138236,0 z"
       style="fill:#353535;stroke-width:1.02282059" />
    <g
       transform="matrix(1.0230395,0,0,1.0226014,-0.75937788,538.52335)"
       id="g909">
      <path
         inkscape:connector-curvature="0"
         style="opacity:0.2;fill:none;stroke:#000000;stroke-width:2"
         d="M 59.468614,37.364664 55,38.386562 v 3.808892 l -4,1.857996 v -3.901792 l -6,1.021898 v 3.808892 l -8,1.216058 v -4.2 H 32 M 4.5313868,37.364664 9,38.386562 v 3.808892 l 4,1.857996 v -3.901792 l 6,1.021898 v 3.808892 l 8,1.216058 v -4.2 h 5"
         id="path3961" />
      <path
         inkscape:connector-curvature="0"
         d="M 59.468614,36.365458 55,37.387356 v 3.808892 l -4,1.857996 v -3.901792 l -6,1.021898 v 3.808892 L 37,45.1993 v -4.2 H 32 M 4.5313868,36.365458 9,37.387356 v 3.808892 l 4,1.857996 v -3.901792 l 6,1.021898 v 3.808892 l 8,1.216058 v -4.2 h 5"
         style="fill:none;stroke:#ffffff;stroke-width:2"
         id="path3963" />
    </g>
    <path
       inkscape:connector-curvature="0"
       id="path3965"
       d="m 26.400391,539.99805 -0.230469,0.13476 -6.769531,2.86719 0.183593,0.92187 6.585938,-2.78906 0.230469,-0.13476 L 28.789062,545 h 3.208985 3.207031 l 2.394531,-4.00195 6.816407,2.92382 0.183593,-0.92187 -7,-3.00195 L 35.205078,544 H 31.998047 28.789062 Z M 11,550 4,557 4.4804688,557.51953 11,551 14.355469,553.94727 20.800781,551 l -0.183593,-0.91602 -6.261719,2.86329 z m 42,0 -3.355469,2.94727 -6.261719,-2.86329 L 43.199219,551 49.644531,553.94727 53,551 59.519531,557.51953 60,557 Z M 4,574.72656 v 1 l 4,1.11914 v -1 z m 56,0 -4,1.11914 v 1 l 4,-1.11914 z"
       style="opacity:0.2;fill:#ffffff" />
    <path
       style="opacity:0.2;fill:#2e3436"
       d="M 19.4,545 3.3613108,541.37344 11,552 0.58672745,549.92237 4,559 l 1.6114191,12.39326 2.3733723,-7.93703 -0.1930584,6.33751 2.775568,-7.48407 1.407049,7.22754 1.129215,-9.54337 1.841313,8.56117 0.80405,-9.79393 2.652982,9.16422 1.516021,-11.61329 2.926695,6.72057 1.128364,-7.15729 2.135545,7.43562 1.910538,-7.40748 2.811566,9.13454 2.364595,-9.09854 3.713426,9.80269 2.026144,-9.76278 3.715692,8.35155 3.002767,-8.30482 2.475856,8.39364 1.703246,-5.23288 1.94136,7.76717 1.182469,-5.40455 3.159942,8.76539 L 56,563.59277 59.008727,570.75361 60,559 62.753069,549.26216 53,552 60.182179,543.37509 44.599609,545 49.822389,539.76236 37.6,541.99901 l -6.768481,-2.50239 -4.661597,2.63619 -10.586909,-3.62631 z"
       id="path25096"
       inkscape:connector-curvature="0"
       sodipodi:nodetypes="ccccccccccccccccccccccccccccccccccccccccccc" />
    <path
       sodipodi:nodetypes="ccccccccccccccccccccccccccccccccccccccccccc"
       inkscape:connector-curvature="0"
       id="rect24279"
       d="m 18.878595,543.82126 -16.4082137,-3.37419 7.8146817,9.88706 -10.65319009,-1.93306 3.49191269,8.44593 1.6485454,11.53082 2.4280537,-7.3847 -0.1975064,5.89648 2.8395153,-6.96325 1.4394674,6.72458 1.155232,-8.87926 1.883735,7.9654 0.822576,-9.11237 2.714105,8.52649 1.550949,-10.80513 2.994125,6.25289 1.154361,-6.65921 2.184747,6.91817 1.954555,-6.89199 2.876344,8.49886 2.419074,-8.46537 3.798982,9.12052 2.072825,-9.08338 3.8013,7.77036 3.071948,-7.72689 2.532899,7.80952 1.742489,-4.86872 1.986087,7.22665 1.209713,-5.02843 3.232745,8.1554 -0.118811,-6.25428 3.078045,6.66252 1.014112,-10.93568 2.816499,-9.06018 -9.977776,2.54731 7.347653,-8.02471 -15.941584,1.51184 5.34311,-4.87315 -12.503986,2.08099 -6.924424,-2.32824 -4.768998,2.45274 -10.830826,-3.37396 z"
       style="fill:#edd400;stroke-width:0.97562605" />
  </g>
  <flowRoot
     xml:space="preserve"
     id="flowRoot948"
     style="font-style:normal;font-weight:normal;font-size:40px;line-height:1.25;font-family:sans-serif;letter-spacing:0px;word-spacing:0px;fill:#000000;fill-opacity:1;stroke:#ffffff;stroke-width:1.43898535;stroke-linecap:round;stroke-linejoin:bevel;stroke-miterlimit:4;stroke-dasharray:none;stroke-opacity:1;paint-order:markers stroke fill"
     transform="matrix(1.6691795,0,0,2.6039147,-228.66763,-764.14647)"><flowRegion
       id="flowRegion950"
       style="fill:#000000;fill-opacity:1;stroke:#ffffff;stroke-width:1.43898535;stroke-linecap:round;stroke-linejoin:bevel;stroke-miterlimit:4;stroke-dasharray:none;stroke-opacity:1;paint-order:markers stroke fill"><rect
         id="rect952"
         width="621.29199"
         height="72.568947"
         x="267.35928"
         y="468.86664"
         style="fill:#000000;fill-opacity:1;stroke:#ffffff;stroke-width:1.43898535;stroke-linecap:round;stroke-linejoin:bevel;stroke-miterlimit:4;stroke-dasharray:none;stroke-opacity:1;paint-order:markers stroke fill" /></flowRegion><flowPara
       id="flowPara954"
       style="font-style:normal;font-variant:normal;font-weight:normal;font-stretch:normal;font-family:Ubuntu;-inkscape-font-specification:Ubuntu;fill:#000000;fill-opacity:1;stroke:#ffffff;stroke-width:1.43898535;stroke-linecap:round;stroke-linejoin:bevel;stroke-miterlimit:4;stroke-dasharray:none;stroke-opacity:1;paint-order:markers stroke fill">Rakugo Framework</flowPara><flowPara
       id="flowPara956"
       style="font-style:normal;font-variant:normal;font-weight:normal;font-stretch:normal;font-family:Ubuntu;-inkscape-font-specification:Ubuntu;fill:#000000;fill-opacity:1;stroke:#ffffff;stroke-width:1.43898535;stroke-linecap:round;stroke-linejoin:bevel;stroke-miterlimit:4;stroke-dasharray:none;stroke-opacity:1;paint-order:markers stroke fill" /></flowRoot></svg>
