<?xml version="1.0" encoding="UTF-8" standalone="no"?>
<!-- Created with Inkscape (http://www.inkscape.org/) -->

<svg
   xmlns:dc="http://purl.org/dc/elements/1.1/"
   xmlns:cc="http://creativecommons.org/ns#"
   xmlns:rdf="http://www.w3.org/1999/02/22-rdf-syntax-ns#"
   xmlns:svg="http://www.w3.org/2000/svg"
   xmlns="http://www.w3.org/2000/svg"
   xmlns:sodipodi="http://sodipodi.sourceforge.net/DTD/sodipodi-0.dtd"
   xmlns:inkscape="http://www.inkscape.org/namespaces/inkscape"
   width="16"
   height="16"
   viewBox="0 0 16 16"
   id="svg2"
   version="1.1"
   inkscape:version="0.92.2 (unknown)"
   inkscape:export-filename="/home/djrm/Projects/godot/tools/editor/icons/icon_bone.png"
   inkscape:export-xdpi="90"
   inkscape:export-ydpi="90"
   sodipodi:docname="ren_var_label.svg">
  <defs
     id="defs4" />
  <sodipodi:namedview
     id="base"
     pagecolor="#ffffff"
     bordercolor="#666666"
     borderopacity="1.0"
     inkscape:pageopacity="0.0"
     inkscape:pageshadow="2"
     inkscape:zoom="32"
     inkscape:cx="16.855923"
     inkscape:cy="6.7477041"
     inkscape:document-units="px"
     inkscape:current-layer="layer1"
     showgrid="true"
     units="px"
     inkscape:snap-bbox="true"
     inkscape:bbox-paths="true"
     inkscape:bbox-nodes="true"
     inkscape:snap-bbox-edge-midpoints="true"
     inkscape:snap-bbox-midpoints="true"
     inkscape:snap-object-midpoints="true"
     inkscape:snap-center="true"
     inkscape:window-width="1366"
     inkscape:window-height="711"
     inkscape:window-x="0"
     inkscape:window-y="32"
     inkscape:window-maximized="1"
     showguides="true"
     inkscape:object-paths="true"
     inkscape:snap-intersection-paths="true"
     inkscape:object-nodes="true"
     inkscape:snap-global="false">
    <inkscape:grid
       type="xygrid"
       id="grid3336" />
  </sodipodi:namedview>
  <metadata
     id="metadata7">
    <rdf:RDF>
      <cc:Work
         rdf:about="">
        <dc:format>image/svg+xml</dc:format>
        <dc:type
           rdf:resource="http://purl.org/dc/dcmitype/StillImage" />
        <dc:title></dc:title>
      </cc:Work>
    </rdf:RDF>
  </metadata>
  <g
     inkscape:label="Layer 1"
     inkscape:groupmode="layer"
     id="layer1"
     transform="translate(0,-1036.3622)">
    <path
       style="color:#000000;font-style:normal;font-variant:normal;font-weight:normal;font-stretch:normal;font-size:medium;line-height:normal;font-family:sans-serif;text-indent:0;text-align:start;text-decoration:none;text-decoration-line:none;text-decoration-style:solid;text-decoration-color:#000000;letter-spacing:normal;word-spacing:normal;text-transform:none;writing-mode:lr-tb;direction:ltr;baseline-shift:baseline;text-anchor:start;white-space:normal;clip-rule:nonzero;display:inline;overflow:visible;visibility:visible;opacity:1;isolation:auto;mix-blend-mode:normal;color-interpolation:sRGB;color-interpolation-filters:linearRGB;solid-color:#000000;solid-opacity:1;fill:#a5efac;fill-opacity:1;fill-rule:evenodd;stroke:none;stroke-width:2;stroke-linecap:butt;stroke-linejoin:round;stroke-miterlimit:4;stroke-dasharray:none;stroke-dashoffset:0;stroke-opacity:1;color-rendering:auto;image-rendering:auto;shape-rendering:auto;text-rendering:auto;enable-background:accumulate"
       d="M 6.1113281 3 A 1.0001 1.0001 0 0 0 5.4042969 3.2929688 L 1.4042969 7.2929688 A 1.0001 1.0001 0 0 0 1.4042969 8.7070312 L 5.4042969 12.707031 A 1.0001 1.0001 0 0 0 6.1113281 13 L 14.111328 13 A 1.0001 1.0001 0 0 0 15.111328 12 L 15.111328 4 A 1.0001 1.0001 0 0 0 14.111328 3 L 6.1113281 3 z M 14.384766 3.203125 L 14.384766 10.679688 C 14.384766 10.951421 14.424315 11.149237 14.501953 11.273438 C 14.57959 11.389904 14.714108 11.471045 14.908203 11.517578 L 14.816406 12.355469 C 14.406035 12.340135 14.113004 12.201633 13.935547 11.9375 C 13.75809 11.665767 13.669922 11.238517 13.669922 10.65625 L 13.669922 3.3789062 L 14.384766 3.203125 z M 5.6816406 4.1699219 L 6.4628906 4.1699219 C 6.5349829 4.7676552 6.6163493 5.369076 6.7050781 5.9746094 C 6.793807 6.5723427 6.8884612 7.161874 6.9882812 7.7441406 C 7.0881012 8.3263406 7.1872894 8.8941125 7.2871094 9.4453125 C 7.3924749 9.9887125 7.49393 10.505074 7.59375 10.994141 C 7.69357 10.505074 7.7947112 9.9887125 7.8945312 9.4453125 C 7.9998968 8.8941125 8.1013519 8.3263406 8.2011719 7.7441406 C 8.3009919 7.161874 8.3956464 6.5723427 8.484375 5.9746094 C 8.5731043 5.369076 8.6544705 4.7676552 8.7265625 4.1699219 L 9.4824219 4.1699219 C 9.3604196 5.0238552 9.2391897 5.8151885 9.1171875 6.5449219 C 8.9951852 7.2668552 8.8697354 7.9552885 8.7421875 8.6074219 C 8.6201852 9.2594885 8.4947352 9.8846217 8.3671875 10.482422 C 8.2396397 11.072422 8.1138759 11.658034 7.9863281 12.240234 L 7.1777344 12.240234 C 7.0501867 11.658034 6.9244228 11.072422 6.796875 10.482422 C 6.6693272 9.8846217 6.5416103 9.2594885 6.4140625 8.6074219 C 6.2920603 7.9552885 6.1688772 7.2668552 6.046875 6.5449219 C 5.9248728 5.8151885 5.8036428 5.0238552 5.6816406 4.1699219 z M 11.126953 5.9746094 C 11.515142 5.9746094 11.832168 6.1447281 12.076172 6.4863281 C 12.320177 6.8201281 12.441406 7.3443937 12.441406 8.0585938 L 12.441406 12.111328 C 12.241766 12.188928 12.036903 12.250275 11.826172 12.296875 C 11.620987 12.343542 11.41839 12.367187 11.21875 12.367188 C 11.01911 12.367188 10.829802 12.333539 10.652344 12.263672 C 10.480432 12.193805 10.328407 12.081048 10.195312 11.925781 C 10.067766 11.770515 9.9663091 11.576617 9.8886719 11.34375 C 9.8110337 11.103083 9.7714844 10.81035 9.7714844 10.46875 C 9.7714844 10.150483 9.8045471 9.8754448 9.8710938 9.6425781 C 9.9431857 9.4019115 10.040107 9.2040948 10.162109 9.0488281 C 10.284111 8.8858281 10.429336 8.7651667 10.595703 8.6875 C 10.76207 8.6021 10.940672 8.5605469 11.134766 8.5605469 C 11.31777 8.5605469 11.520365 8.5903436 11.742188 8.6523438 L 11.742188 8.09375 C 11.742188 7.6434833 11.678329 7.328924 11.550781 7.1503906 C 11.428779 6.9717906 11.252445 6.8828125 11.019531 6.8828125 C 10.891983 6.8828125 10.7688 6.9027397 10.652344 6.9414062 C 10.541433 6.9727396 10.42247 7.0261156 10.294922 7.1035156 L 10.146484 6.2539062 C 10.290669 6.1685063 10.442694 6.1032406 10.603516 6.0566406 C 10.764336 6.001974 10.938404 5.9746094 11.126953 5.9746094 z M 5.1113281 7 A 1 1 0 0 1 6.1113281 8 A 1 1 0 0 1 5.1113281 9 A 1 1 0 0 1 4.1113281 8 A 1 1 0 0 1 5.1113281 7 z M 11.251953 9.3867188 C 11.146587 9.3867188 11.0474 9.4066458 10.953125 9.4453125 C 10.858851 9.4766458 10.775217 9.5340073 10.703125 9.6191406 C 10.636578 9.6967406 10.583741 9.8055125 10.544922 9.9453125 C 10.506102 10.077246 10.486328 10.247431 10.486328 10.457031 L 10.486328 10.458984 C 10.486328 10.816051 10.552454 11.0792 10.685547 11.25 C 10.81864 11.4208 11.007948 11.505859 11.251953 11.505859 C 11.401682 11.505859 11.564728 11.478495 11.742188 11.423828 L 11.742188 9.4804688 C 11.57582 9.4184686 11.412774 9.3867188 11.251953 9.3867188 z "
       transform="translate(0,1036.3622)"
       id="path4164" />
    <g
       aria-label="Ch"
       transform="matrix(0.99909433,0,0,1.0009065,5.1035725,6.6588754)"
       style="font-style:normal;font-weight:normal;font-size:10.16722107px;line-height:125%;font-family:sans-serif;letter-spacing:0px;word-spacing:0px;fill:#a5efac;fill-opacity:1;stroke:none;stroke-width:0.25418049px;stroke-linecap:butt;stroke-linejoin:miter;stroke-opacity:1"
       id="text1990" />
  </g>
</svg>
