<?xml version="1.0" encoding="UTF-8" standalone="no"?>
<svg
   xmlns:dc="http://purl.org/dc/elements/1.1/"
   xmlns:cc="http://creativecommons.org/ns#"
   xmlns:rdf="http://www.w3.org/1999/02/22-rdf-syntax-ns#"
   xmlns:svg="http://www.w3.org/2000/svg"
   xmlns="http://www.w3.org/2000/svg"
   xmlns:sodipodi="http://sodipodi.sourceforge.net/DTD/sodipodi-0.dtd"
   xmlns:inkscape="http://www.inkscape.org/namespaces/inkscape"
   width="16"
   height="16"
   version="1"
   id="svg6"
   sodipodi:docname="ren_panel.svg"
   inkscape:version="0.92.3 (2405546, 2018-03-11)">
  <metadata
     id="metadata12">
    <rdf:RDF>
      <cc:Work
         rdf:about="">
        <dc:format>image/svg+xml</dc:format>
        <dc:type
           rdf:resource="http://purl.org/dc/dcmitype/StillImage" />
        <dc:title></dc:title>
      </cc:Work>
    </rdf:RDF>
  </metadata>
  <defs
     id="defs10" />
  <sodipodi:namedview
     pagecolor="#ffffff"
     bordercolor="#666666"
     borderopacity="1"
     objecttolerance="10"
     gridtolerance="10"
     guidetolerance="10"
     inkscape:pageopacity="0"
     inkscape:pageshadow="2"
     inkscape:window-width="1366"
     inkscape:window-height="710"
     id="namedview8"
     showgrid="false"
     inkscape:zoom="14.75"
     inkscape:cx="8"
     inkscape:cy="8"
     inkscape:window-x="0"
     inkscape:window-y="28"
     inkscape:window-maximized="1"
     inkscape:current-layer="svg6" />
  <path
     fill="#02a8f3"
     d="m0.88892 1c-0.49249 0-0.88892 0.3903-0.88892 0.875v10.125c0 0.48475 0.39669 0.98462 0.88892 1h8.1111l1.5 2 1.5-2h3.1117c0.492 0 0.888-0.515 0.888-1v-10.125c0-0.4847-0.396-0.875-0.889-0.875z"
     id="path2" />
  <g
     id="g1107"
     style="fill:#016592;fill-opacity:1"
     transform="matrix(1,0,0,0.91313101,6.4052325,-0.21771223)">
    <path
       d="m -5.5163125,2.4207 q 0.7763,-0.2791 1.497151,-0.2791 0.57668,0 1.04246,0.197 0.465781,0.1971 0.7984812,0.6239 0.3327,0.4269 0.510142,1.1001 0.188537,0.6732 0.188537,1.6255 0,1.1821 -0.31052,1.921 -0.29943,0.7224 -0.8206612,1.1001 0.1330802,0.3283 0.3327002,0.903 0.210712,0.5582 0.421421,1.2478 0.221793,0.6732 0.421413,1.3956 0.21071,0.7225 0.354879,1.3792 h -0.998101 q -0.121997,-0.4925 -0.310519,-1.1165 -0.1774342,-0.6239 -0.3770602,-1.2314 -0.19962,-0.6239 -0.39924,-1.1821 -0.19962,-0.5747 -0.354881,-0.9687 -0.177434,0.033 -0.365971,0.049 -0.18853,0.016 -0.377059,0.016 h -0.277252 v 4.4331 h -0.97592 z m 0.97592,5.566 h 0.421421 q 0.765211,0 1.17554,-0.509 0.410332,-0.5254 0.410332,-1.7896 0,-0.6404 -0.110893,-1.0672 -0.09981,-0.4434 -0.29943,-0.6896 -0.188537,-0.2627 -0.465781,-0.3777 -0.26616,-0.1149 -0.59886,-0.1149 -0.288339,0 -0.532321,0.049 z"
       style="font-style:normal;font-variant:normal;font-weight:normal;font-stretch:normal;font-size:medium;line-height:125%;font-family:'Ubuntu Condensed';-inkscape-font-specification:'Ubuntu Condensed, ';letter-spacing:0px;word-spacing:0px;fill:#016592;fill-opacity:1;stroke:none;stroke-width:2.53010893px;stroke-linecap:butt;stroke-linejoin:miter;stroke-opacity:1"
       id="path4591"
       inkscape:connector-curvature="0" />
    <path
       d="m 0.5514817,9.7435 q 0.01102,0.624 0.07762,1.1494 0.06654,0.509 0.210709,0.903 0.155268,0.3776 0.399241,0.5911 0.2550708,0.2134 0.6432197,0.2134 0.321611,0 0.5877712,-0.1313 0.2772496,-0.1478 0.3992404,-0.2463 l 0.1774332,1.1329 q -0.1441632,0.1478 -0.4879591,0.3119 -0.3327002,0.1807 -0.7984806,0.1807 -0.6099518,0 -1.0313708,-0.3284 -0.410317,-0.3284 -0.676478,-0.9195 -0.255068,-0.5911 -0.36597,-1.412 -0.110893,-0.8209 -0.110893,-1.8061 0,-2.3807 0.532321,-3.4808 0.53232,-1.1 1.40843,-1.1 0.9870115,0 1.3973412,1.1 0.4103317,1.1001 0.4103317,3.0868 0,0.1806 0,0.3776 0,0.1806 -0.011021,0.3776 z M 1.5163125,6 Q 1.0394427,6 0.8176417,6.7061 0.6069327,7.4121 0.5625727,8.5942 h 1.7633119 q 0,-1.1986 -0.1663501,-1.8881 Q 1.9931843,6 1.5163125,6 Z"
       style="font-style:normal;font-variant:normal;font-weight:normal;font-stretch:normal;font-size:medium;line-height:125%;font-family:'Ubuntu Condensed';-inkscape-font-specification:'Ubuntu Condensed, ';letter-spacing:0px;word-spacing:0px;fill:#016592;fill-opacity:1;stroke:none;stroke-width:2.53010893px;stroke-linecap:butt;stroke-linejoin:miter;stroke-opacity:1"
       id="path4593"
       inkscape:connector-curvature="0" />
    <path
       d="m 4.7273927,5.2612 q 0.410329,-0.1806 0.887199,-0.2955 0.476872,-0.1314 0.876112,-0.1314 0.43251,0 0.787389,0.1806 0.354881,0.1642 0.598861,0.5747 Q 8.1320247,6 8.2651047,6.7061 8.4092677,7.3956 8.4092677,8.43 v 5.2048 H 7.4555287 V 8.545 q 0,-1.2807 -0.221801,-1.8718 -0.221801,-0.5911 -0.831751,-0.5911 -0.321611,0 -0.720851,0.1642 v 7.3885 h -0.95374 z"
       style="font-style:normal;font-variant:normal;font-weight:normal;font-stretch:normal;font-size:medium;line-height:125%;font-family:'Ubuntu Condensed';-inkscape-font-specification:'Ubuntu Condensed, ';letter-spacing:0px;word-spacing:0px;fill:#016592;fill-opacity:1;stroke:none;stroke-width:2.53010893px;stroke-linecap:butt;stroke-linejoin:miter;stroke-opacity:1"
       id="path4595"
       inkscape:connector-curvature="0" />
  </g>
</svg>
