<?xml version="1.0" encoding="UTF-8" standalone="no"?>
<!-- Created with Inkscape (http://www.inkscape.org/) -->

<svg
   xmlns:dc="http://purl.org/dc/elements/1.1/"
   xmlns:cc="http://creativecommons.org/ns#"
   xmlns:rdf="http://www.w3.org/1999/02/22-rdf-syntax-ns#"
   xmlns:svg="http://www.w3.org/2000/svg"
   xmlns="http://www.w3.org/2000/svg"
   xmlns:sodipodi="http://sodipodi.sourceforge.net/DTD/sodipodi-0.dtd"
   xmlns:inkscape="http://www.inkscape.org/namespaces/inkscape"
   width="16"
   height="16"
   viewBox="0 0 16 16"
   id="svg2"
   version="1.1"
   inkscape:version="0.92.2 (unknown)"
   inkscape:export-filename="/home/djrm/Projects/godot/tools/editor/icons/icon_center_container.png"
   inkscape:export-xdpi="90"
   inkscape:export-ydpi="90"
   sodipodi:docname="ren_panel.svg">
  <defs
     id="defs4" />
  <sodipodi:namedview
     id="base"
     pagecolor="#ffffff"
     bordercolor="#666666"
     borderopacity="1.0"
     inkscape:pageopacity="0.0"
     inkscape:pageshadow="2"
     inkscape:zoom="32"
     inkscape:cx="6.4355266"
     inkscape:cy="6.9694327"
     inkscape:document-units="px"
     inkscape:current-layer="layer1"
     showgrid="true"
     units="px"
     inkscape:snap-bbox="true"
     inkscape:bbox-paths="true"
     inkscape:bbox-nodes="true"
     inkscape:snap-bbox-edge-midpoints="true"
     inkscape:snap-bbox-midpoints="true"
     inkscape:snap-object-midpoints="true"
     inkscape:snap-center="true"
     inkscape:window-width="1366"
     inkscape:window-height="711"
     inkscape:window-x="0"
     inkscape:window-y="32"
     inkscape:window-maximized="1">
    <inkscape:grid
       type="xygrid"
       id="grid3336" />
  </sodipodi:namedview>
  <metadata
     id="metadata7">
    <rdf:RDF>
      <cc:Work
         rdf:about="">
        <dc:format>image/svg+xml</dc:format>
        <dc:type
           rdf:resource="http://purl.org/dc/dcmitype/StillImage" />
        <dc:title />
      </cc:Work>
    </rdf:RDF>
  </metadata>
  <g
     inkscape:label="Layer 1"
     inkscape:groupmode="layer"
     id="layer1"
     transform="translate(0,-1036.3622)">
    <path
       style="opacity:1;fill:#a5efac;fill-opacity:1;stroke:none;stroke-width:2;stroke-linecap:round;stroke-linejoin:miter;stroke-miterlimit:4;stroke-dasharray:none;stroke-dashoffset:0;stroke-opacity:1"
       d="M 3 1 C 1.8954305 1 1 1.8955 1 3 L 1 13 C 1 14.1046 1.8954305 15 3 15 L 13 15 C 14.104569 15 15 14.1046 15 13 L 15 3 C 15 1.8955 14.104569 1 13 1 L 3 1 z M 3.0058594 2.1503906 C 3.6565492 2.1503906 4.1453581 2.4578854 4.4707031 3.0742188 C 4.8018578 3.690552 4.9667969 4.6099448 4.9667969 5.8300781 C 4.9667969 6.5470781 4.8793701 7.1828615 4.7050781 7.7363281 C 4.5307862 8.2771948 4.2962963 8.6981333 4 9 C 4.0871459 9.3018667 4.1825342 9.6471764 4.2871094 10.037109 C 4.3974943 10.414509 4.5087558 10.823405 4.6191406 11.263672 C 4.7295256 11.691339 4.8368311 12.138116 4.9414062 12.603516 C 5.0517911 13.056316 5.153138 13.503093 5.2460938 13.943359 L 4.4785156 13.943359 C 4.3042236 13.037693 4.1134471 12.169977 3.9042969 11.339844 C 3.7009563 10.509577 3.5042211 9.8359792 3.3125 9.3203125 C 3.2776413 9.3329792 3.2240134 9.3398438 3.1542969 9.3398438 L 3.0234375 9.3398438 L 2.4140625 9.3398438 L 2.4140625 13.943359 L 1.6914062 13.943359 L 1.6914062 2.4335938 C 1.7785522 2.3835936 1.8759432 2.340801 1.9863281 2.3027344 C 2.1025227 2.265401 2.2197428 2.2398958 2.3359375 2.2265625 C 2.4579418 2.2012292 2.5771648 2.1825885 2.6933594 2.1699219 C 2.809554 2.1572552 2.9129036 2.1503906 3.0058594 2.1503906 z M 3.0683594 3.4902344 C 2.9347355 3.4902344 2.8035953 3.497099 2.6757812 3.5097656 C 2.553777 3.5097656 2.4663502 3.5215417 2.4140625 3.546875 L 2.4140625 8.0566406 L 2.875 8.0566406 C 3.0841503 8.0566406 3.2709212 8.0255573 3.4335938 7.9628906 C 3.6020759 7.900224 3.7451335 7.7867802 3.8613281 7.6230469 C 3.9833325 7.4469135 4.0747648 7.2151147 4.1386719 6.9257812 C 4.2025792 6.6239146 4.234375 6.2338594 4.234375 5.7558594 C 4.234375 5.3030594 4.2025792 4.9319115 4.1386719 4.6425781 C 4.0747645 4.3533115 3.9912935 4.126424 3.8867188 3.9628906 C 3.7821435 3.7867573 3.6569619 3.6683353 3.5117188 3.6054688 C 3.3722851 3.5299353 3.2252221 3.4902344 3.0683594 3.4902344 z M 8.1679688 5 C 8.7140833 5 9.1353442 5.3633969 9.4316406 6.0917969 C 9.7279367 6.8078635 9.875 7.9019604 9.875 9.3710938 L 9.875 9.9082031 L 6.9824219 9.9082031 C 7.0114705 10.797136 7.1485694 11.476247 7.3925781 11.945312 C 7.6423966 12.402114 7.9901507 12.628906 8.4375 12.628906 C 8.6931283 12.628906 8.911695 12.5864 9.0917969 12.5 C 9.2718982 12.413533 9.4089971 12.321456 9.5019531 12.222656 L 9.5976562 13.519531 C 9.5105098 13.618265 9.3535325 13.722918 9.1269531 13.833984 C 8.9003735 13.945118 8.6440518 14 8.359375 14 C 8.0107911 14 7.7027946 13.888216 7.4355469 13.666016 C 7.1741089 13.431416 6.9555419 13.117723 6.78125 12.722656 C 6.6069581 12.327656 6.477771 11.85772 6.390625 11.314453 C 6.3034791 10.75892 6.2597656 10.161465 6.2597656 9.5195312 C 6.2597656 8.7540648 6.3153963 8.0855115 6.4257812 7.5175781 C 6.5361661 6.9496448 6.6812265 6.4815948 6.8613281 6.1113281 C 7.0414298 5.7408615 7.2441236 5.4624769 7.4707031 5.2773438 C 7.6972827 5.0921437 7.9297695 5 8.1679688 5 z M 12.361328 5 C 12.901633 5 13.308974 5.30245 13.582031 5.90625 C 13.860899 6.5099833 14 7.4772135 14 8.8105469 L 14 13.943359 L 13.285156 13.943359 L 13.285156 9.09375 C 13.285156 8.52775 13.261317 8.0689969 13.214844 7.7167969 C 13.16837 7.3645969 13.102776 7.0949167 13.015625 6.90625 C 12.934289 6.7049833 12.832941 6.565701 12.710938 6.4902344 C 12.594743 6.414701 12.465605 6.3769531 12.326172 6.3769531 C 12.209977 6.3769531 12.084796 6.3955937 11.951172 6.4335938 C 11.823358 6.4589271 11.700129 6.496675 11.578125 6.546875 L 11.578125 13.943359 L 10.853516 13.943359 L 10.853516 5.4335938 C 11.114954 5.2953271 11.373278 5.1888146 11.628906 5.1132812 C 11.890344 5.0377479 12.134749 5 12.361328 5 z M 8.1582031 6.296875 C 7.9897208 6.296875 7.8366991 6.3642 7.6972656 6.5 C 7.5636418 6.6356667 7.4464217 6.814776 7.3476562 7.0371094 C 7.2488908 7.259376 7.1713787 7.5129417 7.1132812 7.796875 C 7.0551839 8.0808083 7.0174291 8.369749 7 8.6660156 L 9.1445312 8.6660156 C 9.1445312 7.9376156 9.0531484 7.3650458 8.8730469 6.9453125 C 8.6929452 6.5131792 8.4544994 6.296875 8.1582031 6.296875 z "
       transform="translate(0,1036.3622)"
       id="rect4140" />
    <g
       aria-label="Ren"
       transform="matrix(1.0741635,0,0,2.3256654,-0.70742191,-708.37324)"
       style="font-style:normal;font-weight:normal;font-size:8.11291504px;line-height:125%;font-family:sans-serif;letter-spacing:0px;word-spacing:0px;fill:#73d216;fill-opacity:1;stroke:none;stroke-width:0.20282289px;stroke-linecap:butt;stroke-linejoin:miter;stroke-opacity:1"
       id="text834" />
  </g>
</svg>
