<?xml version="1.0" encoding="UTF-8" standalone="no"?>
<!-- Created with Inkscape (http://www.inkscape.org/) -->

<svg
   xmlns:dc="http://purl.org/dc/elements/1.1/"
   xmlns:cc="http://creativecommons.org/ns#"
   xmlns:rdf="http://www.w3.org/1999/02/22-rdf-syntax-ns#"
   xmlns:svg="http://www.w3.org/2000/svg"
   xmlns="http://www.w3.org/2000/svg"
   xmlns:sodipodi="http://sodipodi.sourceforge.net/DTD/sodipodi-0.dtd"
   xmlns:inkscape="http://www.inkscape.org/namespaces/inkscape"
   width="27.197437"
   height="12.1047"
   viewBox="0 0 27.197437 12.1047"
   id="svg2"
   version="1.1"
   inkscape:version="0.92.3 (2405546, 2018-03-11)"
   inkscape:export-filename="/home/djrm/Projects/godot/tools/editor/icons/icon_control.png"
   inkscape:export-xdpi="90"
   inkscape:export-ydpi="90"
   sodipodi:docname="ren_timer.svg">
  <defs
     id="defs4" />
  <sodipodi:namedview
     id="base"
     pagecolor="#ffffff"
     bordercolor="#666666"
     borderopacity="1.0"
     inkscape:pageopacity="0.0"
     inkscape:pageshadow="2"
     inkscape:zoom="22.627416"
     inkscape:cx="17.019605"
     inkscape:cy="5.1978604"
     inkscape:document-units="px"
     inkscape:current-layer="layer1"
     showgrid="true"
     units="px"
     inkscape:snap-bbox="true"
     inkscape:bbox-paths="true"
     inkscape:bbox-nodes="true"
     inkscape:snap-bbox-edge-midpoints="true"
     inkscape:snap-bbox-midpoints="true"
     inkscape:snap-object-midpoints="true"
     inkscape:snap-center="true"
     inkscape:window-width="1366"
     inkscape:window-height="707"
     inkscape:window-x="0"
     inkscape:window-y="36"
     inkscape:window-maximized="1"
     fit-margin-top="0"
     fit-margin-left="0"
     fit-margin-right="0"
     fit-margin-bottom="0"
     inkscape:snap-global="false"
     inkscape:pagecheckerboard="true">
    <inkscape:grid
       type="xygrid"
       id="grid3336"
       empspacing="4"
       originx="13.197438"
       originy="-2" />
  </sodipodi:namedview>
  <metadata
     id="metadata7">
    <rdf:RDF>
      <cc:Work
         rdf:about="">
        <dc:format>image/svg+xml</dc:format>
        <dc:type
           rdf:resource="http://purl.org/dc/dcmitype/StillImage" />
        <dc:title></dc:title>
      </cc:Work>
    </rdf:RDF>
  </metadata>
  <g
     inkscape:label="Layer 1"
     inkscape:groupmode="layer"
     id="layer1"
     transform="translate(13.197438,-1038.2575)">
    <path
       inkscape:connector-curvature="0"
       id="path4591"
       style="font-style:normal;font-variant:normal;font-weight:normal;font-stretch:normal;font-size:medium;line-height:125%;font-family:'Ubuntu Condensed';-inkscape-font-specification:'Ubuntu Condensed, ';letter-spacing:0px;word-spacing:0px;fill:#e0e0e0;fill-opacity:1;stroke:none;stroke-width:2.38988018px;stroke-linecap:butt;stroke-linejoin:miter;stroke-opacity:1"
       d="m -12.711302,1039.3994 q 0.7492,-0.258 1.444886,-0.258 0.556548,0 1.006068,0.1821 0.449521,0.1822 0.7706068,0.5768 0.3210858,0.3947 0.492333,1.017 0.1819553,0.6224 0.1819553,1.5028 0,1.0929 -0.2996795,1.776 -0.2889773,0.6678 -0.7920125,1.017 0.1284342,0.3035 0.3210859,0.8348 0.2033557,0.5161 0.4067094,1.1536 0.2140499,0.6224 0.4067015,1.2903 0.2033537,0.6679 0.3424902,1.275 h -0.9632576 q -0.1177382,-0.4553 -0.2996791,-1.0322 -0.1712399,-0.5768 -0.3638974,-1.1384 -0.192651,-0.5768 -0.385302,-1.0929 -0.192652,-0.5313 -0.342493,-0.8955 -0.171239,0.031 -0.353195,0.045 -0.181948,0.015 -0.363896,0.015 h -0.267573 v 4.0984 h -0.941851 z m 0.941851,5.1458 h 0.406709 q 0.738498,0 1.134503,-0.4706 0.3960073,-0.4857 0.3960073,-1.6545 0,-0.592 -0.1070218,-0.9866 -0.096326,-0.4099 -0.2889775,-0.6375 -0.181955,-0.2429 -0.44952,-0.3492 -0.256869,-0.1063 -0.577954,-0.1063 -0.278274,0 -0.513738,0.045 z" />
    <path
       inkscape:connector-curvature="0"
       id="path4593"
       style="font-style:normal;font-variant:normal;font-weight:normal;font-stretch:normal;font-size:medium;line-height:125%;font-family:'Ubuntu Condensed';-inkscape-font-specification:'Ubuntu Condensed, ';letter-spacing:0px;word-spacing:0px;fill:#e0e0e0;fill-opacity:1;stroke:none;stroke-width:2.38988018px;stroke-linecap:butt;stroke-linejoin:miter;stroke-opacity:1"
       d="m -6.8553321,1046.1693 q 0.010636,0.5769 0.074913,1.0626 0.064217,0.4706 0.2033537,0.8349 0.1498468,0.3491 0.3853031,0.5464 0.2461665,0.1973 0.6207653,0.1973 0.3103837,0 0.5672524,-0.1214 0.2675709,-0.1366 0.385303,-0.2277 l 0.1712391,1.0474 q -0.1391305,0.1366 -0.4709246,0.2883 -0.3210858,0.1671 -0.770606,0.1671 -0.5886588,0 -0.9953662,-0.3036 -0.3959932,-0.3036 -0.6528619,-0.8501 -0.2461644,-0.5465 -0.3531944,-1.3054 -0.107022,-0.7589 -0.107022,-1.6697 0,-2.201 0.5137374,-3.218 0.5137374,-1.0169 1.3592628,-1.0169 0.9525554,0 1.3485607,1.0169 0.3960072,1.017 0.3960072,2.8537 0,0.167 0,0.3491 0,0.167 -0.010636,0.3491 z m 0.931149,-3.4608 q -0.4602224,0 -0.6742803,0.6528 -0.2033538,0.6526 -0.2461645,1.7455 h 1.7017551 q 0,-1.1081 -0.1605429,-1.7455 -0.160543,-0.6528 -0.6207674,-0.6528 z" />
    <path
       inkscape:connector-curvature="0"
       id="path4595"
       style="font-style:normal;font-variant:normal;font-weight:normal;font-stretch:normal;font-size:medium;line-height:125%;font-family:'Ubuntu Condensed';-inkscape-font-specification:'Ubuntu Condensed, ';letter-spacing:0px;word-spacing:0px;fill:#e0e0e0;fill-opacity:1;stroke:none;stroke-width:2.38988018px;stroke-linecap:butt;stroke-linejoin:miter;stroke-opacity:1"
       d="m -2.8252003,1042.0254 q 0.3960045,-0.1669 0.8562272,-0.2731 0.4602246,-0.1215 0.8455273,-0.1215 0.4174113,0 0.75990163,0.1669 0.34249226,0.1518 0.57795502,0.5314 0.24616658,0.3794 0.37460082,1.0322 0.13913033,0.6374 0.13913033,1.5937 v 4.8118 h -0.92044439 v -4.7055 q 0,-1.184 -0.21405802,-1.7305 -0.21405802,-0.5464 -0.80271489,-0.5464 -0.3103837,0 -0.6956865,0.1518 v 6.8306 h -0.9204453 z" />
    <g
       transform="matrix(0.87846606,0,0,0.85163518,0.96594997,154.88185)"
       id="g4">
      <path
         style="fill:#e0e0e0"
         inkscape:connector-curvature="0"
         transform="translate(0,1036.4)"
         d="m 3,1 a 1.0001,1.0001 0 0 0 -0.38672,0.078125 1.0001,1.0001 0 0 0 -0.00195,0 C 2.60905,1.0790795 2.60774,1.081065 2.60547,1.082035 A 1.0001,1.0001 0 0 0 2.29492,1.291015 C 2.29363,1.292295 2.29229,1.293635 2.29101,1.294925 A 1.0001,1.0001 0 0 0 2.08593,1.599615 C 2.08294,1.606465 2.07901,1.612216 2.07616,1.619146 a 1.0001,1.0001 0 0 0 -0.076172,0.38086 c 0,1.5 0.96697,2.6247 1.873,3.6602 0.76081,0.8695 1.4161,1.6425 1.875,2.3398 -0.45889,0.6974 -1.1141,1.4723 -1.875,2.3418 -0.90608,1.035501 -1.873,2.158201 -1.873,3.658201 a 1.0001,1.0001 0 0 0 0.078125,0.38867 v 0.002 c 9.292e-4,0.0022 0.00296,0.0037 0.00391,0.0059 a 1.0001,1.0001 0 0 0 0.20898,0.30664 c 0.00102,10e-4 0.00288,0.0048 0.00391,0.0059 a 1.0001,1.0001 0 0 0 0.30078,0.20312 c 0.00932,0.0041 0.017877,0.0079 0.027344,0.01172 a 1.0001,1.0001 0 0 0 0.37695,0.07617 h 10 a 1.0001,1.0001 0 0 0 0.375,-0.07422 c 0.01017,-0.0041 0.01929,-0.0093 0.0293,-0.01367 a 1.0001,1.0001 0 0 0 0.29297,-0.19922 c 0.0048,-0.0047 0.009,-0.0089 0.01367,-0.01367 a 1.0001,1.0001 0 0 0 0.20117,-0.29492 c 0.0041,-0.0093 0.0079,-0.01788 0.01172,-0.02734 a 1.0001,1.0001 0 0 0 0.07617,-0.37695 c 0,-1.5 -0.96697,-2.6227 -1.873,-3.6582 -0.76087,-0.8695 -1.4161,-1.6444 -1.875,-2.3418 0.4589,-0.6973 1.1142,-1.4703 1.875,-2.3398 0.90608,-1.0355 1.873,-2.1602 1.873,-3.6602 a 1.0001,1.0001 0 0 0 -0.07813,-0.39062 1.0001,1.0001 0 0 0 -0.21484,-0.31641 1.0001,1.0001 0 0 0 -0.31055,-0.21094 1.0001,1.0001 0 0 0 -0.01172,-0.00586 1.0001,1.0001 0 0 0 -0.38477,-0.076172 H 2.9999822 Z m 1.5879,2 h 6.8242 C 11.1743,3.4408 11.1066,3.7892 10.62304,4.3418 9.77912,5.3063 8.72474,6.3141 8.10544,7.5527 A 1.0001,1.0001 0 0 0 7.99997,7.99997 1.0001,1.0001 0 0 0 7.8945,7.5527 C 7.27524,6.3141 6.2208,5.3063 5.3769,4.3418 4.89334,3.7892 4.82564,3.4408 4.58784,3 Z"
         id="path2" />
    </g>
  </g>
</svg>
