<?xml version="1.0" encoding="UTF-8" standalone="no"?>
<!-- Created with Inkscape (http://www.inkscape.org/) -->

<svg
   xmlns:dc="http://purl.org/dc/elements/1.1/"
   xmlns:cc="http://creativecommons.org/ns#"
   xmlns:rdf="http://www.w3.org/1999/02/22-rdf-syntax-ns#"
   xmlns:svg="http://www.w3.org/2000/svg"
   xmlns="http://www.w3.org/2000/svg"
   xmlns:sodipodi="http://sodipodi.sourceforge.net/DTD/sodipodi-0.dtd"
   xmlns:inkscape="http://www.inkscape.org/namespaces/inkscape"
   width="27.197437"
   height="12.1047"
   viewBox="0 0 27.197437 12.1047"
   id="svg2"
   version="1.1"
   inkscape:version="0.92.3 (2405546, 2018-03-11)"
   inkscape:export-filename="/home/djrm/Projects/godot/tools/editor/icons/icon_control.png"
   inkscape:export-xdpi="90"
   inkscape:export-ydpi="90"
   sodipodi:docname="ren_control.svg">
  <defs
     id="defs4" />
  <sodipodi:namedview
     id="base"
     pagecolor="#ffffff"
     bordercolor="#666666"
     borderopacity="1.0"
     inkscape:pageopacity="0.0"
     inkscape:pageshadow="2"
     inkscape:zoom="22.627416"
     inkscape:cx="17.019605"
     inkscape:cy="1.6623263"
     inkscape:document-units="px"
     inkscape:current-layer="layer1"
     showgrid="true"
     units="px"
     inkscape:snap-bbox="true"
     inkscape:bbox-paths="true"
     inkscape:bbox-nodes="true"
     inkscape:snap-bbox-edge-midpoints="true"
     inkscape:snap-bbox-midpoints="true"
     inkscape:snap-object-midpoints="true"
     inkscape:snap-center="true"
     inkscape:window-width="1366"
     inkscape:window-height="714"
     inkscape:window-x="0"
     inkscape:window-y="30"
     inkscape:window-maximized="1"
     fit-margin-top="0"
     fit-margin-left="0"
     fit-margin-right="0"
     fit-margin-bottom="0"
     inkscape:snap-global="false">
    <inkscape:grid
       type="xygrid"
       id="grid3336"
       empspacing="4"
       originx="13.197438"
       originy="-2" />
  </sodipodi:namedview>
  <metadata
     id="metadata7">
    <rdf:RDF>
      <cc:Work
         rdf:about="">
        <dc:format>image/svg+xml</dc:format>
        <dc:type
           rdf:resource="http://purl.org/dc/dcmitype/StillImage" />
        <dc:title />
      </cc:Work>
    </rdf:RDF>
  </metadata>
  <g
     inkscape:label="Layer 1"
     inkscape:groupmode="layer"
     id="layer1"
     transform="translate(13.197438,-1038.2575)">
    <path
       style="opacity:1;fill:#a5efac;fill-opacity:1;stroke:none;stroke-width:2.8950336;stroke-linecap:round;stroke-linejoin:round;stroke-miterlimit:4;stroke-dasharray:none;stroke-dashoffset:0;stroke-opacity:1"
       d="M 7.7790291,1038.5832 A 5.7790291,5.8011262 0 0 0 2,1044.3843 a 5.7790291,5.8011262 0 0 0 5.7790291,5.8012 5.7790291,5.8011262 0 0 0 5.7790289,-5.8012 5.7790291,5.8011262 0 0 0 -5.7790289,-5.8011 z m 0,1.9337 a 3.8526861,3.8674175 0 0 1 3.8526859,3.8674 3.8526861,3.8674175 0 0 1 -3.8526859,3.8674 3.8526861,3.8674175 0 0 1 -3.8526861,-3.8674 3.8526861,3.8674175 0 0 1 3.8526861,-3.8674 z"
       id="path4154"
       inkscape:connector-curvature="0" />
    <path
       inkscape:connector-curvature="0"
       id="path4591"
       style="font-style:normal;font-variant:normal;font-weight:normal;font-stretch:normal;font-size:medium;line-height:125%;font-family:'Ubuntu Condensed';-inkscape-font-specification:'Ubuntu Condensed, ';letter-spacing:0px;word-spacing:0px;fill:#a5efac;fill-opacity:1;stroke:none;stroke-width:2.38988018px;stroke-linecap:butt;stroke-linejoin:miter;stroke-opacity:1"
       d="m -12.711302,1039.3994 q 0.7492,-0.258 1.444886,-0.258 0.556548,0 1.006068,0.1821 0.449521,0.1822 0.7706068,0.5768 0.3210858,0.3947 0.492333,1.017 0.1819553,0.6224 0.1819553,1.5028 0,1.0929 -0.2996795,1.776 -0.2889773,0.6678 -0.7920125,1.017 0.1284342,0.3035 0.3210859,0.8348 0.2033557,0.5161 0.4067094,1.1536 0.2140499,0.6224 0.4067015,1.2903 0.2033537,0.6679 0.3424902,1.275 h -0.9632576 q -0.1177382,-0.4553 -0.2996791,-1.0322 -0.1712399,-0.5768 -0.3638974,-1.1384 -0.192651,-0.5768 -0.385302,-1.0929 -0.192652,-0.5313 -0.342493,-0.8955 -0.171239,0.031 -0.353195,0.045 -0.181948,0.015 -0.363896,0.015 h -0.267573 v 4.0984 h -0.941851 z m 0.941851,5.1458 h 0.406709 q 0.738498,0 1.134503,-0.4706 0.3960073,-0.4857 0.3960073,-1.6545 0,-0.592 -0.1070218,-0.9866 -0.096326,-0.4099 -0.2889775,-0.6375 -0.181955,-0.2429 -0.44952,-0.3492 -0.256869,-0.1063 -0.577954,-0.1063 -0.278274,0 -0.513738,0.045 z" />
    <path
       inkscape:connector-curvature="0"
       id="path4593"
       style="font-style:normal;font-variant:normal;font-weight:normal;font-stretch:normal;font-size:medium;line-height:125%;font-family:'Ubuntu Condensed';-inkscape-font-specification:'Ubuntu Condensed, ';letter-spacing:0px;word-spacing:0px;fill:#a5efac;fill-opacity:1;stroke:none;stroke-width:2.38988018px;stroke-linecap:butt;stroke-linejoin:miter;stroke-opacity:1"
       d="m -6.8553321,1046.1693 q 0.010636,0.5769 0.074913,1.0626 0.064217,0.4706 0.2033537,0.8349 0.1498468,0.3491 0.3853031,0.5464 0.2461665,0.1973 0.6207653,0.1973 0.3103837,0 0.5672524,-0.1214 0.2675709,-0.1366 0.385303,-0.2277 l 0.1712391,1.0474 q -0.1391305,0.1366 -0.4709246,0.2883 -0.3210858,0.1671 -0.770606,0.1671 -0.5886588,0 -0.9953662,-0.3036 -0.3959932,-0.3036 -0.6528619,-0.8501 -0.2461644,-0.5465 -0.3531944,-1.3054 -0.107022,-0.7589 -0.107022,-1.6697 0,-2.201 0.5137374,-3.218 0.5137374,-1.0169 1.3592628,-1.0169 0.9525554,0 1.3485607,1.0169 0.3960072,1.017 0.3960072,2.8537 0,0.167 0,0.3491 0,0.167 -0.010636,0.3491 z m 0.931149,-3.4608 q -0.4602224,0 -0.6742803,0.6528 -0.2033538,0.6526 -0.2461645,1.7455 h 1.7017551 q 0,-1.1081 -0.1605429,-1.7455 -0.160543,-0.6528 -0.6207674,-0.6528 z" />
    <path
       inkscape:connector-curvature="0"
       id="path4595"
       style="font-style:normal;font-variant:normal;font-weight:normal;font-stretch:normal;font-size:medium;line-height:125%;font-family:'Ubuntu Condensed';-inkscape-font-specification:'Ubuntu Condensed, ';letter-spacing:0px;word-spacing:0px;fill:#a5efac;fill-opacity:1;stroke:none;stroke-width:2.38988018px;stroke-linecap:butt;stroke-linejoin:miter;stroke-opacity:1"
       d="m -2.8252003,1042.0254 q 0.3960045,-0.1669 0.8562272,-0.2731 0.4602246,-0.1215 0.8455273,-0.1215 0.4174113,0 0.75990163,0.1669 0.34249226,0.1518 0.57795502,0.5314 0.24616658,0.3794 0.37460082,1.0322 0.13913033,0.6374 0.13913033,1.5937 v 4.8118 h -0.92044439 v -4.7055 q 0,-1.184 -0.21405802,-1.7305 -0.21405802,-0.5464 -0.80271489,-0.5464 -0.3103837,0 -0.6956865,0.1518 v 6.8306 h -0.9204453 z" />
  </g>
</svg>
