<?xml version="1.0" encoding="UTF-8" standalone="no"?>
<!-- Created with Inkscape (http://www.inkscape.org/) -->

<svg
   xmlns:dc="http://purl.org/dc/elements/1.1/"
   xmlns:cc="http://creativecommons.org/ns#"
   xmlns:rdf="http://www.w3.org/1999/02/22-rdf-syntax-ns#"
   xmlns:svg="http://www.w3.org/2000/svg"
   xmlns="http://www.w3.org/2000/svg"
   xmlns:sodipodi="http://sodipodi.sourceforge.net/DTD/sodipodi-0.dtd"
   xmlns:inkscape="http://www.inkscape.org/namespaces/inkscape"
   width="27.520817"
   height="14.009672"
   viewBox="0 0 27.520817 14.009672"
   id="svg2"
   version="1.1"
   inkscape:version="0.92.2 (unknown)"
   inkscape:export-filename="/home/djrm/Projects/godot/tools/editor/icons/icon_sprite_3d.png"
   inkscape:export-xdpi="90"
   inkscape:export-ydpi="90"
   sodipodi:docname="ren_character2d.svg">
  <defs
     id="defs4" />
  <sodipodi:namedview
     id="base"
     pagecolor="#ffffff"
     bordercolor="#666666"
     borderopacity="1.0"
     inkscape:pageopacity="0.0"
     inkscape:pageshadow="2"
     inkscape:zoom="16"
     inkscape:cx="20.604331"
     inkscape:cy="2.9845611"
     inkscape:document-units="px"
     inkscape:current-layer="layer1"
     showgrid="true"
     units="px"
     inkscape:snap-bbox="true"
     inkscape:bbox-paths="true"
     inkscape:bbox-nodes="true"
     inkscape:snap-bbox-edge-midpoints="true"
     inkscape:snap-bbox-midpoints="true"
     inkscape:snap-object-midpoints="true"
     inkscape:snap-center="true"
     inkscape:window-width="1366"
     inkscape:window-height="717"
     inkscape:window-x="0"
     inkscape:window-y="32"
     inkscape:window-maximized="1"
     showguides="false"
     inkscape:pagecheckerboard="false"
     fit-margin-top="0"
     fit-margin-left="0"
     fit-margin-right="0"
     fit-margin-bottom="0">
    <inkscape:grid
       type="xygrid"
       id="grid3336"
       originx="13"
       originy="-0.99082768" />
  </sodipodi:namedview>
  <metadata
     id="metadata7">
    <rdf:RDF>
      <cc:Work
         rdf:about="">
        <dc:format>image/svg+xml</dc:format>
        <dc:type
           rdf:resource="http://purl.org/dc/dcmitype/StillImage" />
        <dc:title></dc:title>
      </cc:Work>
    </rdf:RDF>
  </metadata>
  <g
     inkscape:label="Layer 1"
     inkscape:groupmode="layer"
     id="layer1"
     transform="translate(13,-0.9995)">
    <path
       inkscape:connector-curvature="0"
       style="fill:#a5b7f3;fill-opacity:1;stroke:none;stroke-width:2;stroke-linecap:round;stroke-linejoin:round;stroke-miterlimit:4;stroke-dasharray:none;stroke-opacity:0.99607843"
       d="m 6.4921153,1 c -0.5540096,0 -1,0.446 -1,1 v 3 c 0,0.554 0.4459904,1 1,1 h 1 V 6.9902 A 1.0001,1.0001 0 0 0 7.1757091,7.0522 L 5.1249278,7.7358 4.4413342,5.685 A 1.0001,1.0001 0 0 0 3.4510998,4.9878 1.0001,1.0001 0 0 0 2.5428966,6.3159 l 1,3 A 1.0001,1.0001 0 0 0 4.8085215,9.9487 L 6.4921153,9.3882 v 0.6113 c 0,0.041 0.018715,0.076 0.023437,0.1152 l -4.5781249,3.0528 a 1.0001,1.0001 0 1 0 1.109375,1.664 l 5.0566406,-3.3711 1.4941407,2.9864 a 1.0001,1.0001 0 0 0 1.2109373,0.5019 l 3,-1 a 1.0001,1.0001 0 1 0 -0.632812,-1.8965 l -2.177735,0.7246 -0.974609,-1.9511 c 0.275899,-0.1777 0.46875,-0.4723 0.46875,-0.8262 v -1 h 1.382812 l 0.722657,1.4473 a 1.0001315,1.0001315 0 1 0 1.789062,-0.8946 l -1,-2 A 1.0001,1.0001 0 0 0 12.492115,6.9995 H 9.4921154 v -1 h 0.9999996 c 0.55401,0 1,-0.446 1,-1 v -3 c 0,-0.554 -0.44599,-1 -1,-1 z m 0,2 h 1 v 2 h -1 z"
       id="rect849" />
    <path
       inkscape:connector-curvature="0"
       id="path4591"
       style="font-style:normal;font-variant:normal;font-weight:normal;font-stretch:normal;font-size:medium;line-height:125%;font-family:'Ubuntu Condensed';-inkscape-font-specification:'Ubuntu Condensed, ';letter-spacing:0px;word-spacing:0px;fill:#a5b7f3;fill-opacity:1;stroke:none;stroke-width:2.53010893px;stroke-linecap:butt;stroke-linejoin:miter;stroke-opacity:1"
       d="M -13,2.2791223 Q -12.2237,2 -11.502849,2 q 0.57668,0 1.04246,0.1970268 0.4657809,0.1970267 0.7984812,0.6239172 0.3327002,0.4268923 0.5101418,1.1000681 0.1885371,0.6731727 0.1885371,1.6254707 0,1.1821606 -0.3105196,1.9210109 -0.2994303,0.7224294 -0.8206615,1.100065 0.1330802,0.328379 0.3327004,0.9030383 0.2107115,0.558245 0.421421,1.247838 0.2217926,0.673176 0.4214128,1.395605 0.2107095,0.722433 0.3548789,1.379188 h -0.9981009 q -0.121997,-0.492567 -0.3105195,-1.116483 -0.1774337,-0.623919 -0.3770597,-1.231418 -0.19962,-0.623919 -0.39924,-1.18216 -0.19962,-0.5746624 -0.354881,-0.9687159 -0.177434,0.032848 -0.365971,0.049257 -0.18853,0.016316 -0.377059,0.016316 H -12.02408 V 13.493126 H -13 Z m 0.97592,5.566007 h 0.421421 q 0.765211,0 1.17554,-0.5089878 0.410332,-0.5254026 0.410332,-1.7896587 0,-0.6403369 -0.110893,-1.0672293 -0.09981,-0.4433102 -0.29943,-0.6895936 -0.188537,-0.2626921 -0.465781,-0.3776326 -0.26616,-0.114922 -0.59886,-0.114922 -0.288339,0 -0.532321,0.049257 z" />
    <path
       inkscape:connector-curvature="0"
       id="path4593"
       style="font-style:normal;font-variant:normal;font-weight:normal;font-stretch:normal;font-size:medium;line-height:125%;font-family:'Ubuntu Condensed';-inkscape-font-specification:'Ubuntu Condensed, ';letter-spacing:0px;word-spacing:0px;fill:#a5b7f3;fill-opacity:1;stroke:none;stroke-width:2.53010893px;stroke-linecap:butt;stroke-linejoin:miter;stroke-opacity:1"
       d="m -6.932206,9.6019492 q 0.011021,0.6239188 0.077623,1.1493248 0.06654,0.508985 0.2107095,0.903038 0.1552671,0.377636 0.3992404,0.591081 0.2550709,0.213435 0.6432198,0.213435 0.321611,0 0.5877712,-0.131362 0.2772496,-0.14777 0.3992404,-0.246283 l 0.1774332,1.132904 q -0.1441632,0.14777 -0.4879591,0.311958 -0.3327002,0.180618 -0.7984806,0.180618 -0.6099519,0 -1.0313709,-0.328376 -0.4103172,-0.328379 -0.6764774,-0.919459 -0.2550688,-0.59108 -0.3659703,-1.412023 Q -7.90812,10.225859 -7.90812,9.2407253 q 0,-2.380739 0.5323205,-3.4808071 0.5323204,-1.100065 1.4084305,-1.100065 0.9870115,0 1.3973412,1.100065 0.4103317,1.1000681 0.4103317,3.0867535 0,0.1806182 0,0.3776357 0,0.1806181 -0.011021,0.3776326 z m 0.9648308,-3.7435084 q -0.4768697,0 -0.6986706,0.7060146 -0.2107095,0.7060115 -0.2550688,1.8881721 h 1.7633115 q 0,-1.1985784 -0.1663501,-1.8881721 -0.1663502,-0.7060146 -0.643222,-0.7060146 z" />
    <path
       inkscape:connector-curvature="0"
       id="path4595"
       style="font-style:normal;font-variant:normal;font-weight:normal;font-stretch:normal;font-size:medium;line-height:125%;font-family:'Ubuntu Condensed';-inkscape-font-specification:'Ubuntu Condensed, ';letter-spacing:0px;word-spacing:0px;fill:#a5b7f3;fill-opacity:1;stroke:none;stroke-width:2.53010893px;stroke-linecap:butt;stroke-linejoin:miter;stroke-opacity:1"
       d="m -2.7562955,5.1195905 q 0.4103296,-0.1806181 0.8871994,-0.2955401 0.4768717,-0.1313615 0.87611209,-0.1313615 0.43251037,0 0.78738928,0.1806182 0.354881,0.1641787 0.59886051,0.5746624 Q 0.6483367,5.8584408 0.78141681,6.5644554 0.92558,7.2540491 0.92558,8.2884395 V 13.493228 H -0.02815943 V 8.4033708 q 0,-1.2806739 -0.22180088,-1.8717542 -0.22180088,-0.5910803 -0.83175069,-0.5910803 -0.321611,0 -0.7208513,0.1641787 v 7.388503 h -0.9537395 z" />
  </g>
</svg>
