<?xml version="1.0" encoding="UTF-8" standalone="no"?>
<svg
   xmlns:dc="http://purl.org/dc/elements/1.1/"
   xmlns:cc="http://creativecommons.org/ns#"
   xmlns:rdf="http://www.w3.org/1999/02/22-rdf-syntax-ns#"
   xmlns:svg="http://www.w3.org/2000/svg"
   xmlns="http://www.w3.org/2000/svg"
   xmlns:sodipodi="http://sodipodi.sourceforge.net/DTD/sodipodi-0.dtd"
   xmlns:inkscape="http://www.inkscape.org/namespaces/inkscape"
   width="16"
   height="16"
   version="1"
   id="svg16"
   sodipodi:docname="ren_menu.svg"
   inkscape:version="0.92.3 (2405546, 2018-03-11)">
  <metadata
     id="metadata22">
    <rdf:RDF>
      <cc:Work
         rdf:about="">
        <dc:format>image/svg+xml</dc:format>
        <dc:type
           rdf:resource="http://purl.org/dc/dcmitype/StillImage" />
        <dc:title></dc:title>
      </cc:Work>
    </rdf:RDF>
  </metadata>
  <defs
     id="defs20" />
  <sodipodi:namedview
     pagecolor="#ffffff"
     bordercolor="#666666"
     borderopacity="1"
     objecttolerance="10"
     gridtolerance="10"
     guidetolerance="10"
     inkscape:pageopacity="0"
     inkscape:pageshadow="2"
     inkscape:window-width="705"
     inkscape:window-height="517"
     id="namedview18"
     showgrid="false"
     inkscape:zoom="14.75"
     inkscape:cx="8"
     inkscape:cy="8"
     inkscape:window-x="0"
     inkscape:window-y="28"
     inkscape:window-maximized="0"
     inkscape:current-layer="svg16" />
  <path
     fill="#4789d2"
     d="m16 14.222v-12.444c0-0.4311-0.357-0.778-0.8-0.778h-14.4c-0.4432 0-0.8 0.3469-0.8 0.7778v12.444c2e-8 0.431 0.3568 0.778 0.8 0.778h14.4c0.4432 0 0.8-0.34689 0.8-0.77779z"
     id="path2" />
  <path
     d="m4.6623 2.0004a0.35338 0.35324 0 0 0 -0.2977 0.1394c-0.4041 0.5176-0.8258 1.2166-1.2273 1.8412l-0.4783-0.8203a0.35359 0.35345 0 1 0 -0.6108 0.3562l0.7632 1.3079a0.35338 0.35324 0 0 0 0.5979 0.01992c0.4967-0.7368 1.059-1.6892 1.5123-2.27a0.35338 0.35324 0 0 0 -0.2593 -0.5747z"
     id="path4"
     fill-rule="evenodd"
     fill-opacity=".941"
     fill="#ffdd73" />
  <rect
     fill="#ffdd73"
     fill-opacity=".941"
     width="7"
     height="1"
     x="6"
     y="8"
     rx=".538"
     ry=".5"
     id="rect6" />
  <circle
     fill="#ffdd73"
     fill-opacity=".941"
     cx="3.5"
     cy="8.5"
     id="circle8" />
  <rect
     fill="#ffdd73"
     fill-opacity=".941"
     width="7"
     height="1"
     x="6"
     y="11"
     rx=".538"
     ry=".5"
     id="rect10" />
  <circle
     fill="#ffdd73"
     fill-opacity=".941"
     cx="3.5"
     cy="11.5"
     id="circle12" />
  <rect
     fill="#ffdd73"
     fill-opacity=".941"
     width="7"
     height="1"
     x="6"
     y="4"
     rx=".538"
     ry=".5"
     id="rect14" />
</svg>
