<?xml version="1.0" encoding="UTF-8" standalone="no"?>
<!-- Created with Inkscape (http://www.inkscape.org/) -->

<svg
   xmlns:dc="http://purl.org/dc/elements/1.1/"
   xmlns:cc="http://creativecommons.org/ns#"
   xmlns:rdf="http://www.w3.org/1999/02/22-rdf-syntax-ns#"
   xmlns:svg="http://www.w3.org/2000/svg"
   xmlns="http://www.w3.org/2000/svg"
   xmlns:sodipodi="http://sodipodi.sourceforge.net/DTD/sodipodi-0.dtd"
   xmlns:inkscape="http://www.inkscape.org/namespaces/inkscape"
   width="16"
   height="16"
   viewBox="0 0 16 16"
   id="svg2"
   version="1.1"
   inkscape:version="0.92.3 (2405546, 2018-03-11)"
   inkscape:export-filename="/home/djrm/Projects/godot/tools/editor/icons/icon_animation_player.png"
   inkscape:export-xdpi="90"
   inkscape:export-ydpi="90"
   sodipodi:docname="ren_anim_player.svg">
  <defs
     id="defs4" />
  <sodipodi:namedview
     id="base"
     pagecolor="#ffffff"
     bordercolor="#666666"
     borderopacity="1.0"
     inkscape:pageopacity="0.0"
     inkscape:pageshadow="2"
     inkscape:zoom="31.999998"
     inkscape:cx="13.320107"
     inkscape:cy="8.5271822"
     inkscape:document-units="px"
     inkscape:current-layer="layer1"
     showgrid="true"
     units="px"
     inkscape:snap-bbox="true"
     inkscape:bbox-paths="true"
     inkscape:bbox-nodes="true"
     inkscape:snap-bbox-edge-midpoints="true"
     inkscape:snap-bbox-midpoints="false"
     inkscape:snap-object-midpoints="true"
     inkscape:snap-center="true"
     inkscape:window-width="1366"
     inkscape:window-height="716"
     inkscape:window-x="0"
     inkscape:window-y="27"
     inkscape:window-maximized="1"
     inkscape:document-rotation="0"
     inkscape:pagecheckerboard="true"
     inkscape:snap-global="false">
    <inkscape:grid
       type="xygrid"
       id="grid3336" />
  </sodipodi:namedview>
  <metadata
     id="metadata7">
    <rdf:RDF>
      <cc:Work
         rdf:about="">
        <dc:format>image/svg+xml</dc:format>
        <dc:type
           rdf:resource="http://purl.org/dc/dcmitype/StillImage" />
        <dc:title></dc:title>
      </cc:Work>
    </rdf:RDF>
  </metadata>
  <g
     inkscape:label="Layer 1"
     inkscape:groupmode="layer"
     id="layer1"
     transform="translate(0,-1036.3622)">
    <path
       style="opacity:1;fill:#cea4f1;fill-opacity:1;stroke:none;stroke-width:2;stroke-linecap:round;stroke-linejoin:miter;stroke-miterlimit:4;stroke-dasharray:none;stroke-dashoffset:0;stroke-opacity:1"
       d="M 1 1 L 1 15 L 2.1660156 15 L 2.1660156 13 L 4 13 L 4 15 L 4.40625 15 L 4.40625 12.142578 C 4.4576953 12.114578 4.5149147 12.089693 4.5800781 12.068359 C 4.6486715 12.047026 4.718516 12.032057 4.7871094 12.025391 C 4.8591324 12.011391 4.9294535 12.001474 4.9980469 11.994141 C 5.0666403 11.987474 5.1287189 11.984375 5.1835938 11.984375 C 5.5677168 11.984375 5.8548135 12.15702 6.046875 12.501953 C 6.2423662 12.84682 6.3398437 13.360169 6.3398438 14.042969 C 6.3398438 14.400206 6.2924868 14.715311 6.2109375 15 L 7 15 C 7.0650511 14.678233 7.1500357 14.411321 7.2558594 14.201172 C 7.3621792 13.989972 7.4834304 13.832097 7.6171875 13.726562 C 7.7509446 13.620966 7.8867271 13.568359 8.0273438 13.568359 C 8.3497324 13.568359 8.5985243 13.776073 8.7734375 14.191406 C 8.8636996 14.402088 8.928973 14.674988 8.9726562 15 L 9.6328125 15 L 9.6328125 13.822266 C 9.7871476 13.744866 9.9389367 13.684845 10.089844 13.642578 C 10.244179 13.600578 10.389674 13.578125 10.523438 13.578125 C 10.842396 13.578125 11.080993 13.748066 11.242188 14.085938 C 11.346156 14.299359 11.405052 14.623764 11.443359 15 L 12 15 L 12 13 L 14 13 L 14 15 L 15 15 L 15 1 L 14 1 L 14 3 L 12 3 L 12 1 L 11.388672 1 C 11.405509 1.1968628 11.427734 1.3785685 11.427734 1.6171875 L 11.427734 4.4902344 L 11.005859 4.4902344 L 11.005859 1.7773438 C 11.005859 1.4606104 10.992277 1.2029927 10.964844 1.0058594 C 10.964484 1.0032776 10.963254 1.0025661 10.962891 1 L 9.9980469 1 L 9.9980469 4.4902344 L 9.5703125 4.4902344 L 9.5703125 1 L 8.9160156 1 C 8.9500592 1.285979 8.9726562 1.5972432 8.9726562 1.9667969 L 8.9726562 2.2714844 L 7.265625 2.2714844 C 7.2827737 2.7782844 7.3637667 3.1661271 7.5078125 3.4335938 C 7.6552884 3.6940603 7.8609154 3.8242188 8.125 3.8242188 C 8.2759055 3.8242188 8.4034458 3.7993333 8.5097656 3.75 C 8.6160854 3.7006667 8.6970784 3.6480635 8.7519531 3.5917969 L 8.8085938 4.3320312 C 8.7571483 4.3880313 8.6650069 4.446099 8.53125 4.5097656 C 8.3974929 4.573099 8.2461788 4.6054688 8.078125 4.6054688 C 7.8723447 4.6054688 7.6909679 4.542749 7.5332031 4.4160156 C 7.3788679 4.2822823 7.2493744 4.1021531 7.1464844 3.8769531 C 7.0435942 3.6516865 6.9674607 3.383952 6.9160156 3.0742188 C 6.864571 2.7574854 6.8378906 2.4168479 6.8378906 2.0507812 C 6.8378906 1.6515232 6.8692843 1.3050092 6.9238281 1 L 6.1269531 1 C 6.1253594 1.0048971 6.1246661 1.0107505 6.1230469 1.015625 C 6.0201567 1.3182917 5.8819444 1.5537229 5.7070312 1.7226562 C 5.7584759 1.8915896 5.8152187 2.0864208 5.8769531 2.3046875 C 5.9421171 2.5158208 6.0071022 2.7438344 6.0722656 2.9902344 C 6.1374296 3.2295677 6.199985 3.4798344 6.2617188 3.7402344 C 6.3268827 3.9936344 6.3884849 4.2438344 6.4433594 4.4902344 L 5.9902344 4.4902344 C 5.8873442 3.9834344 5.7738587 3.4978031 5.6503906 3.0332031 C 5.5303522 2.5686031 5.4139604 2.1909438 5.3007812 1.9023438 C 5.2802033 1.9090104 5.2481872 1.9121094 5.2070312 1.9121094 L 5.1308594 1.9121094 L 4.7714844 1.9121094 L 4.7714844 4.4882812 L 4.34375 4.4882812 L 4.34375 1 L 4 1 L 4 3 L 2.1660156 3 L 2.1660156 1 L 1 1 z M 4.7714844 1 L 4.7714844 1.1953125 L 5.0429688 1.1953125 C 5.166437 1.1953125 5.2770161 1.1779115 5.3730469 1.1425781 C 5.4470898 1.1162743 5.5036104 1.057376 5.5605469 1 L 4.7714844 1 z M 7.3652344 1 C 7.3592411 1.0246081 7.3491484 1.0428808 7.34375 1.0683594 C 7.3094533 1.2302927 7.28568 1.3955198 7.2753906 1.5644531 L 8.5410156 1.5644531 C 8.5410156 1.3530055 8.5275566 1.1658308 8.5 1 L 7.3652344 1 z M 5.1835938 4.984375 C 5.5677168 4.984375 5.8548135 5.1570198 6.046875 5.5019531 C 6.2423662 5.8468198 6.3398437 6.3601686 6.3398438 7.0429688 C 6.3398438 7.4442354 6.2884369 7.7996417 6.1855469 8.109375 C 6.0826567 8.4120417 5.9444444 8.647473 5.7695312 8.8164062 C 5.8209759 8.9853399 5.8777187 9.1802375 5.9394531 9.3984375 C 6.0046171 9.6096375 6.0696022 9.8376522 6.1347656 10.083984 C 6.1999296 10.323318 6.262485 10.573518 6.3242188 10.833984 C 6.3893826 11.087384 6.4509849 11.337651 6.5058594 11.583984 L 6.0527344 11.583984 C 5.9498442 11.077184 5.8363587 10.591486 5.7128906 10.126953 C 5.5928522 9.6623534 5.4764604 9.2846936 5.3632812 8.9960938 C 5.3427033 9.0027602 5.3106873 9.0058594 5.2695312 9.0058594 L 5.1933594 9.0058594 L 4.8339844 9.0058594 L 4.8339844 11.582031 L 4.40625 11.582031 L 4.40625 5.1425781 C 4.4576953 5.1145781 4.5149147 5.0896927 4.5800781 5.0683594 C 4.6486715 5.047026 4.718516 5.0320573 4.7871094 5.0253906 C 4.8591324 5.0113906 4.9294535 5.001474 4.9980469 4.9941406 C 5.0666403 4.987474 5.1287189 4.984375 5.1835938 4.984375 z M 2.1660156 5 L 4 5 L 4 7 L 2.1660156 7 L 2.1660156 5 z M 12 5 L 14 5 L 14 7 L 12 7 L 12 5 z M 5.21875 5.734375 C 5.1398675 5.734375 5.0637341 5.737474 4.9882812 5.7441406 C 4.9162582 5.7441406 4.8648514 5.751625 4.8339844 5.765625 L 4.8339844 8.2890625 L 5.1054688 8.2890625 C 5.228937 8.2890625 5.3395161 8.2716615 5.4355469 8.2363281 C 5.5350073 8.2009948 5.6189066 8.1362552 5.6875 8.0449219 C 5.7595231 7.9463885 5.8138361 7.8162302 5.8515625 7.6542969 C 5.8892892 7.4853635 5.9082031 7.2674667 5.9082031 7 C 5.9082031 6.7466 5.8892892 6.5388865 5.8515625 6.3769531 C 5.8138365 6.2150865 5.7648594 6.0895802 5.703125 5.9980469 C 5.641391 5.8995135 5.5662106 5.832075 5.4804688 5.796875 C 5.3981567 5.754875 5.3113511 5.734375 5.21875 5.734375 z M 8.0273438 6.5683594 C 8.3497324 6.5683594 8.5985243 6.7760731 8.7734375 7.1914062 C 8.9483506 7.5996729 9.0351562 8.2229469 9.0351562 9.0605469 L 9.0351562 9.3652344 L 7.328125 9.3652344 C 7.3452737 9.872101 7.4262667 10.259877 7.5703125 10.527344 C 7.7177884 10.787744 7.9234154 10.917969 8.1875 10.917969 C 8.3384055 10.917969 8.4659458 10.893083 8.5722656 10.84375 C 8.6785854 10.794417 8.7595784 10.741814 8.8144531 10.685547 L 8.8710938 11.425781 C 8.8196483 11.481781 8.7275069 11.539849 8.59375 11.603516 C 8.4599929 11.666849 8.3086788 11.699219 8.140625 11.699219 C 7.9348447 11.699219 7.7534679 11.636432 7.5957031 11.509766 C 7.4413679 11.376032 7.3118744 11.19597 7.2089844 10.970703 C 7.1060942 10.745436 7.0299607 10.477635 6.9785156 10.167969 C 6.927071 9.8511679 6.9003906 9.5105314 6.9003906 9.1445312 C 6.9003906 8.708065 6.9328829 8.3277063 6.9980469 8.0039062 C 7.0632109 7.6801067 7.1495399 7.4123052 7.2558594 7.2011719 C 7.3621792 6.9899719 7.4834304 6.8320958 7.6171875 6.7265625 C 7.7509446 6.6209625 7.8867271 6.5683594 8.0273438 6.5683594 z M 10.523438 6.578125 C 10.842396 6.578125 11.080993 6.7480708 11.242188 7.0859375 C 11.406809 7.4238708 11.490234 7.9648042 11.490234 8.7109375 L 11.490234 11.583984 L 11.068359 11.583984 L 11.068359 8.8710938 C 11.068359 8.5543603 11.054777 8.296676 11.027344 8.0996094 C 10.99991 7.902476 10.959652 7.7501314 10.908203 7.6445312 C 10.86019 7.5319313 10.800541 7.4562625 10.728516 7.4140625 C 10.659922 7.3720625 10.584265 7.3496094 10.501953 7.3496094 C 10.433359 7.3496094 10.360132 7.3614792 10.28125 7.3828125 C 10.205797 7.3968125 10.13257 7.4173125 10.060547 7.4453125 L 10.060547 11.583984 L 9.6328125 11.583984 L 9.6328125 6.8222656 C 9.7871476 6.7448656 9.9389375 6.6848448 10.089844 6.6425781 C 10.244179 6.6005781 10.389675 6.578125 10.523438 6.578125 z M 8.0234375 7.3066406 C 7.923977 7.3066406 7.8323121 7.3464281 7.75 7.4238281 C 7.6711175 7.5012281 7.6032262 7.6037354 7.5449219 7.7304688 C 7.4866172 7.8572021 7.4405465 8.0002427 7.40625 8.1621094 C 7.3719533 8.323976 7.34818 8.4892031 7.3378906 8.6582031 L 8.6035156 8.6582031 C 8.6035156 8.2429365 8.5516323 7.9170677 8.4453125 7.6777344 C 8.3389927 7.4313344 8.1983506 7.3066406 8.0234375 7.3066406 z M 2.1660156 9 L 4 9 L 4 11 L 2.1660156 11 L 2.1660156 9 z M 12 9 L 14 9 L 14 11 L 12 11 L 12 9 z M 5.21875 12.734375 C 5.1398675 12.734375 5.0637341 12.737474 4.9882812 12.744141 C 4.9162582 12.744141 4.8648514 12.751625 4.8339844 12.765625 L 4.8339844 15 L 5.7070312 15 C 5.7672215 14.906376 5.8181975 14.79751 5.8515625 14.654297 C 5.8892892 14.485364 5.9082031 14.267467 5.9082031 14 C 5.9082031 13.7466 5.8892892 13.538886 5.8515625 13.376953 C 5.8138365 13.215086 5.7648594 13.08958 5.703125 12.998047 C 5.641391 12.899514 5.5662106 12.832075 5.4804688 12.796875 C 5.3981567 12.754875 5.3113511 12.734375 5.21875 12.734375 z M 8.0234375 14.306641 C 7.923977 14.306641 7.8323121 14.346428 7.75 14.423828 C 7.6711175 14.501228 7.6032262 14.603735 7.5449219 14.730469 C 7.5085402 14.809549 7.4860181 14.907239 7.4589844 15 L 8.5351562 15 C 8.5101085 14.883665 8.4857092 14.76867 8.4453125 14.677734 C 8.3389927 14.431334 8.1983506 14.306641 8.0234375 14.306641 z M 10.501953 14.349609 C 10.433359 14.349609 10.360132 14.36148 10.28125 14.382812 C 10.205797 14.396814 10.13257 14.417313 10.060547 14.445312 L 10.060547 15 L 11.001953 15 C 10.976413 14.861574 10.94841 14.727056 10.908203 14.644531 C 10.86019 14.531931 10.800541 14.456263 10.728516 14.414062 C 10.659922 14.372065 10.584265 14.349609 10.501953 14.349609 z "
       transform="translate(0,1036.3622)"
       id="rect4136" />
  </g>
</svg>
