<?xml version="1.0" encoding="UTF-8" standalone="no"?>
<!-- Created with Inkscape (http://www.inkscape.org/) -->

<svg
   xmlns:dc="http://purl.org/dc/elements/1.1/"
   xmlns:cc="http://creativecommons.org/ns#"
   xmlns:rdf="http://www.w3.org/1999/02/22-rdf-syntax-ns#"
   xmlns:svg="http://www.w3.org/2000/svg"
   xmlns="http://www.w3.org/2000/svg"
   xmlns:sodipodi="http://sodipodi.sourceforge.net/DTD/sodipodi-0.dtd"
   xmlns:inkscape="http://www.inkscape.org/namespaces/inkscape"
   width="27.871122"
   height="14.008803"
   viewBox="0 0 27.871122 14.008803"
   id="svg2"
   version="1.1"
   inkscape:version="0.92.2 (unknown)"
   inkscape:export-filename="/home/djrm/Projects/godot/tools/editor/icons/icon_sprite_3d.png"
   inkscape:export-xdpi="90"
   inkscape:export-ydpi="90"
   sodipodi:docname="ren_character3d.svg">
  <defs
     id="defs4" />
  <sodipodi:namedview
     id="base"
     pagecolor="#ffffff"
     bordercolor="#666666"
     borderopacity="1.0"
     inkscape:pageopacity="0.0"
     inkscape:pageshadow="2"
     inkscape:zoom="22.627417"
     inkscape:cx="22.317797"
     inkscape:cy="4.4987172"
     inkscape:document-units="px"
     inkscape:current-layer="layer1"
     showgrid="true"
     units="px"
     inkscape:snap-bbox="true"
     inkscape:bbox-paths="true"
     inkscape:bbox-nodes="true"
     inkscape:snap-bbox-edge-midpoints="true"
     inkscape:snap-bbox-midpoints="true"
     inkscape:snap-object-midpoints="true"
     inkscape:snap-center="true"
     inkscape:window-width="1366"
     inkscape:window-height="717"
     inkscape:window-x="0"
     inkscape:window-y="32"
     inkscape:window-maximized="1"
     fit-margin-top="0"
     fit-margin-left="0"
     fit-margin-right="0"
     fit-margin-bottom="0">
    <inkscape:grid
       type="xygrid"
       id="grid3336"
       originx="13.842197"
       originy="-0.99119626" />
  </sodipodi:namedview>
  <metadata
     id="metadata7">
    <rdf:RDF>
      <cc:Work
         rdf:about="">
        <dc:format>image/svg+xml</dc:format>
        <dc:type
           rdf:resource="http://purl.org/dc/dcmitype/StillImage" />
        <dc:title></dc:title>
      </cc:Work>
    </rdf:RDF>
  </metadata>
  <g
     inkscape:label="Layer 1"
     inkscape:groupmode="layer"
     id="layer1"
     transform="translate(13.842197,-1)">
    <path
       style="fill:#fc9c9c;fill-opacity:0.99607843;stroke:none;stroke-width:2;stroke-linecap:round;stroke-linejoin:round;stroke-miterlimit:4;stroke-dasharray:none;stroke-opacity:0.99607843"
       d="M 6,1 C 5.4459904,1 5,1.4459904 5,2 v 3 c 0,0.5540096 0.4459904,1 1,1 h 1 v 0.9902344 a 1.0001,1.0001 0 0 0 -0.3164062,0.0625 L 4.6328125,7.7363281 3.9492188,5.6855469 A 1.0001,1.0001 0 0 0 2.9589844,4.9882812 1.0001,1.0001 0 0 0 2.0507812,6.3164062 l 1,3 a 1.0001,1.0001 0 0 0 1.265625,0.6328126 L 6,9.3886719 V 10 c 0,0.04088 0.018715,0.07566 0.023437,0.115234 l -4.578125,3.052735 a 1.0001,1.0001 0 1 0 1.109375,1.664062 l 5.0566406,-3.371093 1.4941407,2.986328 a 1.0001,1.0001 0 0 0 1.2109377,0.501953 l 3,-1 A 1.0001,1.0001 0 1 0 12.683594,12.052734 L 10.505859,12.777344 9.53125,10.826172 C 9.8071486,10.648527 10,10.3539 10,10 V 9 h 1.382812 l 0.722657,1.447266 a 1.0001162,1.0001162 0 1 0 1.789062,-0.8945316 l -1,-2 A 1.0001,1.0001 0 0 0 12,7 H 9 V 6 h 1 c 0.55401,0 1,-0.4459904 1,-1 V 2 C 11,1.4459904 10.55401,1 10,1 Z M 6,3 H 7 V 5 H 6 Z"
       id="rect849"
       inkscape:connector-curvature="0" />
    <path
       inkscape:connector-curvature="0"
       id="path4591"
       style="font-style:normal;font-variant:normal;font-weight:normal;font-stretch:normal;font-size:medium;line-height:125%;font-family:'Ubuntu Condensed';-inkscape-font-specification:'Ubuntu Condensed, ';letter-spacing:0px;word-spacing:0px;fill:#fc9c9c;fill-opacity:0.99607843;stroke:none;stroke-width:2.53010893px;stroke-linecap:butt;stroke-linejoin:miter;stroke-opacity:1"
       d="m -13.842197,2.8264948 q 0.7763,-0.2791223 1.497151,-0.2791223 0.57668,0 1.04246,0.1970268 0.465781,0.1970267 0.798481,0.6239172 0.3327,0.4268923 0.5101421,1.1000681 0.1885371,0.6731727 0.1885371,1.6254707 0,1.1821606 -0.3105192,1.9210109 -0.299431,0.7224294 -0.820662,1.100065 0.13308,0.328379 0.332701,0.9030388 0.210711,0.558245 0.421421,1.247838 0.2217921,0.673176 0.4214123,1.395605 0.2107095,0.722433 0.3548789,1.379188 h -0.9981012 q -0.121997,-0.492567 -0.310519,-1.116484 -0.177434,-0.623919 -0.37706,-1.231417 -0.19962,-0.62392 -0.39924,-1.18216 -0.19962,-0.5746629 -0.354881,-0.9687164 -0.177434,0.032848 -0.365971,0.049257 -0.18853,0.016316 -0.377059,0.016316 h -0.277252 v 4.4331024 h -0.97592 z m 0.97592,5.566007 h 0.421421 q 0.765211,0 1.17554,-0.5089878 0.410332,-0.5254026 0.410332,-1.7896587 0,-0.6403369 -0.110893,-1.0672293 -0.09981,-0.4433102 -0.29943,-0.6895936 -0.188537,-0.2626921 -0.465781,-0.3776326 -0.26616,-0.114922 -0.59886,-0.114922 -0.288339,0 -0.532321,0.049257 z" />
    <path
       inkscape:connector-curvature="0"
       id="path4593"
       style="font-style:normal;font-variant:normal;font-weight:normal;font-stretch:normal;font-size:medium;line-height:125%;font-family:'Ubuntu Condensed';-inkscape-font-specification:'Ubuntu Condensed, ';letter-spacing:0px;word-spacing:0px;fill:#fc9c9c;fill-opacity:0.99607843;stroke:none;stroke-width:2.53010893px;stroke-linecap:butt;stroke-linejoin:miter;stroke-opacity:1"
       d="m -7.7744029,10.149322 q 0.011021,0.623919 0.077623,1.149325 0.06654,0.508984 0.2107095,0.903038 0.1552671,0.377636 0.3992404,0.591081 0.2550709,0.213435 0.6432198,0.213435 0.321611,0 0.5877712,-0.131362 0.2772496,-0.14777 0.3992404,-0.246283 l 0.1774332,1.132904 q -0.1441632,0.14777 -0.4879591,0.311958 -0.3327002,0.180618 -0.7984806,0.180618 -0.6099519,0 -1.0313709,-0.328376 -0.4103172,-0.328379 -0.6764774,-0.919459 -0.2550688,-0.59108 -0.3659703,-1.412023 -0.1108932,-0.820946 -0.1108932,-1.8060802 0,-2.380739 0.5323205,-3.4808071 0.5323204,-1.100065 1.4084305,-1.100065 0.9870115,0 1.3973412,1.100065 0.4103317,1.1000681 0.4103317,3.0867535 0,0.1806182 0,0.3776357 0,0.1806181 -0.011021,0.3776331 z m 0.9648308,-3.7435087 q -0.4768697,0 -0.6986706,0.7060146 Q -7.7189522,7.8178394 -7.7633115,9 H -6 Q -6,7.8014216 -6.1663501,7.1118279 -6.3327003,6.4058133 -6.8095721,6.4058133 Z" />
    <path
       inkscape:connector-curvature="0"
       id="path4595"
       style="font-style:normal;font-variant:normal;font-weight:normal;font-stretch:normal;font-size:medium;line-height:125%;font-family:'Ubuntu Condensed';-inkscape-font-specification:'Ubuntu Condensed, ';letter-spacing:0px;word-spacing:0px;fill:#fc9c9c;fill-opacity:0.99607843;stroke:none;stroke-width:2.53010893px;stroke-linecap:butt;stroke-linejoin:miter;stroke-opacity:1"
       d="m -3.5984919,5.666963 q 0.410329,-0.1806181 0.887199,-0.2955401 0.476872,-0.1313615 0.876112,-0.1313615 0.43251,0 0.787389,0.1806182 0.354881,0.1641787 0.598861,0.5746624 0.255071,0.4104713 0.388151,1.1164859 0.144163,0.6895937 0.144163,1.7239841 v 5.204789 h -0.953739 V 8.9507433 q 0,-1.2806739 -0.221801,-1.8717542 -0.221801,-0.5910803 -0.831751,-0.5910803 -0.321611,0 -0.720851,0.1641787 v 7.3885035 h -0.95374 z" />
  </g>
</svg>
