<?xml version="1.0" encoding="UTF-8" standalone="no"?>
<!-- Created with Inkscape (http://www.inkscape.org/) -->

<svg
   xmlns:dc="http://purl.org/dc/elements/1.1/"
   xmlns:cc="http://creativecommons.org/ns#"
   xmlns:rdf="http://www.w3.org/1999/02/22-rdf-syntax-ns#"
   xmlns:svg="http://www.w3.org/2000/svg"
   xmlns="http://www.w3.org/2000/svg"
   xmlns:sodipodi="http://sodipodi.sourceforge.net/DTD/sodipodi-0.dtd"
   xmlns:inkscape="http://www.inkscape.org/namespaces/inkscape"
   width="16"
   height="16"
   viewBox="0 0 16 16"
   id="svg2"
   version="1.1"
   inkscape:version="0.92.2 (unknown)"
   inkscape:export-filename="/home/djrm/Projects/godot/tools/editor/icons/icon_center_container.png"
   inkscape:export-xdpi="90"
   inkscape:export-ydpi="90"
   sodipodi:docname="ren_var_edit.svg">
  <defs
     id="defs4" />
  <sodipodi:namedview
     id="base"
     pagecolor="#ffffff"
     bordercolor="#666666"
     borderopacity="1.0"
     inkscape:pageopacity="0.0"
     inkscape:pageshadow="2"
     inkscape:zoom="32"
     inkscape:cx="9.768541"
     inkscape:cy="7.7247828"
     inkscape:document-units="px"
     inkscape:current-layer="layer1"
     showgrid="true"
     units="px"
     inkscape:snap-bbox="true"
     inkscape:bbox-paths="true"
     inkscape:bbox-nodes="true"
     inkscape:snap-bbox-edge-midpoints="true"
     inkscape:snap-bbox-midpoints="true"
     inkscape:snap-object-midpoints="true"
     inkscape:snap-center="true"
     inkscape:window-width="1366"
     inkscape:window-height="711"
     inkscape:window-x="0"
     inkscape:window-y="32"
     inkscape:window-maximized="1"
     inkscape:object-paths="false"
     inkscape:snap-intersection-paths="false"
     inkscape:object-nodes="false"
     inkscape:snap-smooth-nodes="true"
     inkscape:document-rotation="0">
    <inkscape:grid
       type="xygrid"
       id="grid3336" />
  </sodipodi:namedview>
  <metadata
     id="metadata7">
    <rdf:RDF>
      <cc:Work
         rdf:about="">
        <dc:format>image/svg+xml</dc:format>
        <dc:type
           rdf:resource="http://purl.org/dc/dcmitype/StillImage" />
        <dc:title></dc:title>
      </cc:Work>
    </rdf:RDF>
  </metadata>
  <g
     inkscape:label="Layer 1"
     inkscape:groupmode="layer"
     id="layer1"
     transform="translate(0,-1036.3622)">
    <path
       style="opacity:1;fill:#a5efac;fill-opacity:1;stroke:none;stroke-width:2.17732406;stroke-linecap:round;stroke-linejoin:miter;stroke-miterlimit:4;stroke-dasharray:none;stroke-dashoffset:0;stroke-opacity:1"
       d="m 14,1036.8488 0.01562,11.0268 h 1.142856 l -0.01562,-11.0268 z"
       id="path856"
       inkscape:connector-curvature="0" />
    <path
       style="opacity:1;fill:#a5efac;fill-opacity:1;stroke:none;stroke-width:2.68250895;stroke-linecap:round;stroke-linejoin:miter;stroke-miterlimit:4;stroke-dasharray:none;stroke-dashoffset:0;stroke-opacity:1"
       d="m 0,1048.2139 c 0,1.7388 1.0233492,3.1483 2.2857142,3.1483 H 13.714286 c 1.262365,0 2.285714,-1.4095 2.285714,-3.1483 H 13.714286 2.2857142 Z"
       id="rect4140"
       inkscape:connector-curvature="0" />
    <path
       inkscape:connector-curvature="0"
       id="path4129"
       style="font-style:normal;font-variant:normal;font-weight:normal;font-stretch:normal;font-size:medium;line-height:125%;font-family:'Ubuntu Condensed';-inkscape-font-specification:'Ubuntu Condensed, ';letter-spacing:0px;word-spacing:0px;fill:#a5efac;fill-opacity:1;stroke:none;stroke-width:2.3997035px;stroke-linecap:butt;stroke-linejoin:miter;stroke-opacity:1"
       d="m 2.1094443,1047.2085 q -0.2695401,-1.0483 -0.5390802,-2.1106 -0.2695401,-1.0762 -0.5390802,-2.2503 -0.25782099,-1.1741 -0.51564195,-2.474 Q 0.25782099,1039.0598 1.6373464e-8,1037.5223 H 1.1015987 q 0.1523488,1.0763 0.3398549,2.1665 0.1875062,1.0762 0.3984506,2.1245 0.2109444,1.0483 0.4218889,2.0407 0.2226635,0.9783 0.4336079,1.8589 0.2109444,-0.8806 0.4218889,-1.8589 0.2226635,-0.9924 0.433608,-2.0407 0.2109444,-1.0483 0.3984505,-2.1245 0.1875062,-1.0902 0.339855,-2.1665 h 1.0664412 q -0.2578209,1.5375 -0.5156419,2.8513 -0.257821,1.2999 -0.5273611,2.474 -0.2578209,1.1741 -0.527361,2.2503 -0.2695401,1.0623 -0.5390802,2.1106 z" />
    <path
       inkscape:connector-curvature="0"
       id="path4131"
       style="font-style:normal;font-variant:normal;font-weight:normal;font-stretch:normal;font-size:medium;line-height:125%;font-family:'Ubuntu Condensed';-inkscape-font-specification:'Ubuntu Condensed, ';letter-spacing:0px;word-spacing:0px;fill:#a5efac;fill-opacity:1;stroke:none;stroke-width:2.3997035px;stroke-linecap:butt;stroke-linejoin:miter;stroke-opacity:1"
       d="m 6.2896962,1040.0242 q 0.3046975,-0.1537 0.6445525,-0.2376 0.3398549,-0.098 0.7383055,-0.098 0.8203394,0 1.3359813,0.615 0.5156419,0.601 0.5156419,1.8869 v 4.864 q -0.4218888,0.1398 -0.8672159,0.2236 -0.433608,0.084 -0.8554968,0.084 -0.4218889,0 -0.7969012,-0.1258 -0.3632932,-0.1258 -0.6445525,-0.4053 -0.26954,-0.2796 -0.433608,-0.6989 -0.1640678,-0.4333 -0.1640678,-1.0483 0,-0.573 0.1406296,-0.9923 0.1523487,-0.4333 0.4101698,-0.7129 0.2578209,-0.2935 0.609395,-0.4333 0.351574,-0.1537 0.7617437,-0.1537 0.3867314,0 0.8554969,0.1118 v -0.6709 q 0,-0.8107 -0.2695402,-1.1321 -0.2578209,-0.3215 -0.7500246,-0.3215 -0.2695401,0 -0.5156419,0.07 -0.2343827,0.056 -0.5039228,0.1957 z m 0.4804846,5.0458 q 0,0.6429 0.2812593,0.9504 0.2812591,0.3075 0.7969011,0.3075 0.3164167,0 0.691429,-0.098 v -2.3341 q -0.3515741,-0.1118 -0.691429,-0.1118 -0.2226636,0 -0.4218888,0.07 -0.1992254,0.056 -0.3515741,0.2096 -0.1406296,0.1398 -0.2226636,0.3914 -0.082034,0.2376 -0.082034,0.615 z" />
    <path
       inkscape:connector-curvature="0"
       id="path4133"
       style="font-style:normal;font-variant:normal;font-weight:normal;font-stretch:normal;font-size:medium;line-height:125%;font-family:'Ubuntu Condensed';-inkscape-font-specification:'Ubuntu Condensed, ';letter-spacing:0px;word-spacing:0px;fill:#a5efac;fill-opacity:1;stroke:none;stroke-width:2.3997035px;stroke-linecap:butt;stroke-linejoin:miter;stroke-opacity:1"
       d="m 12.87109,1047.3482 q -0.867216,-0.028 -1.242229,-0.5032 -0.375012,-0.4892 -0.375012,-1.5374 v -8.7357 l 1.007845,-0.2097 v 8.9733 q 0,0.4892 0.164068,0.7129 0.164067,0.2096 0.574237,0.2935 z" />
  </g>
</svg>
