<?xml version="1.0" encoding="UTF-8" standalone="no"?>
<!-- Created with Inkscape (http://www.inkscape.org/) -->

<svg
   xmlns:dc="http://purl.org/dc/elements/1.1/"
   xmlns:cc="http://creativecommons.org/ns#"
   xmlns:rdf="http://www.w3.org/1999/02/22-rdf-syntax-ns#"
   xmlns:svg="http://www.w3.org/2000/svg"
   xmlns="http://www.w3.org/2000/svg"
   xmlns:sodipodi="http://sodipodi.sourceforge.net/DTD/sodipodi-0.dtd"
   xmlns:inkscape="http://www.inkscape.org/namespaces/inkscape"
   width="16"
   height="16"
   viewBox="0 0 16 16"
   id="svg2"
   version="1.1"
   inkscape:version="0.92.2 (unknown)"
   inkscape:export-filename="/home/djrm/Projects/godot/tools/editor/icons/icon_button.png"
   inkscape:export-xdpi="90"
   inkscape:export-ydpi="90"
   sodipodi:docname="ren_button.svg">
  <defs
     id="defs4" />
  <sodipodi:namedview
     id="base"
     pagecolor="#ffffff"
     bordercolor="#666666"
     borderopacity="1.0"
     inkscape:pageopacity="0.0"
     inkscape:pageshadow="2"
     inkscape:zoom="22.627417"
     inkscape:cx="16.353373"
     inkscape:cy="7.5936326"
     inkscape:document-units="px"
     inkscape:current-layer="layer1"
     showgrid="true"
     units="px"
     inkscape:snap-bbox="true"
     inkscape:bbox-paths="true"
     inkscape:bbox-nodes="true"
     inkscape:snap-bbox-edge-midpoints="true"
     inkscape:snap-bbox-midpoints="true"
     inkscape:snap-object-midpoints="true"
     inkscape:snap-center="true"
     inkscape:window-width="1366"
     inkscape:window-height="711"
     inkscape:window-x="0"
     inkscape:window-y="32"
     inkscape:window-maximized="1"
     inkscape:document-rotation="0"
     inkscape:snap-global="false">
    <inkscape:grid
       type="xygrid"
       id="grid3336"
       empspacing="4" />
  </sodipodi:namedview>
  <metadata
     id="metadata7">
    <rdf:RDF>
      <cc:Work
         rdf:about="">
        <dc:format>image/svg+xml</dc:format>
        <dc:type
           rdf:resource="http://purl.org/dc/dcmitype/StillImage" />
        <dc:title></dc:title>
      </cc:Work>
    </rdf:RDF>
  </metadata>
  <g
     inkscape:label="Layer 1"
     inkscape:groupmode="layer"
     id="layer1"
     transform="translate(0,-1036.3622)">
    <path
       style="fill:#a5efac;fill-opacity:1;stroke:none;stroke-width:2;stroke-linecap:round;stroke-linejoin:round;stroke-miterlimit:4;stroke-dasharray:none;stroke-opacity:1"
       d="M 5.5,9 C 4.669,9 4,9.669 4,10.5 V 12 H 2 v 2 H 14 V 12 H 12 V 10.5 C 12,9.669 11.331,9 10.5,9 Z"
       transform="translate(0,1036.3622)"
       id="rect829"
       inkscape:connector-curvature="0"
       sodipodi:nodetypes="ssccccccsss" />
    <g
       aria-label="Ch"
       transform="scale(0.99909433,1.0009065)"
       style="font-style:normal;font-weight:normal;font-size:10.16722107px;line-height:125%;font-family:sans-serif;letter-spacing:0px;word-spacing:0px;fill:#a5efac;fill-opacity:1;stroke:none;stroke-width:0.25418049px;stroke-linecap:butt;stroke-linejoin:miter;stroke-opacity:1"
       id="text1990" />
    <g
       aria-label="Ren"
       transform="matrix(0.89614437,0,0,1.5151772,1.1605916,-101.2724)"
       style="font-style:normal;font-weight:normal;font-size:8.11291504px;line-height:125%;font-family:sans-serif;letter-spacing:0px;word-spacing:0px;fill:#a5efac;fill-opacity:1;stroke:none;stroke-width:0.20282289px;stroke-linecap:butt;stroke-linejoin:miter;stroke-opacity:1"
       id="text834">
      <path
         d="m 5.5567483,752.75662 q 0,0.46244 -0.2433874,0.81941 -0.2433875,0.34885 -0.6571461,0.54356 0.1216937,0.19471 0.2677262,0.44621 0.1541454,0.24339 0.3082907,0.52734 0.1541454,0.27584 0.3001779,0.57602 0.1541454,0.29207 0.283952,0.57602 H 5.1024251 q -0.2433875,-0.58413 -0.5354524,-1.11958 -0.283952,-0.53546 -0.5516782,-0.86809 -0.048678,0.008 -0.1460325,0.008 -0.089242,0 -0.1216937,0 H 3.1796642 v 1.97955 H 2.5062923 v -4.94888 q 0.1216937,-0.0324 0.2758391,-0.0568 0.1622583,-0.0243 0.3245166,-0.0325 0.1703712,-0.0162 0.3326295,-0.0243 0.1622583,-0.008 0.292065,-0.008 0.9086464,0 1.3629697,0.39753 0.4624361,0.39753 0.4624361,1.18448 z m -1.7686154,-1.006 q -0.1865971,0 -0.3650812,0.008 -0.1703712,0 -0.2433875,0.0162 v 1.93899 h 0.4299845 q 0.292065,0 0.5192266,-0.0406 0.2352745,-0.0406 0.3975328,-0.14603 0.1703712,-0.11358 0.2596133,-0.30018 0.089242,-0.19471 0.089242,-0.503 0,-0.29206 -0.089242,-0.47866 -0.089242,-0.1866 -0.2352745,-0.29206 -0.1460325,-0.11358 -0.3488554,-0.15415 -0.1947099,-0.0487 -0.4137586,-0.0487 z"
         style="font-style:normal;font-variant:normal;font-weight:normal;font-stretch:normal;font-family:'Ubuntu Mono';-inkscape-font-specification:'Ubuntu Mono';fill:#a5efac;fill-opacity:1;stroke-width:0.20282289px"
         id="path836"
         inkscape:connector-curvature="0" />
      <path
         d="m 8.2177845,752.39154 q 0.762614,0 1.1763727,0.47867 0.4137586,0.47054 0.4137586,1.43598 v 0.23528 H 7.114428 q 0.040565,0.58413 0.381307,0.89242 0.3488554,0.30017 0.9735498,0.30017 0.3569683,0 0.6084687,-0.0568 0.2515003,-0.0568 0.381307,-0.12169 l 0.089242,0.5679 q -0.1216937,0.0649 -0.4380974,0.13792 -0.3164037,0.073 -0.7139365,0.073 -0.4867749,0 -0.859969,-0.14603 -0.3650812,-0.15415 -0.6084686,-0.41376 -0.2433875,-0.25961 -0.3650812,-0.61658 -0.1216937,-0.36508 -0.1216937,-0.78696 0,-0.503 0.1541454,-0.87619 0.1541454,-0.37319 0.4056457,-0.61658 0.2515004,-0.24339 0.5679041,-0.36508 0.3164037,-0.1217 0.6490332,-0.1217 z m 0.9086465,1.60636 q 0,-0.47866 -0.2515004,-0.7545 -0.2515004,-0.28395 -0.665259,-0.28395 -0.2352746,0 -0.4299845,0.0892 -0.1865971,0.0892 -0.3245166,0.23527 -0.1379196,0.14604 -0.2190487,0.33263 -0.081129,0.1866 -0.1054679,0.38131 z"
         style="font-style:normal;font-variant:normal;font-weight:normal;font-stretch:normal;font-family:'Ubuntu Mono';-inkscape-font-specification:'Ubuntu Mono';fill:#a5efac;fill-opacity:1;stroke-width:0.20282289px"
         id="path838"
         inkscape:connector-curvature="0" />
      <path
         d="m 10.749014,752.58625 q 0.365081,-0.0892 0.722049,-0.13792 0.365082,-0.0487 0.681485,-0.0487 0.754501,0 1.135808,0.38942 0.38942,0.38942 0.38942,1.24939 v 2.20671 h -0.665259 v -2.08502 q 0,-0.36508 -0.0649,-0.59224 -0.0649,-0.22717 -0.186597,-0.34886 -0.113581,-0.12981 -0.283952,-0.17848 -0.162258,-0.0487 -0.356968,-0.0487 -0.162259,0 -0.348856,0.0243 -0.178484,0.0162 -0.348855,0.0487 v 3.18026 h -0.673372 z"
         style="font-style:normal;font-variant:normal;font-weight:normal;font-stretch:normal;font-family:'Ubuntu Mono';-inkscape-font-specification:'Ubuntu Mono';fill:#a5efac;fill-opacity:1;stroke-width:0.20282289px"
         id="path840"
         inkscape:connector-curvature="0" />
    </g>
  </g>
</svg>
