<?xml version="1.0" encoding="UTF-8" standalone="no"?>
<svg
   xmlns:dc="http://purl.org/dc/elements/1.1/"
   xmlns:cc="http://creativecommons.org/ns#"
   xmlns:rdf="http://www.w3.org/1999/02/22-rdf-syntax-ns#"
   xmlns:svg="http://www.w3.org/2000/svg"
   xmlns="http://www.w3.org/2000/svg"
   xmlns:sodipodi="http://sodipodi.sourceforge.net/DTD/sodipodi-0.dtd"
   xmlns:inkscape="http://www.inkscape.org/namespaces/inkscape"
   height="16"
   width="16"
   version="1"
   id="svg3967"
   sodipodi:docname="icon.svg"
   inkscape:version="0.92.2 (unknown)"
   inkscape:export-filename="/home/jeremi360/DevProjects/Godot/Ren-GD/window_icon.png"
   inkscape:export-xdpi="96"
   inkscape:export-ydpi="96">
  <metadata
     id="metadata3973">
    <rdf:RDF>
      <cc:Work
         rdf:about="">
        <dc:format>image/svg+xml</dc:format>
        <dc:type
           rdf:resource="http://purl.org/dc/dcmitype/StillImage" />
        <dc:title></dc:title>
      </cc:Work>
    </rdf:RDF>
  </metadata>
  <defs
     id="defs3971" />
  <sodipodi:namedview
     pagecolor="#ffffff"
     bordercolor="#666666"
     borderopacity="1"
     objecttolerance="10"
     gridtolerance="10"
     guidetolerance="10"
     inkscape:pageopacity="0"
     inkscape:pageshadow="2"
     inkscape:window-width="1366"
     inkscape:window-height="711"
     id="namedview3969"
     showgrid="false"
     inkscape:snap-global="true"
     inkscape:zoom="25.134718"
     inkscape:cx="13.472824"
     inkscape:cy="7.9094697"
     inkscape:window-x="0"
     inkscape:window-y="32"
     inkscape:window-maximized="1"
     inkscape:current-layer="svg3967"
     inkscape:pagecheckerboard="true" />
  <path
     style="opacity:0.2;stroke-width:0.25562623"
     d="m 2.1898415,11.247069 -0.9938,-0.29414 v 1.227619 c 1.4005956,2.265126 3.8261303,3.315361 6.9566001,3.315361 3.1304704,0 5.5560054,-1.050235 6.9566004,-3.315361 v -1.227619 l -0.9938,0.29414 c 0.295871,-5.8619486 -2.4768,-0.59039 -5.5533943,-0.572561 -3.0348454,0.01759 -6.3722062,-5.2987261 -6.3722062,0.572561 z"
     id="path3941"
     inkscape:connector-curvature="0"
     sodipodi:nodetypes="cccscccsc" />
  <path
     style="fill:#478cbf;stroke-width:0.25562623"
     d="m 6.7613219,1.5561331 -0.057066,0.03524 -0.8587218,0.3849509 -0.8233628,0.3691 0.34783,1.8410679 -1.601241,0.775262 L 2.9351911,4.1864915 1.196041,6.0275594 2.189841,7.1674393 V 10.98406 l -0.9938,-0.29414 v 1.227618 c 1.4005956,2.265127 3.8261303,3.315361 6.9566001,3.315361 3.1304709,0 5.5560059,-1.050234 6.9566009,-3.315361 v -1.227619 l -0.9938,0.29414 V 7.1674388 L 15.109242,6.0275589 13.370092,4.186491 12.536523,4.9617535 10.935282,4.186491 11.283112,2.3454231 9.5439616,1.5561331 8.9488458,2.6084328 H 7.3550785 Z"
     id="path3943"
     inkscape:connector-curvature="0"
     sodipodi:nodetypes="ccccccccccccsccccccccccccc" />
  <path
     style="opacity:0.2;stroke-width:0.25562623"
     d="m 4.6743417,7.0795978 c 0.8234628,0 1.4907001,0.7063387 1.4907001,1.5780581 0,0.8717193 -0.6672373,1.5780581 -1.4907001,1.5780581 -0.8234627,0 -1.4907001,-0.7063388 -1.4907001,-1.5780581 0,-0.8717194 0.6672374,-1.5780581 1.4907001,-1.5780581 z"
     id="path3945"
     inkscape:connector-curvature="0" />
  <path
     d="m 4.6743417,6.816588 c 0.8234628,0 1.4907001,0.7063389 1.4907001,1.5780581 0,0.8717195 -0.6672373,1.5780583 -1.4907001,1.5780583 -0.8234627,0 -1.4907001,-0.7063388 -1.4907001,-1.5780583 0,-0.8717192 0.6672374,-1.5780581 1.4907001,-1.5780581 z"
     style="fill:#ffffff;stroke-width:0.25562623"
     id="path3947"
     inkscape:connector-curvature="0" />
  <path
     style="fill:#353535;stroke-width:0.25562623"
     d="m 5.4196918,8.3946461 a 0.74535005,0.78902911 0 1 1 -1.4907001,0 0.74535005,0.78902911 0 1 1 1.4907001,0 z"
     id="path3949"
     inkscape:connector-curvature="0" />
  <path
     style="opacity:0.2;stroke-width:0.25562623"
     d="m 8.1526416,8.1316365 c 0.2752827,0 0.4969003,0.2346046 0.4969003,0.5260194 v 1.0520392 c 0,0.2914149 -0.2216176,0.5260189 -0.4969003,0.5260189 -0.2752828,0 -0.4968997,-0.234604 -0.4968997,-0.5260189 V 8.6576559 c 0,-0.2914148 0.2216169,-0.5260194 0.4968997,-0.5260194 z"
     id="path3951"
     inkscape:connector-curvature="0" />
  <path
     d="m 8.1526416,7.8686268 c 0.2752827,0 0.4969003,0.2346046 0.4969003,0.5260193 V 9.446685 c 0,0.2914144 -0.2216176,0.5260194 -0.4969003,0.5260194 -0.2752828,0 -0.4968997,-0.234605 -0.4968997,-0.5260194 V 8.3946461 c 0,-0.2914147 0.2216169,-0.5260193 0.4968997,-0.5260193 z"
     style="fill:#ffffff;stroke-width:0.25562623"
     id="path3953"
     inkscape:connector-curvature="0" />
  <path
     d="m 11.630942,7.0795978 c 0.823463,0 1.4907,0.7063387 1.4907,1.5780581 0,0.8717193 -0.667237,1.5780581 -1.4907,1.5780581 -0.823463,0 -1.4907,-0.7063388 -1.4907,-1.5780581 0,-0.8717194 0.667237,-1.5780581 1.4907,-1.5780581 z"
     style="opacity:0.2;stroke-width:0.25562623"
     id="path3955"
     inkscape:connector-curvature="0" />
  <path
     style="fill:#ffffff;stroke-width:0.25562623"
     d="m 11.630942,6.816588 c 0.823463,0 1.4907,0.7063389 1.4907,1.5780581 0,0.8717195 -0.667237,1.5780583 -1.4907,1.5780583 -0.823463,0 -1.4907,-0.7063388 -1.4907,-1.5780583 0,-0.8717192 0.667237,-1.5780581 1.4907,-1.5780581 z"
     id="path3957"
     inkscape:connector-curvature="0" />
  <path
     style="fill:#353535;stroke-width:0.25562623"
     d="m 12.376292,8.3946461 a 0.74535004,0.7890291 0 1 1 -1.4907,0 0.74535004,0.7890291 0 1 1 1.4907,0 z"
     id="path3959"
     inkscape:connector-curvature="0" />
  <path
     style="opacity:0.2;fill:none;stroke:#000000;stroke-width:0.51125246"
     d="m 14.977219,10.331625 -1.110227,0.268768 v 1.001776 l -0.9938,0.488671 v -1.026209 l -1.4907,0.268769 v 1.001776 L 9.3948917,12.65501 V 11.55037 H 8.1526416 m -6.8245771,-1.218745 1.1102271,0.268768 v 1.001776 l 0.9938,0.488671 V 11.064631 L 4.9227918,11.3334 v 1.001776 l 1.9875998,0.319834 v -1.10464 h 1.24225"
     id="path3961"
     inkscape:connector-curvature="0" />
  <path
     d="m 14.977219,10.068823 -1.110227,0.26877 v 1.001775 l -0.9938,0.48867 V 10.80183 l -1.4907,0.268769 v 1.001776 L 9.3948917,12.392209 V 11.287568 H 8.1526416 m -6.8245771,-1.218745 1.1102271,0.26877 v 1.001775 l 0.9938,0.48867 V 10.80183 l 1.4907002,0.268769 v 1.001776 l 1.9875998,0.319834 v -1.104641 h 1.24225"
     style="fill:none;stroke:#ffffff;stroke-width:0.51125246"
     id="path3963"
     inkscape:connector-curvature="0" />
  <path
     style="opacity:0.2;fill:#ffffff;stroke-width:0.25562623"
     d="m 6.761419,1.5558803 -0.05726,0.035445 -1.6818901,0.754098 0.045614,0.242462 1.6362764,-0.7335504 0.05726,-0.035445 0.593465,1.0525525 H 8.1521564 8.9489431 L 9.543865,1.81889 11.237401,2.5878851 11.283018,2.3454231 9.5438677,1.5558803 8.9489459,2.6084328 H 8.1521564 7.3548839 Z M 2.9351916,4.186491 1.1960415,6.0275589 1.315414,6.1642006 2.9351916,4.4495008 3.7688579,5.2246603 5.3701958,4.4495008 5.3245821,4.2085797 3.7688579,4.9616506 Z m 10.4349004,0 -0.833667,0.7751596 -1.555724,-0.7530709 -0.04562,0.2409211 1.601338,0.7751595 0.833666,-0.7751595 1.619778,1.7146998 0.119373,-0.1366417 z M 1.1960415,10.689816 v 0.263011 l 0.9938,0.294344 v -0.263009 z m 13.9132005,0 -0.9938,0.294346 v 0.263009 l 0.9938,-0.294344 z"
     id="path3965"
     inkscape:connector-curvature="0" />
  <path
     sodipodi:nodetypes="ccccccccccccccccccccccccccccccccccccccccccc"
     inkscape:connector-curvature="0"
     id="path25096"
     d="M 5.0221718,2.8714425 1.0373591,1.9176223 2.9351916,4.7125104 0.34801381,4.1660726 1.1960415,6.5535784 1.5963985,9.8131274 2.186063,7.7256108 2.1380976,9.3924359 2.8276875,7.4240544 3.1772689,9.3249672 3.4578223,6.814967 3.9152966,9.0666375 4.1150628,6.4907392 4.7741962,8.9010197 5.1508517,5.8466098 5.8779891,7.6141859 6.1583312,5.7317493 6.6889074,7.6873884 7.1635804,5.73915 7.8621141,8.1416225 8.4495975,5.7486179 9.3721982,8.3268207 9.8755938,5.7591164 l 0.9231642,2.1965377 0.746037,-2.1842487 0.615127,2.2076078 0.423171,-1.3762976 0.482331,2.0428408 0.293785,-1.4214467 0.785087,2.3053811 -0.02885,-1.7679686 0.747519,1.8833703 0.246281,-3.0913141 0.684001,-2.5611459 -2.423151,0.7200779 1.784412,-2.2684359 -3.871489,0.427368 L 12.580616,1.4938928 9.5439637,2.0821525 7.8623345,1.4240009 6.7041611,2.1173445 4.0738434,1.1635888 Z"
     style="opacity:0.2;fill:#2e3436;stroke-width:0.25562623" />
  <path
     style="fill:#edd400;stroke-width:0.25562623"
     d="M 5.0221718,2.3454231 1.0373591,1.3916029 2.9351916,4.186491 0.34801381,3.6400532 1.1960415,6.0275589 1.5963985,9.2871075 2.186063,7.1995913 2.1380976,8.8664165 2.8276875,6.8980351 3.1772689,8.7989478 3.4578223,6.2889476 3.9152966,8.5406182 4.1150628,5.9647198 4.7741962,8.3750003 5.1508517,5.3205904 5.8779891,7.0881666 6.1583312,5.2057299 6.6889074,7.161369 7.1635804,5.2131308 7.8621141,7.6156031 8.4495975,5.2225986 9.3721982,7.8008013 9.8755938,5.2330971 10.798758,7.4296346 11.544795,5.245386 12.159922,7.4529938 12.583093,6.0766963 13.065424,8.119537 13.359209,6.6980903 14.144296,9.0034713 14.115444,7.2355028 14.862963,9.1188732 15.109244,6.0275589 15.793245,3.4664132 13.370094,4.186491 15.154506,1.9180551 11.283017,2.3454231 12.580616,0.9678735 9.5439637,1.5561331 7.8623345,0.89798151 6.7041611,1.5913251 4.0738434,0.63756938 Z"
     id="rect24279"
     inkscape:connector-curvature="0"
     sodipodi:nodetypes="ccccccccccccccccccccccccccccccccccccccccccc" />
</svg>
