<?xml version="1.0" encoding="UTF-8" standalone="no"?>
<svg
   xmlns:dc="http://purl.org/dc/elements/1.1/"
   xmlns:cc="http://creativecommons.org/ns#"
   xmlns:rdf="http://www.w3.org/1999/02/22-rdf-syntax-ns#"
   xmlns:svg="http://www.w3.org/2000/svg"
   xmlns="http://www.w3.org/2000/svg"
   xmlns:sodipodi="http://sodipodi.sourceforge.net/DTD/sodipodi-0.dtd"
   xmlns:inkscape="http://www.inkscape.org/namespaces/inkscape"
   width="16"
   height="16"
   version="1"
   id="svg20"
   sodipodi:docname="gdscript.svg"
   inkscape:version="0.92.3 (2405546, 2018-03-11)">
  <metadata
     id="metadata26">
    <rdf:RDF>
      <cc:Work
         rdf:about="">
        <dc:format>image/svg+xml</dc:format>
        <dc:type
           rdf:resource="http://purl.org/dc/dcmitype/StillImage" />
        <dc:title></dc:title>
      </cc:Work>
    </rdf:RDF>
  </metadata>
  <defs
     id="defs24" />
  <sodipodi:namedview
     pagecolor="#ffffff"
     bordercolor="#666666"
     borderopacity="1"
     objecttolerance="10"
     gridtolerance="10"
     guidetolerance="10"
     inkscape:pageopacity="0"
     inkscape:pageshadow="2"
     inkscape:window-width="1366"
     inkscape:window-height="703"
     id="namedview22"
     showgrid="false"
     inkscape:snap-global="false"
     inkscape:pagecheckerboard="true"
     inkscape:zoom="14.75"
     inkscape:cx="11.89233"
     inkscape:cy="13.384014"
     inkscape:window-x="0"
     inkscape:window-y="40"
     inkscape:window-maximized="1"
     inkscape:current-layer="svg20" />
  <path
     style="opacity:0.2;stroke-width:0.26849014"
     d="m 0.4153177,7.7987718 c -1.5183e-4,0.00452 1.9346e-4,0.00902 0,0.013498 -0.002346,0.083507 -0.007988,0.1660222 -0.007406,0.2502373 -2.1682e-4,0.023923 -0.001031,0.046783 -0.001031,0.070706 0,0.8654374 0.15649793,1.6915873 0.43113253,2.4629259 0.11052329,0.345796 0.23828697,0.69489 0.39193737,1.048741 0.2475656,0.57012 0.3463781,0.87554 0.374993,1.216953 C 1.6492499,12.218031 1.5906208,11.94371 1.2299518,11.112776 1.0763013,10.759242 0.94852133,10.409963 0.83798841,10.064405 0.58448959,9.3520237 0.43740167,8.5917962 0.41532763,7.7986069 Z M 15.582404,7.9223329 c -0.0065,0.155618 -0.01559,0.3113214 -0.03178,0.4641378 -0.0083,0.080978 -0.01963,0.1612162 -0.03072,0.2419332 -0.01837,0.1314875 -0.03939,0.2622893 -0.06461,0.3914536 -0.273795,1.4133325 -0.966649,2.7633495 -2.084723,3.8574385 -1.356983,1.327954 -2.864255,2.009129 -4.7414159,2.140015 -0.2077233,0.01648 -0.4176165,0.02711 -0.6296796,0.02711 -0.011703,0 -0.023268,-10e-4 -0.03495,-10e-4 -0.00733,5.3e-5 -0.013817,10e-4 -0.021187,10e-4 -0.090615,0 -0.1749816,-0.0059 -0.262708,-0.0084 -0.02689,-10e-4 -0.053697,-7.45e-4 -0.080503,-0.002 C 6.9591127,15.011207 6.3903948,14.928583 5.8925631,14.77544 4.804264,14.440696 4.6880907,14.440286 3.3608283,14.773395 2.4875751,14.992543 1.5338901,15.085663 1.1394862,15.018444 1.0331836,15.215146 0.94857547,15.39537 0.94857547,15.448533 c 0,0.217165 1.27910093,0.141029 2.41203593,-0.143292 1.3272082,-0.33308 1.443436,-0.332671 2.5317348,0.002 0.4978479,0.15313 1.0666044,0.235771 1.7075647,0.258546 0.026816,0.0012 0.053613,10e-4 0.080503,0.002 0.087715,0.0025 0.1720853,0.0084 0.262708,0.0084 0.00733,0 0.013827,-10e-4 0.021186,-10e-4 0.011934,0 0.023322,10e-4 0.035253,10e-4 0.2120296,0 0.4216905,-0.01045 0.6292453,-0.02699 1.8771608,-0.130854 3.3843788,-0.812062 4.7414158,-2.140015 1.11802,-1.094089 1.810885,-2.444107 2.084723,-3.8574394 0.02523,-0.1291636 0.04625,-0.2599656 0.06461,-0.3914539 0.01111,-0.080717 0.02235,-0.1609552 0.03072,-0.2419329 0.01841,-0.1736666 0.0299,-0.3503853 0.03601,-0.527476 0.0013,-0.044626 0.0027,-0.088261 0.0033,-0.1329068 5.42e-4,-0.041999 0.0033,-0.083465 0.0033,-0.1249328 0,-0.071148 -0.0085,-0.1401263 -0.01059,-0.2107796 z"
     id="path2"
     inkscape:connector-curvature="0" />
  <path
     style="fill:#dfe0e0;fill-opacity:1;stroke-width:0.26849014"
     d="m 8.0000003,0.13635507 c -0.1828353,0 -0.3633659,0.008429 -0.5429028,0.0207684 -0.022525,0.001622 -0.044758,0.003361 -0.067263,0.005198 C 4.6772776,0.37215492 2.3800951,1.9684259 1.219283,4.2311406 c -2.569e-4,4.785e-4 -8.028e-4,0.00105 -0.00106,0.00156 -0.075095,0.1464869 -0.1518442,0.292021 -0.217166,0.4439017 -0.35545164,0.7868095 -0.54859577,1.6220652 -0.58368653,2.4962211 -0.001554,0.02824 -0.001426,0.056819 -0.002652,0.085145 -0.002356,0.083508 -0.00745,0.1665494 -0.00689,0.2507645 5.653e-5,0.023913 -0.001056,0.046676 -0.001056,0.070598 0,0.8654369 0.15703922,1.6916546 0.43167382,2.4629941 0.11052742,0.345796 0.23776911,0.694894 0.39141961,1.048745 0.3827105,0.881332 0.4304513,1.122003 0.3702331,1.858147 -0.041959,0.512946 -0.1839147,1.036286 -0.3612282,1.331178 -0.1607555,0.266879 -0.28972465,0.542978 -0.28972465,0.613154 0,0.217165 1.27972565,0.14103 2.41260625,-0.143294 1.3272081,-0.333081 1.4429515,-0.332149 2.5312506,0.0028 0.497848,0.15313 1.066083,0.235776 1.7070977,0.258552 0.026817,0.0012 0.054158,10e-4 0.081038,0.002 0.087717,0.0025 0.1715642,0.0078 0.2621815,0.0078 0.00733,0 0.014362,-4.79e-4 0.02172,-5.32e-4 0.011692,5e-5 0.023258,5.32e-4 0.034961,5.32e-4 0.2120307,0 0.4211577,-0.0099 0.6287083,-0.02647 1.8771605,-0.130855 3.3850175,-0.812109 4.7420555,-2.140065 1.11802,-1.094089 1.810378,-2.444697 2.084216,-3.8580309 0.02524,-0.1291645 0.04626,-0.2594554 0.06461,-0.390943 0.01111,-0.080717 0.02288,-0.160961 0.03125,-0.2419383 0.01841,-0.173667 0.02938,-0.3498834 0.03548,-0.5269685 0.0013,-0.044626 0.0032,-0.089303 0.0037,-0.1339487 10e-4,-0.040952 0.0032,-0.082106 0.0032,-0.1235712 0,-4.0545142 -3.275102,-7.32986327 -7.383477,-7.43778371 -0.031905,-9.0376e-4 -0.063955,-0.001599 -0.09587,-0.002076 -0.038508,-7.9743e-4 -0.075908,-0.003112 -0.1138768,-0.003112 z M 7.1456569,2.0417482 H 8.7070981 L 9.1461862,3.8017711 A 3.9036544,3.9036494 0 0 1 9.681674,4.0244998 l 1.556674,-0.9334872 1.104343,1.1037783 -0.931674,1.5539079 a 3.9036544,3.9036494 0 0 1 0.217691,0.536833 l 1.762712,0.4407845 v 1.5611765 l -1.759534,0.4392269 a 3.9036544,3.9036494 0 0 1 -0.222458,0.5352756 l 0.933263,1.5570237 -1.104343,1.103777 -1.5534957,-0.93141 A 3.9036544,3.9036494 0 0 1 9.1477762,11.209442 L 8.7070981,12.972061 H 7.1456569 L 6.7065677,11.212557 A 3.9036544,3.9036494 0 0 1 6.1710801,10.989829 L 4.6144061,11.922796 3.5105923,10.819019 4.4422663,9.2651098 A 3.9036544,3.9036494 0 0 1 4.224046,8.7282772 L 2.4613337,8.2874928 V 6.7263163 L 4.2208679,6.2870895 A 3.9036544,3.9036494 0 0 1 4.4438554,5.751814 L 3.5105923,4.1947909 4.6144061,3.0910126 6.1668428,4.022942 A 3.9036544,3.9036494 0 0 1 6.7049787,3.8048862 Z m 0.7807205,3.90372 A 1.5614699,1.5614679 0 0 0 6.3649362,7.5071641 1.5614699,1.5614679 0 0 0 7.9263774,9.0683406 1.5614699,1.5614679 0 0 0 9.4878179,7.5071641 1.5614699,1.5614679 0 0 0 7.9263774,5.9454682 Z"
     id="path4"
     inkscape:connector-curvature="0" />
</svg>
