<?xml version="1.0" encoding="UTF-8" standalone="no"?>
<svg
   xmlns:dc="http://purl.org/dc/elements/1.1/"
   xmlns:cc="http://creativecommons.org/ns#"
   xmlns:rdf="http://www.w3.org/1999/02/22-rdf-syntax-ns#"
   xmlns:svg="http://www.w3.org/2000/svg"
   xmlns="http://www.w3.org/2000/svg"
   xmlns:sodipodi="http://sodipodi.sourceforge.net/DTD/sodipodi-0.dtd"
   xmlns:inkscape="http://www.inkscape.org/namespaces/inkscape"
   height="64"
   width="64"
   version="1"
   id="svg3967"
   sodipodi:docname="logo.svg"
   inkscape:version="0.92.3 (2405546, 2018-03-11)"
   inkscape:export-filename="/home/jeremi360/DevProjects/Godot/Ren-GD/window_icon.png"
   inkscape:export-xdpi="96"
   inkscape:export-ydpi="96">
  <metadata
     id="metadata3973">
    <rdf:RDF>
      <cc:Work
         rdf:about="">
        <dc:format>image/svg+xml</dc:format>
        <dc:type
           rdf:resource="http://purl.org/dc/dcmitype/StillImage" />
        <dc:title></dc:title>
      </cc:Work>
    </rdf:RDF>
  </metadata>
  <defs
     id="defs3971" />
  <sodipodi:namedview
     pagecolor="#ffffff"
     bordercolor="#666666"
     borderopacity="1"
     objecttolerance="10"
     gridtolerance="10"
     guidetolerance="10"
     inkscape:pageopacity="0"
     inkscape:pageshadow="2"
     inkscape:window-width="1366"
     inkscape:window-height="707"
     id="namedview3969"
     showgrid="false"
     inkscape:snap-global="false"
     inkscape:zoom="6.2836796"
     inkscape:cx="44.500948"
     inkscape:cy="26.345136"
     inkscape:window-x="0"
     inkscape:window-y="36"
     inkscape:window-maximized="1"
     inkscape:current-layer="svg3967"
     inkscape:pagecheckerboard="true" />
  <path
     style="opacity:0.2;stroke-width:1.02282059"
     d="M 7.2159436,42.708188 3.1237856,41.56455 v 4.773074 c 5.767215,8.806983 15.7548094,12.89037 28.6451064,12.89037 12.890298,0 22.877891,-4.083387 28.645106,-12.89037 V 41.56455 l -4.092157,1.143638 C 57.540141,19.916493 46.123153,40.412708 33.454698,40.482029 20.958152,40.550407 7.2159436,19.880185 7.2159436,42.708188 Z"
     id="path3941"
     inkscape:connector-curvature="0"
     sodipodi:nodetypes="cccscccsc" />
  <path
     style="fill:#478cbf;stroke-width:1.02282059"
     d="m 26.039871,5.0291037 -0.234978,0.1370126 -3.535948,1.4967179 -3.39035,1.4350884 1.432254,7.1582104 -6.593409,3.014278 -3.432377,-3.014278 -7.1612774,7.158209 4.092158,4.431938 v 14.839308 l -4.092158,-1.143639 v 4.773073 c 5.767215,8.806984 15.7548094,12.89037 28.6451064,12.89037 12.890298,0 22.877891,-4.083386 28.645106,-12.89037 v -4.773073 l -4.092157,1.143639 V 26.84628 L 60.413998,22.414342 53.252721,15.256133 49.820344,18.270411 43.226935,15.256133 44.65919,8.0979226 37.497914,5.0291037 35.047412,9.120524 h -6.562636 z"
     id="path3943"
     inkscape:connector-curvature="0"
     sodipodi:nodetypes="ccccccccccccsccccccccccccc" />
  <path
     style="opacity:0.2;stroke-width:1.02282059"
     d="m 17.446339,26.504748 c 3.390762,0 6.138237,2.746298 6.138237,6.135609 0,3.38931 -2.747475,6.135608 -6.138237,6.135608 -3.390762,0 -6.138237,-2.746298 -6.138237,-6.135608 0,-3.389311 2.747475,-6.135609 6.138237,-6.135609 z"
     id="path3945"
     inkscape:connector-curvature="0" />
  <path
     d="m 17.446339,25.482147 c 3.390762,0 6.138237,2.746298 6.138237,6.135608 0,3.38931 -2.747475,6.135609 -6.138237,6.135609 -3.390762,0 -6.138237,-2.746299 -6.138237,-6.135609 0,-3.38931 2.747475,-6.135608 6.138237,-6.135608 z"
     style="fill:#ffffff;stroke-width:1.02282059"
     id="path3947"
     inkscape:connector-curvature="0" />
  <path
     style="fill:#353535;stroke-width:1.02282059"
     d="m 20.515457,31.617755 a 3.0691185,3.0678043 0 1 1 -6.138236,0 3.0691185,3.0678043 0 1 1 6.138236,0 z"
     id="path3949"
     inkscape:connector-curvature="0" />
  <path
     style="opacity:0.2;stroke-width:1.02282059"
     d="m 31.768892,30.595154 c 1.133528,0 2.04608,0.91216 2.04608,2.045203 v 4.090405 c 0,1.133042 -0.912552,2.045203 -2.04608,2.045203 -1.133528,0 -2.046079,-0.912161 -2.046079,-2.045203 v -4.090405 c 0,-1.133043 0.912551,-2.045203 2.046079,-2.045203 z"
     id="path3951"
     inkscape:connector-curvature="0" />
  <path
     d="m 31.768892,29.572552 c 1.133528,0 2.04608,0.912161 2.04608,2.045203 v 4.090406 c 0,1.133042 -0.912552,2.045203 -2.04608,2.045203 -1.133528,0 -2.046079,-0.912161 -2.046079,-2.045203 v -4.090406 c 0,-1.133042 0.912551,-2.045203 2.046079,-2.045203 z"
     style="fill:#ffffff;stroke-width:1.02282059"
     id="path3953"
     inkscape:connector-curvature="0" />
  <path
     d="m 46.091445,26.504748 c 3.390763,0 6.138238,2.746298 6.138238,6.135609 0,3.38931 -2.747475,6.135608 -6.138238,6.135608 -3.390762,0 -6.138237,-2.746298 -6.138237,-6.135608 0,-3.389311 2.747475,-6.135609 6.138237,-6.135609 z"
     style="opacity:0.2;stroke-width:1.02282059"
     id="path3955"
     inkscape:connector-curvature="0" />
  <path
     style="fill:#ffffff;stroke-width:1.02282059"
     d="m 46.091445,25.482147 c 3.390763,0 6.138238,2.746298 6.138238,6.135608 0,3.38931 -2.747475,6.135609 -6.138238,6.135609 -3.390762,0 -6.138237,-2.746299 -6.138237,-6.135609 0,-3.38931 2.747475,-6.135608 6.138237,-6.135608 z"
     id="path3957"
     inkscape:connector-curvature="0" />
  <path
     style="fill:#353535;stroke-width:1.02282059"
     d="m 49.160563,31.617755 a 3.0691185,3.0678043 0 1 1 -6.138236,0 3.0691185,3.0678043 0 1 1 6.138236,0 z"
     id="path3959"
     inkscape:connector-curvature="0" />
  <g
     id="g909"
     transform="matrix(1.0230395,0,0,1.0226014,-0.75937788,2.5233519)">
    <path
       id="path3961"
       d="M 59.468614,37.364664 55,38.386562 v 3.808892 l -4,1.857996 v -3.901792 l -6,1.021898 v 3.808892 l -8,1.216058 v -4.2 H 32 M 4.5313868,37.364664 9,38.386562 v 3.808892 l 4,1.857996 v -3.901792 l 6,1.021898 v 3.808892 l 8,1.216058 v -4.2 h 5"
       style="opacity:0.2;fill:none;stroke:#000000;stroke-width:2"
       inkscape:connector-curvature="0" />
    <path
       id="path3963"
       style="fill:none;stroke:#ffffff;stroke-width:2"
       d="M 59.468614,36.365458 55,37.387356 v 3.808892 l -4,1.857996 v -3.901792 l -6,1.021898 v 3.808892 L 37,45.1993 v -4.2 H 32 M 4.5313868,36.365458 9,37.387356 v 3.808892 l 4,1.857996 v -3.901792 l 6,1.021898 v 3.808892 l 8,1.216058 v -4.2 h 5"
       inkscape:connector-curvature="0" />
  </g>
  <path
     style="opacity:.2;fill:#ffffff"
     d="m26.400391 3.9980469l-0.230469 0.1347656-6.769531 2.8671875 0.183593 0.921875 6.585938-2.7890625 0.230469-0.1347656 2.388671 4.0019531h3.208985 3.207031l2.394531-4.0019531 6.816407 2.9238281 0.183593-0.921875-7-3.0019531-2.394531 4.0019531h-3.207031-3.208985l-2.388671-4.0019531zm-15.400391 10.0019531l-7 7 0.4804688 0.519531 6.5195312-6.519531 3.355469 2.947266 6.445312-2.947266-0.183593-0.916016-6.261719 2.863282-3.355469-2.947266zm42 0l-3.355469 2.947266-6.261719-2.863282-0.183593 0.916016 6.445312 2.947266 3.355469-2.947266 6.519531 6.519531 0.480469-0.519531-7-7zm-49 24.726562v1l4 1.119141v-1l-4-1.119141zm56 0l-4 1.119141v1l4-1.119141v-1z"
     id="path3965" />
  <path
     sodipodi:nodetypes="ccccccccccccccccccccccccccccccccccccccccccc"
     inkscape:connector-curvature="0"
     id="path25096"
     d="M 19.4,9 3.3613108,5.3734408 11,16 0.58672745,13.922366 4,23 5.6114191,35.393264 7.9847914,27.456233 7.791733,33.793737 l 2.775568,-7.484064 1.407049,7.227539 1.129215,-9.543375 1.841313,8.561169 0.80405,-9.793929 2.652982,9.164227 1.516021,-11.613298 2.926695,6.720574 1.128364,-7.15729 2.135545,7.435616 1.910538,-7.407477 2.811566,9.134539 2.364595,-9.098541 3.713426,9.802691 2.026144,-9.762774 3.715692,8.351546 3.002767,-8.304822 2.475856,8.393637 1.703246,-5.232878 1.94136,7.767169 1.182469,-5.404541 3.159942,8.765384 L 56,27.592773 59.008727,34.753613 60,23 62.753069,13.262162 53,16 60.182179,7.375087 44.599609,9 49.822389,3.7623619 37.6,5.9990078 30.831519,3.496623 26.169922,6.132813 15.583013,2.506499 Z"
     style="opacity:0.2;fill:#2e3436" />
  <path
     style="fill:#edd400;stroke-width:0.97562605"
     d="M 18.878595,7.821257 2.4703813,4.4470699 10.285063,14.334127 -0.36812709,12.401075 3.1237856,20.846997 4.772331,32.377815 7.2003847,24.993121 7.0028783,30.889599 9.8423936,23.92635 l 1.4394674,6.724575 1.155232,-8.879252 1.883735,7.965398 0.822576,-9.11237 2.714105,8.526489 1.550949,-10.805129 2.994125,6.252889 1.154361,-6.659214 2.184747,6.918172 1.954555,-6.891991 2.876344,8.498866 2.419074,-8.465374 3.798982,9.120523 2.072825,-9.083383 3.8013,7.770362 3.071948,-7.72689 2.532899,7.809524 1.742489,-4.868722 1.986087,7.226652 1.209713,-5.028439 3.232745,8.155401 -0.118811,-6.254278 3.078045,6.662518 1.014112,-10.93568 2.816499,-9.060182 -9.977776,2.547312 L 60.600374,6.3094211 44.65879,7.821257 50.0019,2.9481059 37.497914,5.0291037 30.57349,2.7008597 25.804492,5.1535969 14.973666,1.7796383 Z"
     id="rect24279"
     inkscape:connector-curvature="0"
     sodipodi:nodetypes="ccccccccccccccccccccccccccccccccccccccccccc" />
</svg>
