<?xml version="1.0" encoding="UTF-8" standalone="no"?>
<!-- Created with Inkscape (http://www.inkscape.org/) -->

<svg
   xmlns:dc="http://purl.org/dc/elements/1.1/"
   xmlns:cc="http://creativecommons.org/ns#"
   xmlns:rdf="http://www.w3.org/1999/02/22-rdf-syntax-ns#"
   xmlns:svg="http://www.w3.org/2000/svg"
   xmlns="http://www.w3.org/2000/svg"
   xmlns:sodipodi="http://sodipodi.sourceforge.net/DTD/sodipodi-0.dtd"
   xmlns:inkscape="http://www.inkscape.org/namespaces/inkscape"
   width="16"
   height="16"
   viewBox="0 0 16 16"
   id="svg2"
   version="1.1"
   inkscape:version="0.92.3 (2405546, 2018-03-11)"
   inkscape:export-filename="/home/djrm/Projects/godot/tools/editor/icons/icon_center_container.png"
   inkscape:export-xdpi="90"
   inkscape:export-ydpi="90"
   sodipodi:docname="rakugo_var_edit.svg">
  <defs
     id="defs4" />
  <sodipodi:namedview
     id="base"
     pagecolor="#ffffff"
     bordercolor="#666666"
     borderopacity="1.0"
     inkscape:pageopacity="0.0"
     inkscape:pageshadow="2"
     inkscape:zoom="32"
     inkscape:cx="13.659644"
     inkscape:cy="7.1203148"
     inkscape:document-units="px"
     inkscape:current-layer="layer1"
     showgrid="true"
     units="px"
     inkscape:snap-bbox="true"
     inkscape:bbox-paths="true"
     inkscape:bbox-nodes="true"
     inkscape:snap-bbox-edge-midpoints="true"
     inkscape:snap-bbox-midpoints="true"
     inkscape:snap-object-midpoints="true"
     inkscape:snap-center="true"
     inkscape:window-width="1366"
     inkscape:window-height="708"
     inkscape:window-x="0"
     inkscape:window-y="32"
     inkscape:window-maximized="1"
     inkscape:object-paths="false"
     inkscape:snap-intersection-paths="false"
     inkscape:object-nodes="false"
     inkscape:snap-smooth-nodes="true"
     inkscape:document-rotation="0"
     inkscape:pagecheckerboard="true"
     inkscape:snap-global="false">
    <inkscape:grid
       type="xygrid"
       id="grid3336" />
  </sodipodi:namedview>
  <metadata
     id="metadata7">
    <rdf:RDF>
      <cc:Work
         rdf:about="">
        <dc:format>image/svg+xml</dc:format>
        <dc:type
           rdf:resource="http://purl.org/dc/dcmitype/StillImage" />
        <dc:title></dc:title>
      </cc:Work>
    </rdf:RDF>
  </metadata>
  <g
     inkscape:label="Layer 1"
     inkscape:groupmode="layer"
     id="layer1"
     transform="translate(0,-1036.3622)">
    <path
       style="opacity:1;fill:#a5efac;fill-opacity:1;stroke:none;stroke-width:2;stroke-linecap:round;stroke-linejoin:miter;stroke-miterlimit:4;stroke-dasharray:none;stroke-dashoffset:0;stroke-opacity:1"
       d="m 1.3125,1040.3935 v 5 h 2 v -5 z m -1,7 c 0,1.1045 0.8954305,2 2,2 h 10 c 1.104569,0 2,-0.8955 2,-2 h -2 -10 z"
       id="rect4140"
       inkscape:connector-curvature="0" />
    <g
       aria-label="Var"
       style="font-style:normal;font-variant:normal;font-weight:500;font-stretch:normal;font-size:26.66666603px;line-height:1.25;font-family:'JetBrains Mono';-inkscape-font-specification:'JetBrains Mono Medium';letter-spacing:0px;word-spacing:0px;fill:#a5efac;fill-opacity:1;stroke:none"
       id="text816"
       transform="matrix(0.26726968,0,0,0.3700749,3.5589255,661.2737)">
      <path
         d="M -0.12000002,1023.1622 H 2.9199999 l 3.5466666,14.6133 q 0.1333333,0.5067 0.2133333,0.9867 0.08,0.48 0.1333333,0.8533 0.053333,0.4267 0.1066667,0.8 h 0.1333333 q 0.053333,-0.3733 0.1333334,-0.8 0.1333333,-0.8267 0.3733333,-1.84 l 3.5466662,-14.6133 H 14.12 l -5.1733336,19.2 H 4.9199999 Z"
         id="path818"
         inkscape:connector-curvature="0" />
      <path
         d="m 16.482916,1038.1755 q 0,-2.1333 1.466667,-3.36 1.493333,-1.2533 4.026667,-1.2533 h 3.973333 v -1.2534 q 0,-1.1733 -0.826667,-1.84 -0.8,-0.6666 -2.293333,-0.6666 -1.146667,0 -1.946667,0.4266 -0.8,0.4267 -1.04,1.1734 H 16.93625 q 0.346666,-1.84 1.946666,-2.9067 1.6,-1.0667 3.973333,-1.0667 2.8,0 4.4,1.28 1.626667,1.28 1.626667,3.52 v 10.1334 h -2.72 v -2.8534 h -0.213333 q -0.293334,1.44 -1.573334,2.2934 -1.28,0.8266 -3.093333,0.8266 -2.213333,0 -3.52,-1.2 -1.28,-1.2 -1.28,-3.2533 z m 5.68,2.1067 q 0.8,0 1.493333,-0.2134 0.693334,-0.2133 1.2,-0.5866 0.506667,-0.4 0.8,-0.9067 0.293334,-0.5333 0.293334,-1.1467 v -1.84 h -3.946667 q -1.2,0 -1.893333,0.6134 -0.693333,0.6133 -0.693333,1.7333 0,1.12 0.72,1.7333 0.72,0.6134 2.026666,0.6134 z"
         id="path820"
         inkscape:connector-curvature="0" />
      <path
         d="m 33.699166,1027.6955 h 2.773333 v 2.5333 h 0.24 q 0.293334,-1.3333 1.36,-2.0533 1.093334,-0.7467 2.72,-0.7467 2.346667,0 3.68,1.4667 1.333333,1.44 1.333333,4.0267 v 0.96 h -3.013333 v -0.6667 q 0,-1.5467 -0.826667,-2.4 -0.826666,-0.88 -2.266666,-0.88 -1.413333,0 -2.24,0.88 -0.826667,0.88 -0.826667,2.4 v 9.1467 h -2.933333 z"
         id="path822"
         inkscape:connector-curvature="0" />
    </g>
  </g>
</svg>
