<?xml version="1.0" encoding="UTF-8" standalone="no"?>
<!-- Created with Inkscape (http://www.inkscape.org/) -->

<svg
   xmlns:dc="http://purl.org/dc/elements/1.1/"
   xmlns:cc="http://creativecommons.org/ns#"
   xmlns:rdf="http://www.w3.org/1999/02/22-rdf-syntax-ns#"
   xmlns:svg="http://www.w3.org/2000/svg"
   xmlns="http://www.w3.org/2000/svg"
   xmlns:sodipodi="http://sodipodi.sourceforge.net/DTD/sodipodi-0.dtd"
   xmlns:inkscape="http://www.inkscape.org/namespaces/inkscape"
   width="16"
   height="16"
   viewBox="0 0 12.8 12.8"
   id="svg2"
   version="1.1"
   inkscape:version="0.92.3 (2405546, 2018-03-11)"
   inkscape:export-filename="/home/djrm/Projects/godot/tools/editor/icons/icon_center_container.png"
   inkscape:export-xdpi="90"
   inkscape:export-ydpi="90"
   sodipodi:docname="rakugo_ask.svg">
  <defs
     id="defs4" />
  <sodipodi:namedview
     id="base"
     pagecolor="#ffffff"
     bordercolor="#666666"
     borderopacity="1.0"
     inkscape:pageopacity="0.0"
     inkscape:pageshadow="2"
     inkscape:zoom="22.627417"
     inkscape:cx="11.329694"
     inkscape:cy="11.112546"
     inkscape:document-units="px"
     inkscape:current-layer="layer1"
     showgrid="true"
     units="px"
     inkscape:snap-bbox="true"
     inkscape:bbox-paths="true"
     inkscape:bbox-nodes="true"
     inkscape:snap-bbox-edge-midpoints="true"
     inkscape:snap-bbox-midpoints="true"
     inkscape:snap-object-midpoints="true"
     inkscape:snap-center="true"
     inkscape:window-width="1366"
     inkscape:window-height="708"
     inkscape:window-x="0"
     inkscape:window-y="32"
     inkscape:window-maximized="1"
     inkscape:object-paths="false"
     inkscape:snap-intersection-paths="false"
     inkscape:object-nodes="false"
     inkscape:snap-smooth-nodes="true"
     inkscape:document-rotation="0"
     scale-x="0.8"
     inkscape:pagecheckerboard="true"
     inkscape:snap-global="false">
    <inkscape:grid
       type="xygrid"
       id="grid3336" />
  </sodipodi:namedview>
  <metadata
     id="metadata7">
    <rdf:RDF>
      <cc:Work
         rdf:about="">
        <dc:format>image/svg+xml</dc:format>
        <dc:type
           rdf:resource="http://purl.org/dc/dcmitype/StillImage" />
        <dc:title></dc:title>
      </cc:Work>
    </rdf:RDF>
  </metadata>
  <g
     inkscape:label="Layer 1"
     inkscape:groupmode="layer"
     id="layer1"
     transform="translate(0,-1036.3622)">
    <path
       style="opacity:1;fill:#a5efac;fill-opacity:1;stroke:none;stroke-width:1.7601558;stroke-linecap:round;stroke-linejoin:miter;stroke-miterlimit:4;stroke-dasharray:none;stroke-dashoffset:0;stroke-opacity:1"
       d="m 1.1188416,1038.7622 v 4.4444 h 1.7427086 v -4.4444 z m -0.87135423,6.2222 c 0,0.9819 0.78023723,1.7778 1.74270853,1.7778 h 8.7135411 c 0.962472,0 1.74271,-0.7959 1.74271,-1.7778 h -1.74271 -8.7135411 z"
       id="rect4140"
       inkscape:connector-curvature="0" />
    <g
       aria-label="?"
       transform="scale(1.0181646,0.98215948)"
       style="font-style:normal;font-variant:normal;font-weight:500;font-stretch:normal;font-size:10.56085491px;line-height:1.25;font-family:'JetBrains Mono';-inkscape-font-specification:'JetBrains Mono Medium';letter-spacing:0px;word-spacing:0px;fill:#a5efac;fill-opacity:1;stroke:none;stroke-width:0.26402137"
       id="text816">
      <path
         d="m 9.4329554,1062.3172 h 0.2428997 q 0.3273869,0 0.5174819,0.1901 0.200656,0.1795 0.200656,0.4858 0,0.3062 -0.200656,0.4858 -0.190095,0.1795 -0.5174819,0.1795 H 9.4329554 q -0.3273865,0 -0.5280427,-0.169 -0.2006563,-0.1795 -0.2006563,-0.4858 0,-0.3062 0.2006563,-0.4963 0.2006562,-0.1901 0.5280427,-0.1901 z m 2.7458226,-4.0976 q 0,0.4646 -0.147852,0.8554 -0.147852,0.3802 -0.422434,0.6653 -0.274583,0.2746 -0.654773,0.433 -0.380191,0.1584 -0.844869,0.1795 v 1.0139 H 9.0422038 l -0.021122,-2.0171 h 0.7075773 q 0.6019686,0 0.9399156,-0.2957 0.348509,-0.2957 0.348509,-0.8343 0,-0.5386 -0.348509,-0.8344 -0.348508,-0.2957 -0.9504765,-0.2957 H 8.2501397 v -1.0877 h 1.4257154 q 0.5702859,0 1.0349639,0.1584 0.464677,0.1584 0.792064,0.4435 0.327386,0.2852 0.49636,0.6971 0.179535,0.4118 0.179535,0.9188 z"
         style="fill:#a5efac;fill-opacity:1;stroke-width:0.26402137"
         id="path819" />
    </g>
  </g>
</svg>
