<?xml version="1.0" encoding="UTF-8" standalone="no"?>
<svg
   xmlns:dc="http://purl.org/dc/elements/1.1/"
   xmlns:cc="http://creativecommons.org/ns#"
   xmlns:rdf="http://www.w3.org/1999/02/22-rdf-syntax-ns#"
   xmlns:svg="http://www.w3.org/2000/svg"
   xmlns="http://www.w3.org/2000/svg"
   xmlns:sodipodi="http://sodipodi.sourceforge.net/DTD/sodipodi-0.dtd"
   xmlns:inkscape="http://www.inkscape.org/namespaces/inkscape"
   width="22.005651"
   height="15.00491"
   version="1.1"
   viewBox="0 0 22.005651 15.00491"
   id="svg8"
   sodipodi:docname="rakugo_text_paser.svg"
   inkscape:version="0.92.3 (2405546, 2018-03-11)"
   style="enable-background:new">
  <metadata
     id="metadata14">
    <rdf:RDF>
      <cc:Work
         rdf:about="">
        <dc:format>image/svg+xml</dc:format>
        <dc:type
           rdf:resource="http://purl.org/dc/dcmitype/StillImage" />
        <dc:title></dc:title>
      </cc:Work>
    </rdf:RDF>
  </metadata>
  <defs
     id="defs12" />
  <sodipodi:namedview
     pagecolor="#ffffff"
     bordercolor="#666666"
     borderopacity="1"
     objecttolerance="10"
     gridtolerance="10"
     guidetolerance="10"
     inkscape:pageopacity="0"
     inkscape:pageshadow="2"
     inkscape:window-width="1366"
     inkscape:window-height="708"
     id="namedview10"
     showgrid="false"
     inkscape:zoom="22.627417"
     inkscape:cx="17.646782"
     inkscape:cy="6.6022919"
     inkscape:window-x="0"
     inkscape:window-y="32"
     inkscape:window-maximized="0"
     inkscape:current-layer="svg8"
     inkscape:snap-grids="true"
     inkscape:pagecheckerboard="true"
     fit-margin-top="0"
     fit-margin-left="0"
     fit-margin-right="0"
     fit-margin-bottom="0"
     showguides="false" />
  <path
     style="display:inline;fill:#e0e0e0"
     d="m 20.37627,11.198782 c 0.359546,-0.0075 0.719092,-0.015 1.078638,-0.0225 -0.004,-0.738576 -0.008,-1.4771519 -0.01198,-2.2157279 -1.429703,0.011985 -2.859406,0.02397 -4.289109,0.035955 0.004,0.759672 0.008,1.5193439 0.01198,2.2790159 0.40349,-0.01135 0.806981,-0.02271 1.210471,-0.03406 0,1.251681 0,2.503363 0,3.755044 0.666667,0 1.333333,0 2,0 m -7.270001,-3.749287 c 0.332722,0.21587 0.665444,0.431741 0.998166,0.647611 -0.332863,0.218648 -0.665726,0.437297 -0.998588,0.655945 -1e-6,0.818044 -1e-6,1.636088 -1e-6,2.454132 0.566271,-0.533749 1.132541,-1.067498 1.698812,-1.601247 0.635303,0.532396 1.270607,1.064791 1.90591,1.597187 -9.5e-4,-0.757409 -0.0019,-1.514817 -0.0028,-2.272226 -0.29872,-0.278501 -0.59744,-0.557002 -0.896161,-0.835503 0.298377,-0.205775 0.596753,-0.41155 0.89513,-0.617325 0.0028,-0.73844 0.0057,-1.4768809 0.0085,-2.2153209 -0.63732,0.474447 -1.27464,0.9488929 -1.91196,1.4233399 -0.565645,-0.5042989 -1.13129,-1.0085989 -1.696934,-1.5128981 m -1.460639,2.2314241 c 0.359546,-0.0075 0.719092,-0.015 1.078637,-0.0225 -0.004,-0.738576 -0.008,-1.4771519 -0.01198,-2.2157275 -1.429702,0.011985 -2.8594053,0.02397 -4.2891081,0.035955 0.00399,0.7596716 0.00799,1.5193435 0.011985,2.2790155 0.4034903,-0.01135 0.8069806,-0.02271 1.2104709,-0.03406 0,1.251681 0,2.503363 0,3.755044 0.6666672,0 1.3333332,0 2.0000002,0 M 14.005722,7.0088177e-5 C 13.817572,0.75267009 13.629422,1.5052701 13.441272,2.2578701 13.057879,2.3957906 12.700082,2.6620267 12.364716,2.3048249 11.830984,1.9844733 11.297253,1.6641217 10.763522,1.3437701 c -0.471367,0.4713667 -0.9427338,0.9427333 -1.4141005,1.4141 0.3984333,0.6647 0.7968665,1.3294 1.1953005,1.9941 -0.170695,0.369732 -0.233129,0.8106877 -0.7232059,0.7948719 -0.6052849,0.1510593 -1.2105697,0.3021187 -1.8158546,0.4531781 0,0.6666667 0,1.3333333 0,2 1.7571667,0 3.5143335,0 5.2715005,0 -0.686929,-1.0800497 -0.01334,-2.6625661 1.228688,-2.9370347 1.208239,-0.3582 2.545515,0.6777799 2.499832,1.9370347 0.104409,0.4657408 -0.605232,1.1778026 0.181951,1 1.606006,0 3.212013,0 4.818019,0 0,-0.6666667 0,-1.3333333 0,-2 -0.7526,-0.18815 -1.5052,-0.3763 -2.2578,-0.56445 -0.138671,-0.3826756 -0.40361,-0.7396543 -0.04712,-1.0747035 0.320406,-0.5343322 0.640812,-1.0686643 0.961218,-1.6029965 -0.471367,-0.4713667 -0.942733,-0.9427333 -1.4141,-1.4141 -0.6647,0.3984333 -1.3294,0.7968667 -1.9941,1.1953 C 16.88402,2.3683754 16.443064,2.3059413 16.45888,1.8158647 16.30782,1.2105798 16.156761,0.60529499 16.005702,1.0088177e-5 c -0.666633,4.002e-5 -1.333487,-8.002e-5 -1.99998,6e-5 z"
     id="path4781-7"
     inkscape:connector-curvature="0" />
  <g
     aria-label="R"
     transform="scale(0.92509248,1.080973)"
     style="font-style:normal;font-variant:normal;font-weight:500;font-stretch:normal;font-size:18.42301178px;line-height:1.25;font-family:'JetBrains Mono';-inkscape-font-specification:'JetBrains Mono Medium';letter-spacing:0px;word-spacing:0px;fill:#e0e0e0;fill-opacity:1;stroke:none;stroke-width:0.69086289"
     id="text814">
    <path
       d="M 0.14331815,0.20304474 H 4.4358799 q 0.9579966,0 1.7317631,0.29476819 0.7921895,0.27634517 1.3448799,0.79218947 0.5526903,0.4974214 0.8474585,1.2343418 0.3131912,0.7184975 0.3131912,1.602802 0,1.3448799 -0.6816514,2.3028765 Q 7.3098697,7.3695963 6.130797,7.7933256 L 8.8574027,13.467613 H 6.5729493 L 4.1042657,8.0696708 H 2.1514264 V 13.467613 H 0.14331815 Z M 2.1514264,6.3747537 h 2.2844535 q 0.9948426,0 1.584379,-0.5895364 0.5895364,-0.6079594 0.5895364,-1.602802 0,-1.0132657 -0.5895364,-1.6212251 Q 5.4307225,1.9532309 4.4358799,1.9532309 H 2.1514264 Z"
       style="fill:#e0e0e0;fill-opacity:1;stroke-width:0.69086289"
       id="path816" />
  </g>
</svg>
