<?xml version="1.0" encoding="UTF-8" standalone="no"?>
<svg
   xmlns:dc="http://purl.org/dc/elements/1.1/"
   xmlns:cc="http://creativecommons.org/ns#"
   xmlns:rdf="http://www.w3.org/1999/02/22-rdf-syntax-ns#"
   xmlns:svg="http://www.w3.org/2000/svg"
   xmlns="http://www.w3.org/2000/svg"
   xmlns:sodipodi="http://sodipodi.sourceforge.net/DTD/sodipodi-0.dtd"
   xmlns:inkscape="http://www.inkscape.org/namespaces/inkscape"
   width="16"
   height="16"
   version="1"
   id="svg16"
   sodipodi:docname="rakugo_menu_h.svg"
   inkscape:version="0.92.3 (2405546, 2018-03-11)">
  <metadata
     id="metadata22">
    <rdf:RDF>
      <cc:Work
         rdf:about="">
        <dc:format>image/svg+xml</dc:format>
        <dc:type
           rdf:resource="http://purl.org/dc/dcmitype/StillImage" />
        <dc:title></dc:title>
      </cc:Work>
    </rdf:RDF>
  </metadata>
  <defs
     id="defs20" />
  <sodipodi:namedview
     pagecolor="#ffffff"
     bordercolor="#666666"
     borderopacity="1"
     objecttolerance="10"
     gridtolerance="10"
     guidetolerance="10"
     inkscape:pageopacity="0"
     inkscape:pageshadow="2"
     inkscape:window-width="1366"
     inkscape:window-height="710"
     id="namedview18"
     showgrid="false"
     inkscape:zoom="14.75"
     inkscape:cx="-3.9661017"
     inkscape:cy="8"
     inkscape:window-x="0"
     inkscape:window-y="28"
     inkscape:window-maximized="1"
     inkscape:current-layer="svg16" />
  <circle
     fill="#ffdd73"
     fill-opacity=".941"
     cx="3.5"
     cy="8.5"
     id="circle8" />
  <circle
     fill="#ffdd73"
     fill-opacity=".941"
     cx="3.5"
     cy="11.5"
     id="circle12" />
  <path
     style="fill:#4789d2"
     inkscape:connector-curvature="0"
     d="m 1.7779,15.9999 h 12.444 c 0.4311,0 0.778,-0.357 0.778,-0.8 v -14.4 c 0,-0.4432 -0.3469,-0.8 -0.7778,-0.8 l -12.444,0 c -0.431,2e-8 -0.778,0.3568 -0.778,0.8 l 0,14.4 c 0,0.4432 0.34689,0.8 0.77779,0.8 z"
     id="path2" />
  <path
     style="fill:#ffdd73;fill-opacity:0.94100001;fill-rule:evenodd"
     inkscape:connector-curvature="0"
     d="m 13.663074,5.389225 a 0.35338,0.35324 0 0 0 -0.2977,0.1394 c -0.4041,0.5176 -0.8258,1.2166 -1.2273,1.8412 l -0.4783,-0.8203 a 0.35359,0.35345 0 1 0 -0.6108,0.3562 l 0.7632,1.3079 a 0.35338,0.35324 0 0 0 0.5979,0.01992 c 0.4967,-0.7368 1.059,-1.6892 1.5123,-2.27 a 0.35338,0.35324 0 0 0 -0.2593,-0.5747 z"
     id="path4" />
  <rect
     style="fill:#ffdd73;fill-opacity:0.94100001"
     width="7"
     height="1"
     x="-8.0676966"
     y="-10.067697"
     rx="0.53799999"
     ry="0.5"
     id="rect10"
     transform="scale(-1)" />
  <rect
     style="fill:#ffdd73;fill-opacity:0.94100001;stroke-width:0.92451149"
     width="5.9830508"
     height="1"
     x="-14.9999"
     y="-9.9998999"
     rx="0.45984018"
     ry="0.5"
     id="rect14"
     transform="scale(-1)" />
</svg>
