<?xml version="1.0" encoding="UTF-8" standalone="no"?>
<svg
   xmlns:dc="http://purl.org/dc/elements/1.1/"
   xmlns:cc="http://creativecommons.org/ns#"
   xmlns:rdf="http://www.w3.org/1999/02/22-rdf-syntax-ns#"
   xmlns:svg="http://www.w3.org/2000/svg"
   xmlns="http://www.w3.org/2000/svg"
   xmlns:sodipodi="http://sodipodi.sourceforge.net/DTD/sodipodi-0.dtd"
   xmlns:inkscape="http://www.inkscape.org/namespaces/inkscape"
   width="16"
   height="16"
   version="1"
   id="svg30"
   sodipodi:docname="rakugo_menu_h.svg"
   inkscape:version="0.92.3 (2405546, 2018-03-11)">
  <metadata
     id="metadata36">
    <rdf:RDF>
      <cc:Work
         rdf:about="">
        <dc:format>image/svg+xml</dc:format>
        <dc:type
           rdf:resource="http://purl.org/dc/dcmitype/StillImage" />
        <dc:title />
      </cc:Work>
    </rdf:RDF>
  </metadata>
  <defs
     id="defs34">
    <filter
       style="color-interpolation-filters:sRGB;"
       inkscape:label="Colorize"
       id="filter34">
      <feComposite
         in2="SourceGraphic"
         operator="arithmetic"
         k1="0"
         k2="2.2"
         result="composite1"
         id="feComposite20" />
      <feColorMatrix
         in="composite1"
         values="1"
         type="saturate"
         result="colormatrix1"
         id="feColorMatrix22" />
      <feFlood
         flood-opacity="1"
         flood-color="rgb(165,239,172)"
         result="flood1"
         id="feFlood24" />
      <feBlend
         in="flood1"
         in2="colormatrix1"
         mode="multiply"
         result="blend1"
         id="feBlend26" />
      <feBlend
         in2="blend1"
         mode="screen"
         result="blend2"
         id="feBlend28" />
      <feColorMatrix
         in="blend2"
         values="1"
         type="saturate"
         result="colormatrix2"
         id="feColorMatrix30" />
      <feComposite
         in="colormatrix2"
         in2="SourceGraphic"
         operator="in"
         k2="1"
         result="composite2"
         id="feComposite32" />
    </filter>
  </defs>
  <sodipodi:namedview
     pagecolor="#ffffff"
     bordercolor="#666666"
     borderopacity="1"
     objecttolerance="10"
     gridtolerance="10"
     guidetolerance="10"
     inkscape:pageopacity="0"
     inkscape:pageshadow="2"
     inkscape:window-width="1366"
     inkscape:window-height="703"
     id="namedview32"
     showgrid="false"
     inkscape:zoom="20.85965"
     inkscape:cx="11.983019"
     inkscape:cy="9.9213737"
     inkscape:window-x="0"
     inkscape:window-y="40"
     inkscape:window-maximized="1"
     inkscape:current-layer="svg30"
     inkscape:pagecheckerboard="true" />
  <g
     id="g874"
     transform="matrix(0.51089588,0,0,0.65218298,0.02905572,-2.7356999)"
     style="filter:url(#filter34)">
    <rect
       id="rect2"
       transform="matrix(0,-1,-1,0,0,0)"
       ry="1.5"
       rx="1.5"
       y="-30"
       x="-27"
       height="28"
       width="22"
       style="fill:#325f78" />
    <rect
       id="rect4"
       transform="matrix(0,-1,-1,0,0,0)"
       ry="0"
       rx="0"
       y="-28"
       x="-25"
       height="24"
       width="18"
       style="opacity:0.2" />
    <path
       id="path16"
       d="m 3.5,4.9994 c -0.831,0 -1.5,0.669 -1.5,1.5 v 1 c 0,-0.831 0.669,-1.5 1.5,-1.5 h 25 c 0.831,0 1.5,0.669 1.5,1.5 v -1 c 0,-0.831 -0.669,-1.5 -1.5,-1.5 z"
       inkscape:connector-curvature="0"
       style="opacity:0.1;fill:#ffffff" />
    <g
       transform="translate(0,-8.034112)"
       id="g859">
      <path
         inkscape:connector-curvature="0"
         id="path6"
         d="m 6.6667,23.068224 h 2.66668 c 0.3693352,0 0.66667,0.143595 0.66667,0.321963 v 1.28785 C 10.00005,24.856404 9.7027152,25 9.33338,25 H 6.6667 C 6.2973648,25 6.00003,24.856404 6.00003,24.678037 v -1.28785 c 0,-0.178368 0.2973348,-0.321963 0.66667,-0.321963 z"
         style="opacity:0.5;stroke-width:0.46329561" />
      <path
         inkscape:connector-curvature="0"
         id="path8"
         d="m 12.00006,23.068224 h 2.66668 c 0.369335,0 0.66667,0.143595 0.66667,0.321963 v 1.28785 C 15.33341,24.856404 15.036075,25 14.66674,25 h -2.66668 c -0.369335,0 -0.66667,-0.143596 -0.66667,-0.321963 v -1.28785 c 0,-0.178368 0.297335,-0.321963 0.66667,-0.321963 z"
         style="opacity:0.5;stroke-width:0.46329561" />
      <path
         inkscape:connector-curvature="0"
         id="path10"
         d="m 17.33342,23.068224 h 2.66668 c 0.369335,0 0.66667,0.143595 0.66667,0.321963 v 1.28785 C 20.66677,24.856404 20.369435,25 20.0001,25 h -2.66668 c -0.369335,0 -0.66667,-0.143596 -0.66667,-0.321963 v -1.28785 c 0,-0.178368 0.297335,-0.321963 0.66667,-0.321963 z"
         style="opacity:0.5;stroke-width:0.46329561" />
      <path
         inkscape:connector-curvature="0"
         id="path12"
         d="m 22.66678,23.068224 h 2.66668 c 0.369335,0 0.66667,0.143595 0.66667,0.321963 v 1.28785 C 26.00013,24.856404 25.702795,25 25.33346,25 h -2.66668 c -0.369335,0 -0.66667,-0.143596 -0.66667,-0.321963 v -1.28785 c 0,-0.178368 0.297335,-0.321963 0.66667,-0.321963 z"
         style="opacity:0.5;stroke-width:0.46329561" />
      <path
         style="fill:#ffffff;stroke-width:0.32178327"
         inkscape:connector-curvature="0"
         id="path18"
         d="m 6.6667,23.068224 h 2.66668 c 0.3693352,0 0.66667,0.06927 0.66667,0.155316 v 0.621264 c 0,0.08604 -0.2973348,0.155316 -0.66667,0.155316 H 6.6667 c -0.3693352,0 -0.66667,-0.06927 -0.66667,-0.155316 V 23.22354 c 0,-0.08604 0.2973348,-0.155316 0.66667,-0.155316 z" />
      <path
         style="fill:#ffffff;stroke-width:0.32178327"
         inkscape:connector-curvature="0"
         id="path20"
         d="m 12.00006,23.068224 h 2.66668 c 0.369335,0 0.66667,0.06927 0.66667,0.155316 v 0.621264 c 0,0.08604 -0.297335,0.155316 -0.66667,0.155316 h -2.66668 c -0.369335,0 -0.66667,-0.06927 -0.66667,-0.155316 V 23.22354 c 0,-0.08604 0.297335,-0.155316 0.66667,-0.155316 z" />
      <path
         style="fill:#ffffff;stroke-width:0.32178327"
         inkscape:connector-curvature="0"
         id="path22"
         d="m 17.33342,23.068224 h 2.66668 c 0.369335,0 0.66667,0.06927 0.66667,0.155316 v 0.621264 c 0,0.08604 -0.297335,0.155316 -0.66667,0.155316 h -2.66668 c -0.369335,0 -0.66667,-0.06927 -0.66667,-0.155316 V 23.22354 c 0,-0.08604 0.297335,-0.155316 0.66667,-0.155316 z" />
      <path
         style="fill:#ffffff;stroke-width:0.32178327"
         inkscape:connector-curvature="0"
         id="path24"
         d="m 22.66678,23.068224 h 2.66668 c 0.369335,0 0.66667,0.06927 0.66667,0.155316 v 0.621264 c 0,0.08604 -0.297335,0.155316 -0.66667,0.155316 h -2.66668 c -0.369335,0 -0.66667,-0.06927 -0.66667,-0.155316 V 23.22354 c 0,-0.08604 0.297335,-0.155316 0.66667,-0.155316 z" />
    </g>
    <path
       id="path28"
       d="m 2,25.5 v 1 C 2,27.331 2.669,28 3.5,28 h 25 c 0.831,0 1.5,-0.669 1.5,-1.5 v -1 C 30,26.331 29.331,27 28.5,27 H 3.5 C 2.669,27 2,26.331 2,25.5 Z"
       inkscape:connector-curvature="0"
       style="opacity:0.2" />
  </g>
</svg>
