<?xml version="1.0" encoding="UTF-8" standalone="no"?>
<svg
   xmlns:dc="http://purl.org/dc/elements/1.1/"
   xmlns:cc="http://creativecommons.org/ns#"
   xmlns:rdf="http://www.w3.org/1999/02/22-rdf-syntax-ns#"
   xmlns:svg="http://www.w3.org/2000/svg"
   xmlns="http://www.w3.org/2000/svg"
   xmlns:sodipodi="http://sodipodi.sourceforge.net/DTD/sodipodi-0.dtd"
   xmlns:inkscape="http://www.inkscape.org/namespaces/inkscape"
   width="16"
   height="16"
   version="1"
   id="svg6"
   sodipodi:docname="ren_panel.svg"
   inkscape:version="0.92.3 (2405546, 2018-03-11)">
  <metadata
     id="metadata12">
    <rdf:RDF>
      <cc:Work
         rdf:about="">
        <dc:format>image/svg+xml</dc:format>
        <dc:type
           rdf:resource="http://purl.org/dc/dcmitype/StillImage" />
        <dc:title />
      </cc:Work>
    </rdf:RDF>
  </metadata>
  <defs
     id="defs10" />
  <sodipodi:namedview
     pagecolor="#ffffff"
     bordercolor="#666666"
     borderopacity="1"
     objecttolerance="10"
     gridtolerance="10"
     guidetolerance="10"
     inkscape:pageopacity="0"
     inkscape:pageshadow="2"
     inkscape:window-width="1366"
     inkscape:window-height="710"
     id="namedview8"
     showgrid="false"
     inkscape:zoom="14.75"
     inkscape:cx="-3.9661017"
     inkscape:cy="8"
     inkscape:window-x="0"
     inkscape:window-y="28"
     inkscape:window-maximized="1"
     inkscape:current-layer="svg6" />
  <path
     fill="#02a8f3"
     d="m0.88892 1c-0.49249 0-0.88892 0.3903-0.88892 0.875v10.125c0 0.48475 0.39669 0.98462 0.88892 1h8.1111l1.5 2 1.5-2h3.1117c0.492 0 0.888-0.515 0.888-1v-10.125c0-0.4847-0.396-0.875-0.889-0.875z"
     id="path2" />
  <path
     style="fill:#325f78;stroke-width:0.78017765"
     d="M 6.6428424,1.3486141 C 6.4939125,1.3617648 6.3613629,1.4614616 6.3341057,1.5809671 L 6.1522025,2.3336789 A 5.9811355,4.9865419 0 0 0 4.0761615,3.3507443 L 3.1082316,3.0849993 C 2.9565672,3.0426136 2.7724497,3.09809 2.6910207,3.2102199 L 1.2875234,5.1873054 C 1.2083994,5.3009922 1.2422714,5.4583453 1.3642904,5.543487 L 2.2020502,6.1403688 A 5.9811355,4.9865419 0 0 0 2.0985825,7.0475191 5.9811355,4.9865419 0 0 0 2.2020502,7.9560606 l -0.83776,0.5968819 C 1.2422833,8.6380816 1.2083963,8.7954393 1.2875226,8.9091242 l 1.4034976,1.9756968 c 0.081468,0.112101 0.2655806,0.16764 0.4172107,0.125231 l 0.9679306,-0.265757 a 5.9811355,4.9865419 0 0 0 2.076041,1.018457 l 0.1819032,0.752713 c 0.029991,0.127509 0.1802353,0.229535 0.3404451,0.230961 h 2.8103323 c 0.160123,-0.0013 0.310538,-0.103448 0.340443,-0.230961 L 10.00723,11.761362 a 5.9811355,4.9865419 0 0 0 2.076043,-1.017067 l 0.967928,0.265747 c 0.15163,0.04241 0.335749,-0.01318 0.417211,-0.125231 L 14.87191,8.9091142 C 14.95103,8.7954354 14.91715,8.6380737 14.79514,8.5529325 L 13.957378,7.9560505 A 5.9811355,4.9865419 0 0 0 14.060841,7.0475092 5.9811355,4.9865419 0 0 0 13.957378,6.1389678 l 0.83776,-0.5954907 c 0.122,-0.085141 0.15589,-0.2424957 0.07677,-0.3561818 L 13.468412,3.2102194 C 13.387241,3.0979516 13.203292,3.042613 13.051201,3.0849988 L 12.083273,3.3507443 A 5.9811355,4.9865419 0 0 0 10.00723,2.3322875 L 9.8253261,1.5795756 C 9.7954211,1.4518988 9.6449211,1.3503665 9.4848831,1.3486141 H 6.6745508 c -0.011001,-2.076e-4 -0.020778,-2.076e-4 -0.031708,0 z m 1.436874,2.8494527 c 1.8874747,0 3.4177926,1.275771 3.4177926,2.8494523 0,1.5736106 -1.5303179,2.8494527 -3.4177926,2.8494527 -1.8875605,0 -3.4177913,-1.2758421 -3.4177913,-2.8494527 0,-1.5736813 1.5302308,-2.8494523 3.4177913,-2.8494523 z"
     id="path2-6"
     inkscape:connector-curvature="0" />
</svg>
