<?xml version="1.0" encoding="UTF-8" standalone="no"?>
<svg
   xmlns:dc="http://purl.org/dc/elements/1.1/"
   xmlns:cc="http://creativecommons.org/ns#"
   xmlns:rdf="http://www.w3.org/1999/02/22-rdf-syntax-ns#"
   xmlns:svg="http://www.w3.org/2000/svg"
   xmlns="http://www.w3.org/2000/svg"
   xmlns:sodipodi="http://sodipodi.sourceforge.net/DTD/sodipodi-0.dtd"
   xmlns:inkscape="http://www.inkscape.org/namespaces/inkscape"
   width="16"
   height="16"
   version="1"
   id="svg14"
   sodipodi:docname="rakugo_root_node2d.svg"
   inkscape:version="0.92.3 (2405546, 2018-03-11)">
  <metadata
     id="metadata20">
    <rdf:RDF>
      <cc:Work
         rdf:about="">
        <dc:format>image/svg+xml</dc:format>
        <dc:type
           rdf:resource="http://purl.org/dc/dcmitype/StillImage" />
        <dc:title></dc:title>
      </cc:Work>
    </rdf:RDF>
  </metadata>
  <defs
     id="defs18" />
  <sodipodi:namedview
     pagecolor="#ffffff"
     bordercolor="#666666"
     borderopacity="1"
     objecttolerance="10"
     gridtolerance="10"
     guidetolerance="10"
     inkscape:pageopacity="0"
     inkscape:pageshadow="2"
     inkscape:window-width="1366"
     inkscape:window-height="708"
     id="namedview16"
     showgrid="false"
     inkscape:pagecheckerboard="true"
     inkscape:zoom="20.85965"
     inkscape:cx="17.387501"
     inkscape:cy="5.1861276"
     inkscape:window-x="0"
     inkscape:window-y="32"
     inkscape:window-maximized="1"
     inkscape:current-layer="svg14" />
  <path
     style="fill:#a5b7f3;fill-rule:evenodd;stroke-width:0.46141639;fill-opacity:1"
     d="M 2.3976257,0.1721594 0.9453656,1.3451655 3.5611543,3.4599279 A 3.0776095,2.4904337 0 0 0 3.3543044,4.3614667 3.0776095,2.4904337 0 0 0 5.4055663,6.7074784 V 10.732564 A 3.0776095,2.4904337 0 0 0 3.3543044,13.078578 3.0776095,2.4904337 0 0 0 6.4311972,15.5687 3.0776095,2.4904337 0 0 0 9.5080878,13.078578 3.0776095,2.4904337 0 0 0 7.4568259,10.732564 V 6.7074784 a 3.0776095,2.4904337 0 0 0 0.086188,-0.023457 L 9.2064314,8.0279511 A 3.0776095,2.4904337 0 0 0 8.9952723,8.9294906 3.0776095,2.4904337 0 0 0 12.072165,11.419615 3.0776095,2.4904337 0 0 0 15.149054,8.9294906 3.0776095,2.4904337 0 0 0 12.072165,6.436015 3.0776095,2.4904337 0 0 0 10.546646,6.7678075 L 9.0986973,5.5948022 A 3.0776095,2.4904337 0 0 0 9.5080878,4.3614702 3.0776095,2.4904337 0 0 0 6.4311972,1.8713458 3.0776095,2.4904337 0 0 0 4.9056781,2.1997877 Z"
     id="path6"
     inkscape:connector-curvature="0" />
</svg>
