<?xml version="1.0" encoding="UTF-8" standalone="no"?>
<!-- Created with Inkscape (http://www.inkscape.org/) -->

<svg
   xmlns:dc="http://purl.org/dc/elements/1.1/"
   xmlns:cc="http://creativecommons.org/ns#"
   xmlns:rdf="http://www.w3.org/1999/02/22-rdf-syntax-ns#"
   xmlns:svg="http://www.w3.org/2000/svg"
   xmlns="http://www.w3.org/2000/svg"
   xmlns:sodipodi="http://sodipodi.sourceforge.net/DTD/sodipodi-0.dtd"
   xmlns:inkscape="http://www.inkscape.org/namespaces/inkscape"
   width="16"
   height="16"
   viewBox="0 0 16 16"
   id="svg2"
   version="1.1"
   inkscape:version="0.92.3 (2405546, 2018-03-11)"
   inkscape:export-filename="/home/djrm/Projects/godot/tools/editor/icons/icon_button.png"
   inkscape:export-xdpi="90"
   inkscape:export-ydpi="90"
   sodipodi:docname="rakugo_save_button.svg">
  <defs
     id="defs4" />
  <sodipodi:namedview
     id="base"
     pagecolor="#ffffff"
     bordercolor="#666666"
     borderopacity="1.0"
     inkscape:pageopacity="0.0"
     inkscape:pageshadow="2"
     inkscape:zoom="32"
     inkscape:cx="12.204674"
     inkscape:cy="5.9786527"
     inkscape:document-units="px"
     inkscape:current-layer="layer1"
     showgrid="true"
     units="px"
     inkscape:snap-bbox="true"
     inkscape:bbox-paths="true"
     inkscape:bbox-nodes="true"
     inkscape:snap-bbox-edge-midpoints="true"
     inkscape:snap-bbox-midpoints="true"
     inkscape:snap-object-midpoints="true"
     inkscape:snap-center="true"
     inkscape:window-width="1366"
     inkscape:window-height="708"
     inkscape:window-x="0"
     inkscape:window-y="32"
     inkscape:window-maximized="1"
     inkscape:document-rotation="0"
     inkscape:pagecheckerboard="true">
    <inkscape:grid
       type="xygrid"
       id="grid3336"
       empspacing="4" />
  </sodipodi:namedview>
  <metadata
     id="metadata7">
    <rdf:RDF>
      <cc:Work
         rdf:about="">
        <dc:format>image/svg+xml</dc:format>
        <dc:type
           rdf:resource="http://purl.org/dc/dcmitype/StillImage" />
        <dc:title></dc:title>
      </cc:Work>
    </rdf:RDF>
  </metadata>
  <g
     inkscape:label="Layer 1"
     inkscape:groupmode="layer"
     id="layer1"
     transform="translate(0,-1036.3622)">
    <path
       sodipodi:nodetypes="cccccccccccccssccccccsss"
       inkscape:connector-curvature="0"
       id="path844"
       d="m 16,1039.3622 c -6,8 -3,4 0,0 z m -5,-1 v 3.1328 l -1.445312,-0.9648 -1.109375,1.664 3,2 c 0.335901,0.2239 0.773473,0.2239 1.109375,0 l 3,-2 -1.109375,-1.664 L 13,1041.495 v -3.1328 z m -0.5,8 c -0.831,0 -1.5,0.669 -1.5,1.5 v 0.5 H 8 v 2 h 8 v -2 h -1 v -0.5 c 0,-0.831 -0.669,-1.5 -1.5,-1.5 z"
       style="fill:#a5efac;fill-opacity:1;stroke:none;stroke-width:2;stroke-linecap:round;stroke-linejoin:round;stroke-miterlimit:4;stroke-dasharray:none;stroke-opacity:1" />
    <g
       aria-label="S"
       transform="scale(0.95229389,1.050096)"
       style="font-style:normal;font-variant:normal;font-weight:500;font-stretch:normal;font-size:15.44258785px;line-height:1.25;font-family:'JetBrains Mono';-inkscape-font-specification:'JetBrains Mono Medium';letter-spacing:0px;word-spacing:0px;fill:#a5efac;fill-opacity:1;stroke:none;stroke-width:0.57909709"
       id="text898">
      <path
         d="m 4.200384,1000.2535 q -0.8030146,0 -1.4670459,-0.2161 -0.6640313,-0.21625 -1.1581941,-0.60231 -0.4787202,-0.40151 -0.75668677,-0.97288 -0.27796658,-0.57138 -0.29340917,-1.2663 H 2.2700605 q 0.030885,0.72581 0.5713757,1.14276 0.5559332,0.41695 1.3898329,0.41695 0.9111127,0 1.4207181,-0.40151 0.525048,-0.41695 0.525048,-1.12731 0,-0.6177 -0.3860647,-1.08098 -0.3860647,-0.46328 -1.0964237,-0.69492 l -1.1736367,-0.38606 q -2.73333805,-0.86479 -2.73333805,-3.21206 0,-1.40528 0.91111265,-2.20829 0.9265553,-0.81846 2.548027,-0.81846 0.7566868,0 1.3743903,0.2162 0.6331462,0.20075 1.0809812,0.58682 0.4632776,0.38606 0.7258016,0.94199 0.2779666,0.55594 0.2934092,1.25085 H 5.9762816 q -0.015443,-0.69491 -0.525048,-1.09642 -0.4941628,-0.41695 -1.235407,-0.41695 -0.8030146,0 -1.2662922,0.38607 -0.4632777,0.38606 -0.4632777,1.03465 0,0.60226 0.3397369,1.01921 0.3551796,0.40151 1.1118664,0.64859 l 1.235407,0.38606 q 1.3280626,0.40151 2.0075364,1.28174 0.6949165,0.86478 0.6949165,2.08475 0,0.71036 -0.262524,1.28173 -0.2470814,0.57138 -0.7258016,0.97288 -0.4787203,0.40151 -1.1581941,0.6332 -0.6794739,0.2161 -1.5288162,0.2161 z"
         style="fill:#a5efac;fill-opacity:1;stroke-width:0.57909709"
         id="path922" />
    </g>
  </g>
</svg>
