<?xml version="1.0" encoding="UTF-8" standalone="no"?>
<svg
   xmlns:dc="http://purl.org/dc/elements/1.1/"
   xmlns:cc="http://creativecommons.org/ns#"
   xmlns:rdf="http://www.w3.org/1999/02/22-rdf-syntax-ns#"
   xmlns:svg="http://www.w3.org/2000/svg"
   xmlns="http://www.w3.org/2000/svg"
   xmlns:sodipodi="http://sodipodi.sourceforge.net/DTD/sodipodi-0.dtd"
   xmlns:inkscape="http://www.inkscape.org/namespaces/inkscape"
   width="16"
   height="16"
   version="1"
   id="svg24"
   sodipodi:docname="rakugo_progress_bar.svg"
   inkscape:version="0.92.3 (2405546, 2018-03-11)">
  <metadata
     id="metadata30">
    <rdf:RDF>
      <cc:Work
         rdf:about="">
        <dc:format>image/svg+xml</dc:format>
        <dc:type
           rdf:resource="http://purl.org/dc/dcmitype/StillImage" />
        <dc:title></dc:title>
      </cc:Work>
    </rdf:RDF>
  </metadata>
  <defs
     id="defs28">
    <filter
       style="color-interpolation-filters:sRGB;"
       inkscape:label="Colorize"
       id="filter29">
      <feComposite
         in2="SourceGraphic"
         operator="arithmetic"
         k1="0"
         k2="2.2"
         result="composite1"
         id="feComposite15" />
      <feColorMatrix
         in="composite1"
         values="1"
         type="saturate"
         result="colormatrix1"
         id="feColorMatrix17" />
      <feFlood
         flood-opacity="1"
         flood-color="rgb(165,239,172)"
         result="flood1"
         id="feFlood19" />
      <feBlend
         in="flood1"
         in2="colormatrix1"
         mode="multiply"
         result="blend1"
         id="feBlend21" />
      <feBlend
         in2="blend1"
         mode="screen"
         result="blend2"
         id="feBlend23" />
      <feColorMatrix
         in="blend2"
         values="1"
         type="saturate"
         result="colormatrix2"
         id="feColorMatrix25" />
      <feComposite
         in="colormatrix2"
         in2="SourceGraphic"
         operator="in"
         k2="1"
         result="composite2"
         id="feComposite27" />
    </filter>
  </defs>
  <sodipodi:namedview
     pagecolor="#ffffff"
     bordercolor="#666666"
     borderopacity="1"
     objecttolerance="10"
     gridtolerance="10"
     guidetolerance="10"
     inkscape:pageopacity="0"
     inkscape:pageshadow="2"
     inkscape:window-width="1366"
     inkscape:window-height="700"
     id="namedview26"
     showgrid="false"
     inkscape:zoom="29.5"
     inkscape:cx="7.7678406"
     inkscape:cy="8.4852992"
     inkscape:window-x="0"
     inkscape:window-y="40"
     inkscape:window-maximized="1"
     inkscape:current-layer="svg24"
     inkscape:pagecheckerboard="true" />
  <g
     transform="matrix(0.81840194,0,0,1,3.6053265,-1036.7689)"
     id="layer1"
     inkscape:label="Layer 1">
    <path
       id="rect4140"
       transform="translate(0,1036.3622)"
       d="M 3,3 C 1.8954305,3 1,3.8954305 1,5 v 6 c 0,1.104569 0.8954305,2 2,2 h 10 c 1.104569,0 2,-0.895431 2,-2 V 5 C 15,3.8954305 14.104569,3 13,3 Z m 0,2 h 10 v 6 H 3 Z m 1,1 v 4 H 5 V 6 Z m 2,0 v 4 H 7 V 6 Z m 2,0 v 4 H 9 V 6 Z"
       style="opacity:1;fill:#a5efac;fill-opacity:1;stroke:none;stroke-width:2;stroke-linecap:round;stroke-linejoin:miter;stroke-miterlimit:4;stroke-dasharray:none;stroke-dashoffset:0;stroke-opacity:1"
       inkscape:connector-curvature="0" />
  </g>
  <g
     aria-label="R"
     transform="scale(0.77425904,1.2915574)"
     style="font-style:normal;font-variant:normal;font-weight:500;font-stretch:normal;font-size:11.21290302px;line-height:1.25;font-family:'JetBrains Mono';-inkscape-font-specification:'JetBrains Mono Medium';letter-spacing:0px;word-spacing:0px;fill:#a5efac;fill-opacity:1;stroke:none;stroke-width:0.28032258"
     id="text33">
    <path
       d="M 0.12083717,1.9527089 H 2.7334436 q 0.5830709,0 1.0540129,0.1794064 0.4821548,0.1681936 0.8185419,0.4821549 0.3363871,0.3027484 0.5157935,0.7512645 0.1906194,0.4373032 0.1906194,0.9755225 0,0.818542 -0.4148774,1.4016129 -0.4148775,0.5718581 -1.1325032,0.8297548 l 1.6595096,3.4535741 h -1.3904 L 2.5316113,6.7406185 H 1.3430436 V 10.025999 H 0.12083717 Z M 1.3430436,5.7090314 h 1.3904 q 0.6054967,0 0.9643096,-0.3588129 0.3588129,-0.3700258 0.3588129,-0.9755226 0,-0.6167096 -0.3588129,-0.9867354 Q 3.3389403,3.0179347 2.7334436,3.0179347 h -1.3904 z"
       style="fill:#a5efac;fill-opacity:1;stroke-width:0.28032258"
       id="path823" />
  </g>
</svg>
