<?xml version="1.0" encoding="UTF-8" standalone="no"?>
<svg
   xmlns:dc="http://purl.org/dc/elements/1.1/"
   xmlns:cc="http://creativecommons.org/ns#"
   xmlns:rdf="http://www.w3.org/1999/02/22-rdf-syntax-ns#"
   xmlns:svg="http://www.w3.org/2000/svg"
   xmlns="http://www.w3.org/2000/svg"
   xmlns:sodipodi="http://sodipodi.sourceforge.net/DTD/sodipodi-0.dtd"
   xmlns:inkscape="http://www.inkscape.org/namespaces/inkscape"
   width="16"
   height="16"
   version="1"
   id="svg6"
   sodipodi:docname="rakugo_panel.svg"
   inkscape:version="0.92.3 (2405546, 2018-03-11)">
  <metadata
     id="metadata12">
    <rdf:RDF>
      <cc:Work
         rdf:about="">
        <dc:format>image/svg+xml</dc:format>
        <dc:type
           rdf:resource="http://purl.org/dc/dcmitype/StillImage" />
        <dc:title />
      </cc:Work>
    </rdf:RDF>
  </metadata>
  <defs
     id="defs10" />
  <sodipodi:namedview
     pagecolor="#ffffff"
     bordercolor="#666666"
     borderopacity="1"
     objecttolerance="10"
     gridtolerance="10"
     guidetolerance="10"
     inkscape:pageopacity="0"
     inkscape:pageshadow="2"
     inkscape:window-width="1366"
     inkscape:window-height="720"
     id="namedview8"
     showgrid="false"
     inkscape:zoom="10.429825"
     inkscape:cx="-11.921498"
     inkscape:cy="11.142994"
     inkscape:window-x="0"
     inkscape:window-y="48"
     inkscape:window-maximized="1"
     inkscape:current-layer="svg6"
     inkscape:snap-global="false" />
  <g
     id="g23"
     transform="matrix(0.53772681,0,0,0.61648446,10.466138,6.2944612)">
    <path
       id="path2-3"
       d="m -16.663072,-8.5874679 c -0.861857,0 -1.555599,0.6668943 -1.555599,1.5200154 V 11.112686 c 0,0.853457 0.693745,1.302276 1.555599,1.299846 h 14.124603 l 3.36006703,3 2.80005597,-3 h 4.605084 c 0.861297,0 1.554591,-0.446389 1.554591,-1.299846 V -7.0674525 c 0,-0.8531211 -0.693294,-1.5200154 -1.555711,-1.5200154 z"
       style="opacity:0.2"
       inkscape:connector-curvature="0" />
    <path
       id="path4"
       style="fill:#02a8f3"
       d="m -16.663072,-9.5874679 c -0.861857,0 -1.555599,0.6668943 -1.555599,1.5200154 V 10.112686 c 0,0.853457 0.693745,1.302276 1.555599,1.299846 h 14.124603 l 3.36006703,3 2.80005597,-3 h 4.605084 c 0.861297,0 1.554591,-0.446389 1.554591,-1.299846 V -8.0674525 c 0,-0.8531211 -0.693294,-1.5200154 -1.555711,-1.5200154 z"
       inkscape:connector-curvature="0" />
    <path
       id="path8"
       d="m -16.663983,-9.5874679 c -0.861858,0 -1.554688,0.6664101 -1.554688,1.5195312 v 1 c 0,-0.8531211 0.69283,-1.5195312 1.554688,-1.5195312 H 8.224688 c 0.862417,0 1.556641,0.6664101 1.556641,1.5195312 v -1 c 0,-0.8531211 -0.694224,-1.5195312 -1.556641,-1.5195312 z"
       style="opacity:0.2;fill:#ffffff"
       inkscape:connector-curvature="0" />
  </g>
  <path
     style="fill:#325f78;stroke-width:0.7487725"
     d="m 7.0691217,1.4444904 c -0.1395286,0.01293 -0.263711,0.110949 -0.2892476,0.2284439 L 6.6094537,2.4129827 A 5.6035733,4.9026491 0 0 0 4.6644638,3.4129371 L 3.757635,3.151663 C 3.6155444,3.1099903 3.4430495,3.1645334 3.3667607,3.2747769 L 2.0518599,5.2186002 c -0.07413,0.1117738 -0.042395,0.26648 0.071921,0.3501893 l 0.7848757,0.5868398 a 5.6035733,4.9026491 0 0 0 -0.096936,0.8918885 5.6035733,4.9026491 0 0 0 0.096936,0.8932565 l -0.784876,0.58684 c -0.114305,0.083707 -0.1460528,0.238417 -0.071921,0.3501893 l 1.3149006,1.9424584 c 0.076326,0.110212 0.2488157,0.16482 0.3908741,0.123124 L 4.6644638,10.6821 a 5.6035733,4.9026491 0 0 0 1.9449899,1.001323 l 0.1704204,0.740049 c 0.028097,0.125363 0.1688579,0.225673 0.3189544,0.227075 h 2.6329286 c 0.1500141,-0.0012 0.2909339,-0.101701 0.3189529,-0.227075 l 0.17042,-0.741416 A 5.6035733,4.9026491 0 0 0 12.166123,10.6821 l 0.906827,0.261277 c 0.142058,0.04171 0.314554,-0.01296 0.390873,-0.123125 l 1.314902,-1.9424583 c 0.07413,-0.1117664 0.04238,-0.2664805 -0.07192,-0.3501893 L 13.921928,7.9407642 a 5.6035733,4.9026491 0 0 0 0.09693,-0.8932561 5.6035733,4.9026491 0 0 0 -0.09693,-0.8932562 l 0.784876,-0.5854723 c 0.114299,-0.083708 0.146049,-0.2384159 0.07192,-0.3501894 L 13.463823,3.2747764 C 13.387776,3.1643973 13.215439,3.1099897 13.07295,3.1516624 L 12.166123,3.4129371 A 5.6035733,4.9026491 0 0 0 10.22113,2.4116147 L 10.05071,1.6715662 C 10.022691,1.5460375 9.8816922,1.4462134 9.7317571,1.4444904 H 7.0988285 c -0.010303,-2.041e-4 -0.019466,-2.041e-4 -0.029707,0 z m 1.3461706,2.8015139 c 1.7683267,0 3.2020427,1.2543076 3.2020427,2.8015135 0,1.5471364 -1.433716,2.8015137 -3.2020427,2.8015137 -1.7684073,0 -3.2020415,-1.2543773 -3.2020415,-2.8015137 0,-1.5472059 1.4336342,-2.8015135 3.2020415,-2.8015135 z"
     id="path2-6"
     inkscape:connector-curvature="0" />
  <path
     inkscape:connector-curvature="0"
     id="path25"
     d="m 7.0691217,1.4444904 c -0.1395286,0.01293 -0.263711,0.110949 -0.2892476,0.2284439 L 6.6094537,2.4129827 A 5.6035733,4.9026491 0 0 0 4.6644638,3.4129371 L 3.757635,3.151663 C 3.6155444,3.1099903 3.4430495,3.1645334 3.3667607,3.2747769 L 2.0518599,5.2186002 c -0.07413,0.1117738 -0.042395,0.26648 0.071921,0.3501893 l 0.7848757,0.5868398 a 5.6035733,4.9026491 0 0 0 -0.096936,0.8918885 5.6035733,4.9026491 0 0 0 0.096936,0.8932565 l -0.784876,0.58684 c -0.114305,0.083707 -0.1460528,0.238417 -0.071921,0.3501893 l 1.3149006,1.9424584 c 0.076326,0.110212 0.2488157,0.16482 0.3908741,0.123124 L 4.6644638,10.6821 a 5.6035733,4.9026491 0 0 0 1.9449899,1.001323 l 0.1704204,0.740049 c 0.028097,0.125363 0.1688579,0.225673 0.3189544,0.227075 h 2.6329286 c 0.1500141,-0.0012 0.2909339,-0.101701 0.3189529,-0.227075 l 0.17042,-0.741416 A 5.6035733,4.9026491 0 0 0 12.166123,10.6821 l 0.906827,0.261277 c 0.142058,0.04171 0.314554,-0.01296 0.390873,-0.123125 l 1.314902,-1.9424583 c 0.07413,-0.1117664 0.04238,-0.2664805 -0.07192,-0.3501893 L 13.921928,7.9407642 a 5.6035733,4.9026491 0 0 0 0.09693,-0.8932561 5.6035733,4.9026491 0 0 0 -0.09693,-0.8932562 l 0.784876,-0.5854723 c 0.114299,-0.083708 0.146049,-0.2384159 0.07192,-0.3501894 L 13.463823,3.2747764 C 13.387776,3.1643973 13.215439,3.1099897 13.07295,3.1516624 L 12.166123,3.4129371 A 5.6035733,4.9026491 0 0 0 10.22113,2.4116147 L 10.05071,1.6715662 C 10.022691,1.5460375 9.8816922,1.4462134 9.7317571,1.4444904 H 7.0988285 c -0.010303,-2.041e-4 -0.019466,-2.041e-4 -0.029707,0 z m 1.3461706,2.8015139 c 1.7683267,0 3.2020427,1.2543076 3.2020427,2.8015135 0,1.5471364 -1.433716,2.8015137 -3.2020427,2.8015137 -1.7684073,0 -3.2020415,-1.2543773 -3.2020415,-2.8015137 0,-1.5472059 1.4336342,-2.8015135 3.2020415,-2.8015135 z"
     style="fill:#325f78;stroke-width:0.7487725" />
</svg>
