<?xml version="1.0" encoding="UTF-8" standalone="no"?>
<svg
   xmlns:dc="http://purl.org/dc/elements/1.1/"
   xmlns:cc="http://creativecommons.org/ns#"
   xmlns:rdf="http://www.w3.org/1999/02/22-rdf-syntax-ns#"
   xmlns:svg="http://www.w3.org/2000/svg"
   xmlns="http://www.w3.org/2000/svg"
   xmlns:sodipodi="http://sodipodi.sourceforge.net/DTD/sodipodi-0.dtd"
   xmlns:inkscape="http://www.inkscape.org/namespaces/inkscape"
   width="16"
   height="16"
   version="1"
   id="svg16"
   sodipodi:docname="rakugo_character.svg"
   inkscape:version="0.92.3 (2405546, 2018-03-11)">
  <metadata
     id="metadata22">
    <rdf:RDF>
      <cc:Work
         rdf:about="">
        <dc:format>image/svg+xml</dc:format>
        <dc:type
           rdf:resource="http://purl.org/dc/dcmitype/StillImage" />
        <dc:title />
      </cc:Work>
    </rdf:RDF>
  </metadata>
  <defs
     id="defs20" />
  <sodipodi:namedview
     pagecolor="#ffffff"
     bordercolor="#666666"
     borderopacity="1"
     objecttolerance="10"
     gridtolerance="10"
     guidetolerance="10"
     inkscape:pageopacity="0"
     inkscape:pageshadow="2"
     inkscape:window-width="1366"
     inkscape:window-height="703"
     id="namedview18"
     showgrid="false"
     inkscape:pagecheckerboard="true"
     inkscape:zoom="20.85965"
     inkscape:cx="-0.34569668"
     inkscape:cy="7.3929953"
     inkscape:window-x="0"
     inkscape:window-y="40"
     inkscape:window-maximized="1"
     inkscape:current-layer="svg16" />
  <path
     style="opacity:0.2;stroke-width:0.2791023"
     d="m 0.12043615,7.9319467 c -0.003333,0.092191 -0.0143371,0.1827252 -0.0143371,0.2760199 0,4.2816204 3.52435255,7.7285564 7.90213615,7.7285564 4.3777828,0 7.9021358,-3.446936 7.9021358,-7.7285564 0,-0.093206 -0.01102,-0.1836306 -0.01433,-0.2760199 -0.14901,4.1518913 -3.605631,7.4525383 -7.8880241,7.4525383 -4.2825063,0 -7.73901338,-3.300647 -7.88802512,-7.4525383 z"
     id="path2"
     inkscape:connector-curvature="0" />
  <path
     style="fill:#dfe0e0;stroke-width:0.2791023;fill-opacity:1"
     d="M 8.0078125 0.203125 C 3.630029 0.203125 0.10546875 3.65002 0.10546875 7.9316406 C 0.10546875 12.213261 3.630029 15.660156 8.0078125 15.660156 C 12.385596 15.660156 15.910156 12.213261 15.910156 7.9316406 C 15.910156 3.65002 12.385596 0.203125 8.0078125 0.203125 z M 8.0800781 1.2382812 C 9.9883025 1.2382812 11.535156 2.7892144 11.535156 4.703125 C 11.535156 6.6170359 9.9883025 8.1699219 8.0800781 8.1699219 C 6.1718533 8.1699219 4.625 6.6170359 4.625 4.703125 C 4.625 2.7892144 6.1718533 1.2382812 8.0800781 1.2382812 z M 8.0820312 9.5566406 C 10.847955 9.5566406 12.917969 10.248871 12.917969 13.714844 L 3.2421875 13.714844 C 3.2421875 10.248871 5.3154164 9.5566406 8.0820312 9.5566406 z "
     id="rect4" />
  <path
     style="opacity:0.1;fill:#ffffff;stroke-width:0.2791023"
     d="m 8.0082355,0.20339013 c -4.3777834,0 -7.90213607,3.44693627 -7.90213607,7.72855657 0,0.031313 0.003181,0.06186 0.004955,0.092725 C 0.21026693,3.8286853 3.6933047,0.47941011 8.00823,0.47941011 h 5.645e-4 c 4.3149255,0 7.7979625,3.34927519 7.8971745,7.54526229 0.0018,-0.030866 0.005,-0.061412 0.005,-0.092725 0,-4.2816204 -3.524353,-7.72855666 -7.9021362,-7.72855666 z"
     id="path8"
     inkscape:connector-curvature="0" />
</svg>
