<?xml version="1.0" encoding="UTF-8" standalone="no"?>
<svg
   xmlns:dc="http://purl.org/dc/elements/1.1/"
   xmlns:cc="http://creativecommons.org/ns#"
   xmlns:rdf="http://www.w3.org/1999/02/22-rdf-syntax-ns#"
   xmlns:svg="http://www.w3.org/2000/svg"
   xmlns="http://www.w3.org/2000/svg"
   xmlns:sodipodi="http://sodipodi.sourceforge.net/DTD/sodipodi-0.dtd"
   xmlns:inkscape="http://www.inkscape.org/namespaces/inkscape"
   width="16"
   height="16"
   version="1"
   id="svg24"
   sodipodi:docname="rakugo_progress_bar.svg"
   inkscape:version="0.92.3 (2405546, 2018-03-11)">
  <metadata
     id="metadata30">
    <rdf:RDF>
      <cc:Work
         rdf:about="">
        <dc:format>image/svg+xml</dc:format>
        <dc:type
           rdf:resource="http://purl.org/dc/dcmitype/StillImage" />
        <dc:title></dc:title>
      </cc:Work>
    </rdf:RDF>
  </metadata>
  <defs
     id="defs28" />
  <sodipodi:namedview
     pagecolor="#ffffff"
     bordercolor="#666666"
     borderopacity="1"
     objecttolerance="10"
     gridtolerance="10"
     guidetolerance="10"
     inkscape:pageopacity="0"
     inkscape:pageshadow="2"
     inkscape:window-width="640"
     inkscape:window-height="492"
     id="namedview26"
     showgrid="false"
     inkscape:zoom="7.375"
     inkscape:cx="16"
     inkscape:cy="16"
     inkscape:window-x="76"
     inkscape:window-y="69"
     inkscape:window-maximized="0"
     inkscape:current-layer="svg24" />
  <g
     id="g39"
     transform="matrix(0.55932519,0,0,0.63196126,-1.0170436,-8.0387409)">
    <path
       id="path4"
       style="fill:#cccccc"
       d="M 4.3008,28 C 3.0266,28 2,26.978025 2,25.710258 V 22 h 28 v 3.710258 C 30,26.978025 28.973,28 27.699,28 Z"
       inkscape:connector-curvature="0" />
    <rect
       id="rect6"
       style="fill:#999999"
       ry="1"
       height="2"
       width="8"
       y="24"
       x="20" />
    <rect
       id="rect8"
       style="fill:#4bae4f"
       ry="1"
       height="2"
       width="16"
       y="24"
       x="4" />
    <circle
       id="circle10"
       style="opacity:0.2"
       r="2"
       cy="26"
       cx="20" />
    <circle
       id="circle12"
       style="fill:#ffffff"
       r="2"
       cy="25"
       cx="20" />
    <rect
       id="rect14"
       style="opacity:0.2;fill:#ffffff"
       height="1"
       width="28"
       y="22"
       x="2" />
    <path
       id="path20"
       d="m 2,25.699 v 1 C 2,27.973 3.0266,29 4.3008,29 h 23.398 c 1.274,0 2.301,-1.027 2.301,-2.301 v -1 c 0,1.274 -1.027,2.301 -2.301,2.301 H 4.3008 c -1.2744,0 -2.301,-1.027 -2.301,-2.301 z"
       inkscape:connector-curvature="0"
       style="opacity:0.2" />
  </g>
  <path
     d="M 4.3007812,-12 C 3.0265813,-12 2,-10.973419 2,-9.6992188 v 1 C 2,-9.9734188 3.0265813,-11 4.3007812,-11 H 27.699219 C 28.973219,-11 30,-9.9734187 30,-8.6992188 v -1 C 30,-10.973419 28.973219,-12 27.699219,-12 Z"
     style="opacity:0.2;fill:#ffffff"
     id="path22"
     inkscape:connector-curvature="0" />
</svg>
