<?xml version="1.0" encoding="UTF-8" standalone="no"?>
<svg
   xmlns:dc="http://purl.org/dc/elements/1.1/"
   xmlns:cc="http://creativecommons.org/ns#"
   xmlns:rdf="http://www.w3.org/1999/02/22-rdf-syntax-ns#"
   xmlns:svg="http://www.w3.org/2000/svg"
   xmlns="http://www.w3.org/2000/svg"
   xmlns:sodipodi="http://sodipodi.sourceforge.net/DTD/sodipodi-0.dtd"
   xmlns:inkscape="http://www.inkscape.org/namespaces/inkscape"
   width="16"
   height="16"
   version="1"
   id="svg6"
   sodipodi:docname="rakugo_panel.svg"
   inkscape:version="0.92.3 (2405546, 2018-03-11)">
  <metadata
     id="metadata12">
    <rdf:RDF>
      <cc:Work
         rdf:about="">
        <dc:format>image/svg+xml</dc:format>
        <dc:type
           rdf:resource="http://purl.org/dc/dcmitype/StillImage" />
        <dc:title></dc:title>
      </cc:Work>
    </rdf:RDF>
  </metadata>
  <defs
     id="defs10">
    <filter
       style="color-interpolation-filters:sRGB;"
       inkscape:label="Colorize"
       id="filter26">
      <feComposite
         in2="SourceGraphic"
         operator="arithmetic"
         k1="0"
         k2="2.2"
         result="composite1"
         id="feComposite12" />
      <feColorMatrix
         in="composite1"
         values="1"
         type="saturate"
         result="colormatrix1"
         id="feColorMatrix14" />
      <feFlood
         flood-opacity="1"
         flood-color="rgb(165,239,172)"
         result="flood1"
         id="feFlood16" />
      <feBlend
         in="flood1"
         in2="colormatrix1"
         mode="multiply"
         result="blend1"
         id="feBlend18" />
      <feBlend
         in2="blend1"
         mode="screen"
         result="blend2"
         id="feBlend20" />
      <feColorMatrix
         in="blend2"
         values="1"
         type="saturate"
         result="colormatrix2"
         id="feColorMatrix22" />
      <feComposite
         in="colormatrix2"
         in2="SourceGraphic"
         operator="in"
         k2="1"
         result="composite2"
         id="feComposite24" />
    </filter>
  </defs>
  <sodipodi:namedview
     pagecolor="#ffffff"
     bordercolor="#666666"
     borderopacity="1"
     objecttolerance="10"
     gridtolerance="10"
     guidetolerance="10"
     inkscape:pageopacity="0"
     inkscape:pageshadow="2"
     inkscape:window-width="1366"
     inkscape:window-height="703"
     id="namedview8"
     showgrid="false"
     inkscape:zoom="20.85965"
     inkscape:cx="-0.14753817"
     inkscape:cy="8.1502066"
     inkscape:window-x="0"
     inkscape:window-y="40"
     inkscape:window-maximized="1"
     inkscape:current-layer="svg6"
     inkscape:snap-global="false"
     inkscape:pagecheckerboard="true" />
  <g
     id="g23"
     transform="matrix(0.53772681,0,0,0.44582004,10.32232,6.7196176)"
     style="filter:url(#filter26)">
    <path
       id="path2-3"
       d="m -16.663072,-8.5874679 c -0.861857,0 -1.555599,0.6668943 -1.555599,1.5200154 V 11.112686 c 0,0.853457 0.693745,1.302276 1.555599,1.299846 h 14.124603 l 3.36006703,3 2.80005597,-3 h 4.605084 c 0.861297,0 1.554591,-0.446389 1.554591,-1.299846 V -7.0674525 c 0,-0.8531211 -0.693294,-1.5200154 -1.555711,-1.5200154 z"
       style="opacity:0.2"
       inkscape:connector-curvature="0" />
    <path
       id="path4"
       style="fill:#02a8f3"
       d="m -16.663072,-9.5874679 c -0.861857,0 -1.555599,0.6668943 -1.555599,1.5200154 V 10.112686 c 0,0.853457 0.693745,1.302276 1.555599,1.299846 h 14.124603 l 3.36006703,3 2.80005597,-3 h 4.605084 c 0.861297,0 1.554591,-0.446389 1.554591,-1.299846 V -8.0674525 c 0,-0.8531211 -0.693294,-1.5200154 -1.555711,-1.5200154 z"
       inkscape:connector-curvature="0" />
    <path
       id="path8"
       d="m -16.663983,-9.5874679 c -0.861858,0 -1.554688,0.6664101 -1.554688,1.5195312 v 1 c 0,-0.8531211 0.69283,-1.5195312 1.554688,-1.5195312 H 8.224688 c 0.862417,0 1.556641,0.6664101 1.556641,1.5195312 v -1 c 0,-0.8531211 -0.694224,-1.5195312 -1.556641,-1.5195312 z"
       style="opacity:0.2;fill:#ffffff"
       inkscape:connector-curvature="0" />
  </g>
</svg>
