<?xml version="1.0" encoding="UTF-8" standalone="no"?>
<svg
   xmlns:dc="http://purl.org/dc/elements/1.1/"
   xmlns:cc="http://creativecommons.org/ns#"
   xmlns:rdf="http://www.w3.org/1999/02/22-rdf-syntax-ns#"
   xmlns:svg="http://www.w3.org/2000/svg"
   xmlns="http://www.w3.org/2000/svg"
   xmlns:sodipodi="http://sodipodi.sourceforge.net/DTD/sodipodi-0.dtd"
   xmlns:inkscape="http://www.inkscape.org/namespaces/inkscape"
   width="16"
   height="16"
   version="1.1"
   viewBox="0 0 16 16"
   id="svg16"
   sodipodi:docname="rakugo_root_node.svg"
   inkscape:version="0.92.3 (2405546, 2018-03-11)">
  <metadata
     id="metadata22">
    <rdf:RDF>
      <cc:Work
         rdf:about="">
        <dc:format>image/svg+xml</dc:format>
        <dc:type
           rdf:resource="http://purl.org/dc/dcmitype/StillImage" />
        <dc:title></dc:title>
      </cc:Work>
    </rdf:RDF>
  </metadata>
  <defs
     id="defs20" />
  <sodipodi:namedview
     pagecolor="#ffffff"
     bordercolor="#666666"
     borderopacity="1"
     objecttolerance="10"
     gridtolerance="10"
     guidetolerance="10"
     inkscape:pageopacity="0"
     inkscape:pageshadow="2"
     inkscape:window-width="1366"
     inkscape:window-height="700"
     id="namedview18"
     showgrid="false"
     inkscape:zoom="14.75"
     inkscape:cx="19.464552"
     inkscape:cy="10.502248"
     inkscape:window-x="0"
     inkscape:window-y="40"
     inkscape:window-maximized="1"
     inkscape:current-layer="svg16"
     inkscape:pagecheckerboard="true" />
  <g
     aria-label="Root"
     transform="scale(0.63790973,1.5676199)"
     style="font-style:normal;font-variant:normal;font-weight:500;font-stretch:normal;font-size:10.90122318px;line-height:1.25;font-family:'JetBrains Mono';-inkscape-font-specification:'JetBrains Mono Medium';letter-spacing:0px;word-spacing:0px;fill:#e0e0e0;fill-opacity:1;stroke:none;stroke-width:0.27253059"
     id="text25">
    <path
       d="M 0.35922393,1.1763478 H 2.8992089 q 0.5668636,0 1.024715,0.1744196 0.4687526,0.1635183 0.7957893,0.4687526 0.3270367,0.294333 0.5014563,0.7303819 0.1853208,0.4251477 0.1853208,0.9484064 0,0.7957893 -0.4033453,1.3626529 -0.4033453,0.5559624 -1.1010235,0.8066906 l 1.613381,3.3575767 H 4.1637508 L 2.7029869,5.8311701 H 1.5474573 V 9.0252285 H 0.35922393 Z M 1.5474573,4.8282576 h 1.3517516 q 0.5886661,0 0.9375052,-0.3488392 0.3488392,-0.3597403 0.3488392,-0.9484064 0,-0.5995673 -0.3488392,-0.9593076 Q 3.487875,2.211964 2.8992089,2.211964 H 1.5474573 Z"
       style="fill:#e0e0e0;fill-opacity:1;stroke-width:0.27253059"
       id="path8" />
    <path
       d="m 7.9531182,6.7686753 q 0,0.6104685 0.3488392,0.9593076 0.3488391,0.3488392 0.9702088,0.3488392 0.6104685,0 0.9593078,-0.3488392 0.35974,-0.3488391 0.35974,-0.9593076 V 5.2752077 q 0,-0.6104685 -0.35974,-0.9593076 -0.3488393,-0.3488392 -0.9593078,-0.3488392 -0.5995672,0 -0.9593076,0.3597404 Q 7.9531182,4.6756405 7.9531182,5.2752077 Z M 6.7539837,5.2752077 q 0,-0.5341599 0.1744196,-0.9702088 Q 7.1137241,3.8689499 7.4407607,3.5637157 7.7677974,3.2584814 8.23655,3.0949631 8.7053026,2.9205435 9.2721662,2.9205435 q 0.5777649,0 1.0356158,0.1744196 0.468753,0.1635183 0.79579,0.4687526 0.327036,0.3052342 0.501456,0.7412832 0.185321,0.4360489 0.185321,0.9702088 v 1.4934676 q 0,0.5341599 -0.185321,0.9811101 -0.17442,0.4360489 -0.501456,0.7412832 -0.327037,0.3052342 -0.79579,0.4796538 -0.4578509,0.1635183 -1.0356158,0.1635183 -0.5668636,0 -1.0356162,-0.1635183 Q 7.7677974,8.7963028 7.4407607,8.4910686 7.1137241,8.1749331 6.9284033,7.7388842 6.7539837,7.3028352 6.7539837,6.7686753 Z"
       style="fill:#e0e0e0;fill-opacity:1;stroke-width:0.27253059"
       id="path10" />
    <path
       d="m 14.489594,6.7686753 q 0,0.6104685 0.348839,0.9593076 0.348839,0.3488392 0.970209,0.3488392 0.610468,0 0.959308,-0.3488392 0.35974,-0.3488391 0.35974,-0.9593076 V 5.2752077 q 0,-0.6104685 -0.35974,-0.9593076 -0.34884,-0.3488392 -0.959308,-0.3488392 -0.599567,0 -0.959308,0.3597404 -0.35974,0.3488392 -0.35974,0.9484064 z M 13.290459,5.2752077 q 0,-0.5341599 0.17442,-0.9702088 0.185321,-0.436049 0.512357,-0.7412832 0.327037,-0.3052343 0.79579,-0.4687526 0.468752,-0.1744196 1.035616,-0.1744196 0.577765,0 1.035616,0.1744196 0.468753,0.1635183 0.795789,0.4687526 0.327037,0.3052342 0.501457,0.7412832 0.18532,0.4360489 0.18532,0.9702088 v 1.4934676 q 0,0.5341599 -0.18532,0.9811101 -0.17442,0.4360489 -0.501457,0.7412832 -0.327036,0.3052342 -0.795789,0.4796538 -0.457851,0.1635183 -1.035616,0.1635183 -0.566864,0 -1.035616,-0.1635183 Q 14.304273,8.7963028 13.977236,8.4910686 13.6502,8.1749331 13.464879,7.7388842 13.290459,7.3028352 13.290459,6.7686753 Z"
       style="fill:#e0e0e0;fill-opacity:1;stroke-width:0.27253059"
       id="path12" />
    <path
       d="m 19.641614,3.0295557 h 1.689689 V 1.1763478 h 1.199135 v 1.8532079 h 2.300158 v 1.0792211 h -2.300158 v 3.1940584 q 0,0.2943331 0.174419,0.4687526 0.17442,0.1635184 0.490555,0.1635184 h 1.526172 v 1.0901223 h -1.580678 q -0.839394,0 -1.329949,-0.4687526 Q 21.331303,8.0877233 21.331303,7.3028352 V 4.1087768 h -1.689689 z"
       style="fill:#e0e0e0;fill-opacity:1;stroke-width:0.27253059"
       id="path14" />
  </g>
</svg>
