<?xml version="1.0" encoding="UTF-8" standalone="no"?>
<!-- Created with Inkscape (http://www.inkscape.org/) -->

<svg
   xmlns:dc="http://purl.org/dc/elements/1.1/"
   xmlns:cc="http://creativecommons.org/ns#"
   xmlns:rdf="http://www.w3.org/1999/02/22-rdf-syntax-ns#"
   xmlns:svg="http://www.w3.org/2000/svg"
   xmlns="http://www.w3.org/2000/svg"
   xmlns:sodipodi="http://sodipodi.sourceforge.net/DTD/sodipodi-0.dtd"
   xmlns:inkscape="http://www.inkscape.org/namespaces/inkscape"
   width="16"
   height="16"
   viewBox="0 0 16 16"
   id="svg2"
   version="1.1"
   inkscape:version="0.92.3 (2405546, 2018-03-11)"
   inkscape:export-filename="/home/djrm/Projects/godot/tools/editor/icons/icon_sprite.png"
   inkscape:export-xdpi="45"
   inkscape:export-ydpi="45"
   sodipodi:docname="rakugo_auto_timer.svg">
  <defs
     id="defs4" />
  <sodipodi:namedview
     id="base"
     pagecolor="#ffffff"
     bordercolor="#666666"
     borderopacity="1.0"
     inkscape:pageopacity="0.0"
     inkscape:pageshadow="2"
     inkscape:zoom="22.627417"
     inkscape:cx="0.58127726"
     inkscape:cy="9.4772621"
     inkscape:document-units="px"
     inkscape:current-layer="layer1"
     showgrid="true"
     units="px"
     inkscape:snap-bbox="true"
     inkscape:bbox-paths="true"
     inkscape:bbox-nodes="true"
     inkscape:snap-bbox-edge-midpoints="true"
     inkscape:snap-bbox-midpoints="true"
     inkscape:snap-object-midpoints="true"
     inkscape:snap-center="true"
     inkscape:window-width="1366"
     inkscape:window-height="708"
     inkscape:window-x="0"
     inkscape:window-y="32"
     inkscape:window-maximized="1"
     inkscape:snap-smooth-nodes="true"
     inkscape:object-nodes="true"
     inkscape:snap-intersection-paths="true"
     inkscape:pagecheckerboard="true"
     inkscape:snap-global="false">
    <inkscape:grid
       type="xygrid"
       id="grid3336" />
  </sodipodi:namedview>
  <metadata
     id="metadata7">
    <rdf:RDF>
      <cc:Work
         rdf:about="">
        <dc:format>image/svg+xml</dc:format>
        <dc:type
           rdf:resource="http://purl.org/dc/dcmitype/StillImage" />
        <dc:title />
      </cc:Work>
    </rdf:RDF>
  </metadata>
  <g
     inkscape:label="Layer 1"
     inkscape:groupmode="layer"
     id="layer1"
     transform="translate(0,-1036.3622)">
    <path
       style="fill:#e0e0e0;fill-opacity:1;stroke:none;stroke-width:1.58096206;stroke-linecap:round;stroke-linejoin:round;stroke-miterlimit:4;stroke-dasharray:none;stroke-opacity:1"
       d="m 7.7290084,1037.3643 a 0.72907652,1.0001 0 0 0 -0.2819194,0.078 0.72907652,1.0001 0 0 0 -0.00142,0 c -0.00166,10e-4 -0.00262,0 -0.00427,0 a 0.72907652,1.0001 0 0 0 -0.2263898,0.209 c -9.404e-4,0 -0.00192,0 -0.00285,0 a 0.72907652,1.0001 0 0 0 -0.1495027,0.3047 c -0.00218,0.01 -0.00504,0.013 -0.00712,0.019 a 0.72907652,1.0001 0 0 0 -0.05553,0.3809 c 0,1.5 0.7049225,2.6247 1.365458,3.6602 0.554631,0.8695 1.0323384,1.6425 1.3668818,2.3398 -0.3345315,0.6974 -0.8122057,1.4723 -1.3668818,2.3418 -0.6605355,1.0355 -1.365458,2.1582 -1.365458,3.6582 a 0.72907652,1.0001 0 0 0 0.056953,0.3887 c 0,0 0,0 0,0 6.774e-4,0 0.00216,0 0.00285,0.01 a 0.72907652,1.0001 0 0 0 0.1523504,0.3066 c 7.436e-4,0 0.0021,0 0.00285,0.01 a 0.72907652,1.0001 0 0 0 0.2192706,0.2031 c 0.00679,0 0.013032,0.01 0.019934,0.012 a 0.72907652,1.0001 0 0 0 0.2748002,0.076 H 15.01905 a 0.72907652,1.0001 0 0 0 0.273376,-0.074 c 0.0074,0 0.01406,-0.01 0.02136,-0.014 a 0.72907652,1.0001 0 0 0 0.213575,-0.1992 c 0.0035,0 0.0066,-0.01 0.01,-0.014 a 0.72907652,1.0001 0 0 0 0.146654,-0.2949 c 0.003,-0.01 0.0058,-0.018 0.0085,-0.027 a 0.72907652,1.0001 0 0 0 0.05553,-0.377 c 0,-1.5 -0.704922,-2.6227 -1.365458,-3.6582 -0.554676,-0.8695 -1.03235,-1.6444 -1.366882,-2.3418 0.334544,-0.6973 0.812251,-1.4703 1.366882,-2.3398 0.660536,-1.0355 1.365458,-2.1602 1.365458,-3.6602 a 0.72907652,1.0001 0 0 0 -0.05696,-0.3906 0.72907652,1.0001 0 0 0 -0.156622,-0.3164 0.72907652,1.0001 0 0 0 -0.22639,-0.211 0.72907652,1.0001 0 0 0 -0.0085,-0.01 0.72907652,1.0001 0 0 0 -0.280495,-0.076 z m 1.157578,2 h 4.9748796 c -0.173358,0.4408 -0.22271,0.7892 -0.575229,1.3418 -0.61522,0.9645 -1.383883,1.9723 -1.835323,3.2109 a 0.72907652,1.0001 0 0 0 -0.07689,0.4473 0.72907652,1.0001 0 0 0 -0.07689,-0.4473 c -0.45144,-1.2386 -1.220102,-2.2464 -1.8353232,-3.2109 -0.3525191,-0.5526 -0.4018708,-0.901 -0.5752294,-1.3418 z"
       id="rect818"
       inkscape:connector-curvature="0" />
    <g
       aria-label="A"
       transform="matrix(0.78272056,0,0,1.2602222,0.09077452,0)"
       style="font-style:normal;font-variant:normal;font-weight:500;font-stretch:normal;font-size:15.33978271px;line-height:1.25;font-family:'JetBrains Mono';-inkscape-font-specification:'JetBrains Mono Medium';letter-spacing:0px;word-spacing:0px;fill:#e0e0e0;fill-opacity:1;stroke:none;stroke-width:0.57524192"
       id="text821">
      <path
         d="M 0.22113854,834.22485 3.2123962,823.18021 h 2.3009674 l 2.8992189,11.04464 H 6.6638473 l -0.70563,-2.92989 H 2.660164 l -0.70563,2.92989 z m 5.39960356,-4.2798 -0.9970859,-4.14174 q -0.076699,-0.29145 -0.1227183,-0.55223 -0.046019,-0.27612 -0.076699,-0.49087 -0.03068,-0.24544 -0.061359,-0.4602 H 4.286181 q -0.03068,0.21476 -0.076699,0.4602 -0.03068,0.21475 -0.092039,0.49087 -0.046019,0.26078 -0.1227182,0.55223 l -0.9970859,4.14174 z"
         style="fill:#e0e0e0;fill-opacity:1;stroke-width:0.57524192"
         id="path823"
         inkscape:connector-curvature="0" />
    </g>
  </g>
</svg>
