<?xml version="1.0" encoding="UTF-8" standalone="no"?>
<svg
   xmlns:dc="http://purl.org/dc/elements/1.1/"
   xmlns:cc="http://creativecommons.org/ns#"
   xmlns:rdf="http://www.w3.org/1999/02/22-rdf-syntax-ns#"
   xmlns:svg="http://www.w3.org/2000/svg"
   xmlns="http://www.w3.org/2000/svg"
   xmlns:sodipodi="http://sodipodi.sourceforge.net/DTD/sodipodi-0.dtd"
   xmlns:inkscape="http://www.inkscape.org/namespaces/inkscape"
   width="16"
   height="16"
   version="1.1"
   viewBox="0 0 16 16"
   id="svg16"
   sodipodi:docname="rakugo_spatial.svg"
   inkscape:version="0.92.3 (2405546, 2018-03-11)">
  <metadata
     id="metadata22">
    <rdf:RDF>
      <cc:Work
         rdf:about="">
        <dc:format>image/svg+xml</dc:format>
        <dc:type
           rdf:resource="http://purl.org/dc/dcmitype/StillImage" />
        <dc:title></dc:title>
      </cc:Work>
    </rdf:RDF>
  </metadata>
  <defs
     id="defs20" />
  <sodipodi:namedview
     pagecolor="#ffffff"
     bordercolor="#666666"
     borderopacity="1"
     objecttolerance="10"
     gridtolerance="10"
     guidetolerance="10"
     inkscape:pageopacity="0"
     inkscape:pageshadow="2"
     inkscape:window-width="640"
     inkscape:window-height="492"
     id="namedview18"
     showgrid="false"
     inkscape:zoom="7.375"
     inkscape:cx="16"
     inkscape:cy="16"
     inkscape:window-x="0"
     inkscape:window-y="48"
     inkscape:window-maximized="0"
     inkscape:current-layer="svg16" />
  <g
     id="g31"
     transform="matrix(0.53066051,0,0,0.51843272,-0.21938175,-0.80022796)">
    <path
       id="path2"
       d="m 16.0783,2.0004178 a 3.2974,3.1836 0 0 0 -1.727,0.4247 l -9.7023,5.4084 A 3.2974,3.1836 0 0 0 3.0003,10.590518 v 10.817 a 3.2974,3.1836 0 0 0 1.6487,2.757 l 9.7026,5.4085 a 3.2974,3.1836 0 0 0 3.2974,0 l 9.7026,-5.4085 a 3.2974,3.1836 0 0 0 1.649,-2.758 v -10.817 a 3.2974,3.1836 0 0 0 -1.649,-2.7570002 l -9.702,-5.4084 a 3.2974,3.1836 0 0 0 -1.571,-0.4247 z"
       style="fill:#3465a4"
       inkscape:connector-curvature="0" />
    <path
       id="path4"
       d="m 16.0783,1.9995178 a 3.2974,3.1836 0 0 0 -1.726,0.4258 l -9.7036,5.4082 A 3.2974,3.1836 0 0 0 3.0003,10.591518 v 1 A 3.2974,3.1836 0 0 1 4.6487,8.8335178 l 9.7036,-5.4082 a 3.2974,3.1836 0 0 1 1.726,-0.4258 3.2974,3.1836 0 0 1 1.57,0.4258 l 9.7031,5.4082 a 3.2974,3.1836 0 0 1 1.649,2.7580002 v -1 a 3.2974,3.1836 0 0 0 -1.648,-2.7580002 l -9.704,-5.4082 a 3.2974,3.1836 0 0 0 -1.57,-0.4258 z"
       style="opacity:0.2;fill:#ffffff"
       inkscape:connector-curvature="0" />
    <path
       id="path6"
       d="m 3.0003,21.407518 v 1 a 3.2974,3.1836 0 0 0 1.6484,2.7559 l 9.7031,5.4102 a 3.2974,3.1836 0 0 0 3.2969,0 l 9.7031,-5.4102 a 3.2974,3.1836 0 0 0 1.648,-2.756 v -1 a 3.2974,3.1836 0 0 1 -1.6484,2.7559 l -9.7031,5.4102 a 3.2974,3.1836 0 0 1 -3.2969,0 l -9.7036,-5.411 a 3.2974,3.1836 0 0 1 -1.6484,-2.755 z"
       style="opacity:0.2"
       inkscape:connector-curvature="0" />
    <path
       id="path8"
       d="M 3.3203125,9.2246094 A 3.2974,3.1836 0 0 0 3,10.589844 v 10.818359 a 3.2974,3.1836 0 0 0 1.6484375,2.755859 l 9.7031245,5.408204 A 3.2974,3.1836 0 0 0 16,29.996094 V 16.125 Z"
       style="fill:#ad7fa8"
       inkscape:connector-curvature="0" />
    <path
       id="path10"
       d="M 3.3203125,9.2246094 A 3.2974,3.1836 0 0 0 3,10.589844 v 1 A 3.2974,3.1836 0 0 1 3.3203125,10.224609 L 16,17.125 v -1 z"
       style="opacity:0.2;fill:#ffffff"
       inkscape:connector-curvature="0" />
    <path
       id="path12"
       d="M 28.677734,9.2246094 16,16.125 v 13.871094 a 3.2974,3.1836 0 0 0 1.648438,-0.423828 l 9.703124,-5.408204 A 3.2974,3.1836 0 0 0 29,21.40625 V 10.589844 A 3.2974,3.1836 0 0 0 28.677734,9.2246094 Z"
       style="fill:#8ae234"
       inkscape:connector-curvature="0" />
    <path
       id="path14"
       d="M 28.677734,9.2246094 16,16.125 v 1 L 28.677734,10.224609 A 3.2974,3.1836 0 0 1 29,11.589844 v -1 A 3.2974,3.1836 0 0 0 28.677734,9.2246094 Z"
       style="opacity:0.2;fill:#ffffff"
       inkscape:connector-curvature="0" />
  </g>
</svg>
