<?xml version="1.0" encoding="UTF-8" standalone="no"?>
<svg
   xmlns:dc="http://purl.org/dc/elements/1.1/"
   xmlns:cc="http://creativecommons.org/ns#"
   xmlns:rdf="http://www.w3.org/1999/02/22-rdf-syntax-ns#"
   xmlns:svg="http://www.w3.org/2000/svg"
   xmlns="http://www.w3.org/2000/svg"
   xmlns:sodipodi="http://sodipodi.sourceforge.net/DTD/sodipodi-0.dtd"
   xmlns:inkscape="http://www.inkscape.org/namespaces/inkscape"
   width="16"
   height="16"
   version="1"
   id="svg36"
   sodipodi:docname="rakugo_var_v_slider.svg"
   inkscape:version="0.92.3 (2405546, 2018-03-11)">
  <metadata
     id="metadata42">
    <rdf:RDF>
      <cc:Work
         rdf:about="">
        <dc:format>image/svg+xml</dc:format>
        <dc:type
           rdf:resource="http://purl.org/dc/dcmitype/StillImage" />
        <dc:title></dc:title>
      </cc:Work>
    </rdf:RDF>
  </metadata>
  <defs
     id="defs40" />
  <sodipodi:namedview
     pagecolor="#ffffff"
     bordercolor="#666666"
     borderopacity="1"
     objecttolerance="10"
     gridtolerance="10"
     guidetolerance="10"
     inkscape:pageopacity="0"
     inkscape:pageshadow="2"
     inkscape:window-width="1366"
     inkscape:window-height="700"
     id="namedview38"
     showgrid="false"
     inkscape:zoom="14.75"
     inkscape:cx="9.4344753"
     inkscape:cy="6.637841"
     inkscape:window-x="0"
     inkscape:window-y="40"
     inkscape:window-maximized="1"
     inkscape:current-layer="svg36"
     inkscape:pagecheckerboard="true" />
  <g
     transform="matrix(0.94576271,0,0,1,3.4169489,-1036.3694)"
     id="layer1"
     inkscape:label="Layer 1">
    <path
       id="path817"
       transform="translate(0,1036.3622)"
       d="M 5,1 A 2,2 0 0 0 3,3 2,2 0 0 0 5,5 2,2 0 0 0 7,3 2,2 0 0 0 5,1 Z m 5,0 C 9.4477153,1 9,1.4477153 9,2 9,2.5522847 9.4477153,3 10,3 h 2 C 12.552285,3 13,2.5522847 13,2 13,1.4477153 12.552285,1 12,1 Z M 6,6.8671875 C 5.6736072,6.9534819 5.3376025,6.9981075 5,7 4.6624807,6.9987451 4.3264773,6.9547759 4,6.8691406 V 11.869141 13 14 c -0.019125,1.352323 2.0191252,1.352323 2,0 V 13 11.867188 Z M 11,7 c -0.552285,0 -1,0.4477153 -1,1 0,0.5522847 0.447715,1 1,1 0.552285,0 1,-0.4477153 1,-1 0,-0.5522847 -0.447715,-1 -1,-1 z m -1,6 c -0.5522847,0 -1,0.447715 -1,1 0,0.552285 0.4477153,1 1,1 h 2 c 0.552285,0 1,-0.447715 1,-1 0,-0.552285 -0.447715,-1 -1,-1 z"
       style="color:#000000;font-style:normal;font-variant:normal;font-weight:normal;font-stretch:normal;font-size:medium;line-height:normal;font-family:sans-serif;font-variant-ligatures:normal;font-variant-position:normal;font-variant-caps:normal;font-variant-numeric:normal;font-variant-alternates:normal;font-feature-settings:normal;text-indent:0;text-align:start;text-decoration:none;text-decoration-line:none;text-decoration-style:solid;text-decoration-color:#000000;letter-spacing:normal;word-spacing:normal;text-transform:none;writing-mode:lr-tb;direction:ltr;text-orientation:mixed;dominant-baseline:auto;baseline-shift:baseline;text-anchor:start;white-space:normal;shape-padding:0;clip-rule:nonzero;display:inline;overflow:visible;visibility:visible;opacity:1;isolation:auto;mix-blend-mode:normal;color-interpolation:sRGB;color-interpolation-filters:linearRGB;solid-color:#000000;solid-opacity:1;vector-effect:none;fill:#a5efac;fill-opacity:1;fill-rule:nonzero;stroke:none;stroke-width:2;stroke-linecap:round;stroke-linejoin:miter;stroke-miterlimit:4;stroke-dasharray:none;stroke-dashoffset:0;stroke-opacity:1;color-rendering:auto;image-rendering:auto;shape-rendering:auto;text-rendering:auto;enable-background:accumulate"
       inkscape:connector-curvature="0" />
  </g>
  <g
     aria-label="R"
     transform="scale(0.80148911,1.2476776)"
     style="font-style:normal;font-variant:normal;font-weight:500;font-stretch:normal;font-size:16.28638077px;line-height:1.25;font-family:'JetBrains Mono';-inkscape-font-specification:'JetBrains Mono Medium';letter-spacing:0px;word-spacing:0px;fill:#a5efac;fill-opacity:1;stroke:none;stroke-width:0.40715948"
     id="text23">
    <path
       d="M -0.05244467,0.49991249 H 3.7422821 q 0.8468918,0 1.5309197,0.26058209 0.7003144,0.24429572 1.1889058,0.70031442 0.4885915,0.4397322 0.7491736,1.0911875 0.2768684,0.6351688 0.2768684,1.4169151 0,1.1889058 -0.6025961,2.0357976 -0.602596,0.8306054 -1.6449244,1.2051922 L 7.6510134,12.226107 H 5.6315022 L 3.4491272,7.4541971 H 1.7227708 V 12.226107 H -0.05244467 Z M 1.7227708,5.95585 h 2.0195113 q 0.8794645,0 1.4006287,-0.5211641 Q 5.664075,4.8972353 5.664075,4.0177707 5.664075,3.1220198 5.1429108,2.5845692 4.6217466,2.0471187 3.7422821,2.0471187 H 1.7227708 Z"
       style="fill:#a5efac;fill-opacity:1;stroke-width:0.40715948"
       id="path815" />
  </g>
</svg>
