<?xml version="1.0" encoding="UTF-8" standalone="no"?>
<!-- Created with Inkscape (http://www.inkscape.org/) -->

<svg
   xmlns:dc="http://purl.org/dc/elements/1.1/"
   xmlns:cc="http://creativecommons.org/ns#"
   xmlns:rdf="http://www.w3.org/1999/02/22-rdf-syntax-ns#"
   xmlns:svg="http://www.w3.org/2000/svg"
   xmlns="http://www.w3.org/2000/svg"
   xmlns:sodipodi="http://sodipodi.sourceforge.net/DTD/sodipodi-0.dtd"
   xmlns:inkscape="http://www.inkscape.org/namespaces/inkscape"
   width="16"
   height="16"
   viewBox="0 0 16 16"
   id="svg2"
   version="1.1"
   inkscape:version="0.92.3 (2405546, 2018-03-11)"
   inkscape:export-filename="/home/djrm/Projects/godot/tools/editor/icons/icon_new.png"
   inkscape:export-xdpi="90"
   inkscape:export-ydpi="90"
   sodipodi:docname="save.svg">
  <defs
     id="defs4" />
  <sodipodi:namedview
     id="base"
     pagecolor="#ffffff"
     bordercolor="#666666"
     borderopacity="1.0"
     inkscape:pageopacity="0.0"
     inkscape:pageshadow="2"
     inkscape:zoom="32"
     inkscape:cx="9.3310957"
     inkscape:cy="7.8332424"
     inkscape:document-units="px"
     inkscape:current-layer="layer1-8"
     showgrid="true"
     units="px"
     inkscape:snap-bbox="true"
     inkscape:bbox-paths="true"
     inkscape:bbox-nodes="true"
     inkscape:snap-bbox-edge-midpoints="true"
     inkscape:snap-bbox-midpoints="false"
     inkscape:snap-object-midpoints="true"
     inkscape:snap-center="true"
     inkscape:window-width="1366"
     inkscape:window-height="700"
     inkscape:window-x="0"
     inkscape:window-y="40"
     inkscape:window-maximized="1"
     inkscape:snap-smooth-nodes="true"
     inkscape:object-nodes="true"
     showguides="false"
     inkscape:document-rotation="0"
     inkscape:pagecheckerboard="true"
     inkscape:snap-global="false">
    <inkscape:grid
       type="xygrid"
       id="grid3336" />
  </sodipodi:namedview>
  <metadata
     id="metadata7">
    <rdf:RDF>
      <cc:Work
         rdf:about="">
        <dc:format>image/svg+xml</dc:format>
        <dc:type
           rdf:resource="http://purl.org/dc/dcmitype/StillImage" />
        <dc:title></dc:title>
      </cc:Work>
    </rdf:RDF>
  </metadata>
  <g
     inkscape:label="Layer 1"
     inkscape:groupmode="layer"
     id="layer1"
     transform="translate(0,-1036.3622)">
    <g
       id="layer1-8"
       inkscape:label="Layer 1"
       transform="translate(0,-1.6949463e-5)">
      <path
         style="opacity:1;fill:#e0e0e0;fill-opacity:1;stroke:none;stroke-width:1;stroke-linecap:round;stroke-linejoin:round;stroke-miterlimit:4;stroke-dasharray:none;stroke-dashoffset:0;stroke-opacity:1"
         d="M 2 1 L 2 15 L 14 15 L 14 6 L 9 6 L 9 1 L 2 1 z M 10 1 L 10 5 L 14 5 L 10 1 z M 8.046875 6.2519531 C 8.4414828 6.2519531 8.7989648 6.3056955 9.1210938 6.4140625 C 9.4512755 6.5146846 9.7332535 6.6619174 9.9667969 6.8554688 C 10.208394 7.0489729 10.398252 7.2858072 10.535156 7.5644531 C 10.680114 7.8431463 10.755619 8.1555988 10.763672 8.5039062 L 9.3984375 8.5039062 C 9.3903849 8.1555988 9.2540383 7.880979 8.9882812 7.6796875 C 8.7305782 7.4707031 8.408039 7.3652344 8.0214844 7.3652344 C 7.6027169 7.3652344 7.2728466 7.4627459 7.03125 7.65625 C 6.7896534 7.8498013 6.6679688 8.1085068 6.6679688 8.4335938 C 6.6679687 8.7355074 6.758376 8.9921874 6.9355469 9.2011719 C 7.120771 9.4024162 7.4100797 9.5636102 7.8046875 9.6875 L 8.7714844 9.9785156 C 9.4640615 10.17976 9.9874552 10.502123 10.341797 10.943359 C 10.704192 11.376809 10.884766 11.898245 10.884766 12.509766 C 10.884766 12.86586 10.816592 13.18627 10.679688 13.472656 C 10.550836 13.75909 10.360978 14.003834 10.111328 14.205078 C 9.8616785 14.40637 9.5594203 14.565538 9.2050781 14.681641 C 8.8507365 14.790003 8.4526927 14.84375 8.0097656 14.84375 C 7.5909981 14.84375 7.2076166 14.790003 6.8613281 14.681641 C 6.5150396 14.573278 6.2147343 14.422067 5.9570312 14.228516 C 5.7073814 14.027271 5.5082392 13.782527 5.3632812 13.496094 C 5.2183233 13.209708 5.1428189 12.893276 5.1347656 12.544922 L 6.5 12.544922 C 6.5161062 12.908757 6.6654026 13.195312 6.9472656 13.404297 C 7.2371816 13.613329 7.5983292 13.716797 8.0332031 13.716797 C 8.5083432 13.716797 8.8787751 13.617307 9.1445312 13.416016 C 9.4183407 13.207031 9.5566406 12.924407 9.5566406 12.568359 C 9.5566406 12.258706 9.4552367 11.988064 9.2539062 11.755859 C 9.0525758 11.523607 8.7669325 11.348524 8.3964844 11.232422 L 7.4785156 10.943359 C 6.0530955 10.509863 5.3398438 9.7039432 5.3398438 8.5273438 C 5.3398437 7.8229416 5.5775943 7.2696761 6.0527344 6.8671875 C 6.5359277 6.4569069 7.2012868 6.2519531 8.046875 6.2519531 z "
         transform="translate(0,1036.3622)"
         id="rect4158" />
      <g
         aria-label="S"
         transform="matrix(0.73652081,0,0,0.7079419,1.7091847,334.73968)"
         style="font-style:normal;font-variant:normal;font-weight:500;font-stretch:normal;font-size:16.40120888px;line-height:1.25;font-family:'JetBrains Mono';-inkscape-font-specification:'JetBrains Mono Medium';letter-spacing:0px;word-spacing:0px;fill:#000000;fill-opacity:1;stroke:none;stroke-width:0.41003022"
         id="text817" />
    </g>
  </g>
</svg>
