<?xml version="1.0" encoding="UTF-8" standalone="no"?>
<svg
   xmlns:dc="http://purl.org/dc/elements/1.1/"
   xmlns:cc="http://creativecommons.org/ns#"
   xmlns:rdf="http://www.w3.org/1999/02/22-rdf-syntax-ns#"
   xmlns:svg="http://www.w3.org/2000/svg"
   xmlns="http://www.w3.org/2000/svg"
   xmlns:sodipodi="http://sodipodi.sourceforge.net/DTD/sodipodi-0.dtd"
   xmlns:inkscape="http://www.inkscape.org/namespaces/inkscape"
   height="16"
   width="16"
   version="1"
   id="svg55"
   sodipodi:docname="save.svg"
   inkscape:version="0.92.4 (33fec40, 2019-01-16)">
  <metadata
     id="metadata59">
    <rdf:RDF>
      <cc:Work
         rdf:about="">
        <dc:format>image/svg+xml</dc:format>
        <dc:type
           rdf:resource="http://purl.org/dc/dcmitype/StillImage" />
        <dc:title></dc:title>
      </cc:Work>
    </rdf:RDF>
  </metadata>
  <sodipodi:namedview
     pagecolor="#ffffff"
     bordercolor="#666666"
     borderopacity="1"
     objecttolerance="10"
     gridtolerance="10"
     guidetolerance="10"
     inkscape:pageopacity="0"
     inkscape:pageshadow="2"
     inkscape:window-width="1366"
     inkscape:window-height="689"
     id="namedview57"
     showgrid="false"
     inkscape:pagecheckerboard="true"
     inkscape:zoom="10.429825"
     inkscape:cx="20.055172"
     inkscape:cy="9.4834006"
     inkscape:window-x="0"
     inkscape:window-y="40"
     inkscape:window-maximized="1"
     inkscape:current-layer="svg55" />
  <defs
     id="defs7">
    <linearGradient
       id="linearGradient4561"
       x1="24"
       gradientUnits="userSpaceOnUse"
       x2="44"
       gradientTransform="matrix(0.38733018,0,0,0.41041157,-1.3020539,-1.9509209)"
       y1="24"
       y2="24">
      <stop
         offset="0"
         id="stop2" />
      <stop
         stop-opacity="0"
         offset="1"
         id="stop4" />
    </linearGradient>
  </defs>
  <path
     d="M 15.740474,14.465849 V 1.3325563 c 0,-0.45486055 -0.345617,-0.82094659 -0.77466,-0.82094659 H 1.0219273 c -0.42916193,0 -0.77466044,0.36608604 -0.77466044,0.82085439 V 14.465757 c 0,0.454952 0.34549851,0.820945 0.77466044,0.820945 H 14.965814 c 0.429043,0 0.77466,-0.365993 0.77466,-0.820945 z"
     id="path9"
     inkscape:connector-curvature="0"
     style="fill:#ddd6a7;stroke-width:0.30284113" />
  <g
     id="g23"
     transform="matrix(0.2979463,0,0,0.30781636,-1.540411,-1.9509214)">
    <rect
       transform="scale(1,-1)"
       height="2"
       width="20"
       y="-33"
       x="35"
       id="rect11"
       style="opacity:0.5" />
    <rect
       transform="scale(1,-1)"
       height="2"
       width="20"
       y="-29"
       x="35"
       id="rect13"
       style="opacity:0.5" />
    <rect
       transform="scale(1,-1)"
       height="2"
       width="18"
       y="-25"
       x="35"
       id="rect15"
       style="opacity:0.5" />
    <rect
       transform="scale(1,-1)"
       height="2"
       width="14"
       y="-21"
       x="35"
       id="rect17"
       style="opacity:0.5" />
    <rect
       transform="scale(1,-1)"
       height="2"
       width="20"
       y="-17"
       x="35"
       id="rect19"
       style="opacity:0.5" />
    <rect
       transform="scale(1,-1)"
       height="2"
       width="16"
       y="-13"
       x="35"
       id="rect21"
       style="opacity:0.5" />
  </g>
  <g
     transform="matrix(0.2979463,0,0,0.30781636,-1.540411,-2.2587378)"
     id="g47">
    <rect
       height="2"
       width="20"
       y="13"
       x="9"
       id="rect25"
       style="opacity:0.5" />
    <rect
       height="2"
       width="18"
       y="17"
       x="9"
       id="rect27"
       style="opacity:0.5" />
    <rect
       height="2"
       width="16"
       y="21"
       x="9"
       id="rect29"
       style="opacity:0.5" />
    <rect
       height="2"
       width="14"
       y="25"
       x="9"
       id="rect31"
       style="opacity:0.5" />
    <rect
       height="2"
       width="12"
       y="29"
       x="9"
       id="rect33"
       style="opacity:0.5" />
    <rect
       height="2"
       width="20"
       y="33"
       x="9"
       id="rect35"
       style="opacity:0.5" />
    <rect
       height="2"
       width="20"
       y="37"
       x="9"
       id="rect37"
       style="opacity:0.5" />
    <rect
       height="2"
       width="18"
       y="41"
       x="9"
       id="rect39"
       style="opacity:0.5" />
    <rect
       height="2"
       width="14"
       y="45"
       x="9"
       id="rect41"
       style="opacity:0.5" />
    <rect
       height="2"
       width="20"
       y="49"
       x="9"
       id="rect43"
       style="opacity:0.5" />
    <rect
       height="2"
       width="16"
       y="53"
       x="9"
       id="rect45"
       style="opacity:0.5" />
  </g>
  <path
     d="M 15.740474,14.465849 V 1.3325563 c 0,-0.45486055 -0.345617,-0.82094659 -0.77466,-0.82094659 H 7.9938708 V 15.286795 h 6.9719432 c 0.429043,0 0.77466,-0.365993 0.77466,-0.820946 z"
     id="path49"
     inkscape:connector-curvature="0"
     style="opacity:0;fill:url(#linearGradient4561);stroke-width:0.30284113" />
  <path
     d="M 5.014408,0.51160971 H 7.3979779 V 7.0782563 L 6.2061926,5.4366716 5.014408,7.0782563 Z"
     id="path51"
     inkscape:connector-curvature="0"
     style="fill:#ff5959;stroke-width:0.30284113" />
  <path
     d="m 1.021808,0.51160971 c -0.42916172,0 -0.77454114,0.36590174 -0.77454114,0.82063849 v 0.6156325 c 0,-0.4546445 0.34537942,-0.8206377 0.77454114,-0.8206377 h 13.943887 c 0.42934,0 0.77466,0.3659932 0.77466,0.8206377 V 1.3322482 c 0,-0.45473675 -0.34532,-0.82063849 -0.77466,-0.82063849 z"
     id="path53"
     inkscape:connector-curvature="0"
     style="opacity:0;fill:#ffffff;stroke-width:0.30284113" />
</svg>
